<?xml version="1.0" encoding="utf-8"?>
<!-- Generator: Adobe Illustrator 24.1.2, SVG Export Plug-In . SVG Version: 6.00 Build 0)  -->
<svg version="1.1" id="Calque_1" xmlns="http://www.w3.org/2000/svg" xmlns:xlink="http://www.w3.org/1999/xlink" x="0px" y="0px"
	 viewBox="0 0 213.16 33.76" style="enable-background:new 0 0 213.16 33.76;" xml:space="preserve">
<style type="text/css">
	.st0{fill:#FFFFFF;}
</style>
<g>
	<path d="M207.71,19.54c0,3.13-2.54,5.67-5.67,5.67H18.65c-3.13,0-5.67-2.54-5.67-5.67v-1.33c0-3.13,2.54-5.67,5.67-5.67h183.4
		c3.13,0,5.67,2.54,5.67,5.67V19.54z"/>
	<path class="st0" d="M19.95,23.52c0.59,0.09-3.01-2.39-2.45-5.27c0.6-3.08,3.45-3.94,2.86-4.03c-0.59-0.09-3.2,0.85-3.76,3.76
		C16.05,20.78,19.36,23.43,19.95,23.52z"/>
	<path class="st0" d="M201.03,23.52c-0.59,0.09,3.01-2.39,2.45-5.27c-0.6-3.08-3.45-3.94-2.86-4.03c0.59-0.09,3.2,0.85,3.76,3.76
		C204.92,20.78,201.61,23.43,201.03,23.52z"/>
	<path class="st0" d="M110.34,14.22c-44.23,0-80.1,0.16-80.1,0.34c0,0.19,35.86,0.35,80.1,0.35c44.24,0,80.1-0.15,80.1-0.35
		C190.44,14.37,154.58,14.22,110.34,14.22z"/>
</g>
</svg>
