<?xml version="1.0" encoding="utf-8"?>
<!-- Generator: Adobe Illustrator 24.1.2, SVG Export Plug-In . SVG Version: 6.00 Build 0)  -->
<svg version="1.1" xmlns="http://www.w3.org/2000/svg" xmlns:xlink="http://www.w3.org/1999/xlink" x="0px" y="0px"
	 viewBox="0 0 700 551.1" style="enable-background:new 0 0 700 551.1;" xml:space="preserve">
<style type="text/css">
	.st0{display:none;}
	.st1{display:inline;}
	.st2{fill:#FFFFFF;}
</style>
<g id="Calque_2" class="st0">
	<rect x="-7.4" y="-5.1" class="st1" width="721.44" height="574.56"/>
</g>
<g id="Calque_1">
	<path class="st2" d="M33.37,37.23C20.07,51.77,20.76,74.05,16.56,70.2s-1.02-22.58,12.28-37.12s31.68-19.37,35.88-15.53
		S46.67,22.69,33.37,37.23z"/>
	<path class="st2" d="M37,511.68c-13.3-14.54-11-38.29-15.79-33.91s-2.68,24.1,10.62,38.64c13.3,14.54,32.75,18.39,37.54,14.01
		S50.3,526.22,37,511.68z"/>
	<path class="st2" d="M680.76,36.02c13.3,14.54,13.18,36.3,17.17,32.65s0.44-22.05-12.86-36.58s-31.31-19.71-35.3-16.06
		S667.46,21.49,680.76,36.02z"/>
	<path class="st2" d="M680.24,511.99c13.3-14.54,11.85-37.51,16.33-33.42c4.48,4.09,1.8,23.3-11.5,37.83
		c-13.3,14.54-32.19,18.91-36.66,14.81C643.93,527.13,666.94,526.53,680.24,511.99z"/>
	<ellipse class="st2" cx="369" cy="17.75" rx="187.56" ry="2.58"/>
	<ellipse class="st2" cx="369" cy="531.75" rx="187.56" ry="2.58"/>
	<ellipse class="st2" cx="697.15" cy="279.71" rx="3.27" ry="147.66"/>
	<ellipse class="st2" cx="19.91" cy="277.04" rx="2.58" ry="150.33"/>
</g>
</svg>
