<?xml version="1.0" encoding="utf-8"?>
<!-- Generator: Adobe Illustrator 24.1.2, SVG Export Plug-In . SVG Version: 6.00 Build 0)  -->
<svg version="1.1" xmlns="http://www.w3.org/2000/svg" xmlns:xlink="http://www.w3.org/1999/xlink" x="0px" y="0px"
	 viewBox="0 0 209.11 205.38" style="enable-background:new 0 0 209.11 205.38;" xml:space="preserve">
<style type="text/css">
	.st0{fill:#FAB711;}
	.st1{fill:#1D1D1C;}
	.st2{fill:#FBB714;}
	.st3{fill:#FFFFFF;}
	.st4{display:none;}
	.st5{display:inline;}
	.st6{fill:#AFAFAF;}
</style>
<g id="Calque_1">
	<path d="M192.34,91.85c0,4.25,1.68,15.25-11.82,14.5c-12.93-0.72-12-10.22-12-17.49c0-25.62-34-52.26-57.99-52.26
		c-30.26,0-57.26,25.64-61.63,49.69c-1.22,6.7-4.37,20.06-12.62,20.06c-8.12,0-12.43-2.41-12.43-14.5
		c0-40.73,37.72-73.75,84.25-73.75C154.62,18.1,192.34,51.12,192.34,91.85z"/>
	<path d="M67.77,121.73c0-7.39-7.78-13.38-17.38-13.38s-17.38,5.99-17.38,13.38c0,0.04,0.01,0.08,0.01,0.13h-0.01v52.25
		c0,7.39,7.78,13.38,17.38,13.38s17.38-5.99,17.38-13.38v-52.25h-0.01C67.77,121.81,67.77,121.77,67.77,121.73z"/>
	<path class="st0" d="M111.88,184.85c0,2.07-1.68,3.75-3.75,3.75l0,0c-2.07,0-3.75-1.68-3.75-3.75V103.6c0-2.07,1.68-3.75,3.75-3.75
		l0,0c2.07,0,3.75,1.68,3.75,3.75V184.85z"/>
	<path d="M90.88,171.23c0,2,1.62,3.63,3.63,3.63l0,0c2,0,3.63-1.62,3.63-3.63v-54c0-2-1.62-3.63-3.63-3.63l0,0
		c-2,0-3.63,1.62-3.63,3.63V171.23z"/>
	<path class="st1" d="M76.88,157.35c0,2.14,1.73,3.88,3.88,3.88l0,0c2.14,0,3.88-1.74,3.88-3.88V131.1c0-2.14-1.73-3.88-3.88-3.88
		l0,0c-2.14,0-3.88,1.74-3.88,3.88V157.35z"/>
	<path class="st2" d="M13.39,133.14c0-4.07,3.85-7.37,8.6-7.37c0,0,2.53,0,4.75,0c0,5.96,0,43.58,0,43.58s0,0-4.75,0
		c-4.75,0-8.6-3.3-8.6-7.37v-28.78h0C13.39,133.19,13.39,133.16,13.39,133.14z"/>
	<path class="st3" d="M169.61,44.77c-3.58,1.33-24.31-22.42-61.48-22.42c-25.39,0-51.77,17.25-54.35,16.25
		c-1.35-0.52,26-18.63,54.32-18.63C143.99,19.98,170.97,44.26,169.61,44.77z"/>
	<path class="st3" d="M63.02,117.49c0.15,1-6.11-4.99-14.24-3.81c-8.69,1.27-11.61,6.25-11.76,5.25c-0.15-1,2.97-5.58,11.18-6.78
		C56.07,111,62.87,116.49,63.02,117.49z"/>
	<path class="st3" d="M22.81,127.33c0.32,0.27-3.2,0.05-5.29,2.53c-2.23,2.65-1.72,4.94-2.04,4.67c-0.32-0.27-0.66-2.49,1.45-5
		C18.94,127.14,22.48,127.06,22.81,127.33z"/>
	<path class="st3" d="M83.84,130.18c0.03,0.24-1.45-1.19-3.38-0.9c-2.06,0.3-2.76,1.48-2.79,1.25c-0.03-0.24,0.71-1.33,2.65-1.61
		C82.19,128.64,83.8,129.95,83.84,130.18z"/>
	<path class="st3" d="M97.59,117.07c0.03,0.24-1.45-1.19-3.38-0.9c-2.06,0.3-2.76,1.48-2.79,1.25c-0.04-0.24,0.71-1.33,2.65-1.61
		C95.94,115.53,97.55,116.83,97.59,117.07z"/>
	<path class="st3" d="M111.21,102.69c0.03,0.24-1.45-1.19-3.38-0.9c-2.06,0.3-2.76,1.48-2.79,1.25c-0.04-0.24,0.71-1.33,2.65-1.61
		C109.56,101.15,111.18,102.45,111.21,102.69z"/>
	<path class="st3" d="M83.84,157.76c0.03-0.24-1.45,1.19-3.38,0.9c-2.06-0.3-2.76-1.48-2.79-1.25c-0.03,0.24,0.71,1.33,2.65,1.61
		C82.19,159.3,83.8,157.99,83.84,157.76z"/>
	<path class="st3" d="M97.59,170.87c0.03-0.24-1.45,1.19-3.38,0.9c-2.06-0.3-2.76-1.48-2.79-1.25c-0.04,0.24,0.71,1.33,2.65,1.61
		C95.94,172.41,97.55,171.11,97.59,170.87z"/>
	<path class="st3" d="M111.21,185.25c0.03-0.24-1.45,1.19-3.38,0.9c-2.06-0.3-2.76-1.48-2.79-1.25c-0.04,0.24,0.71,1.33,2.65,1.61
		C109.56,186.79,111.18,185.49,111.21,185.25z"/>
	<path class="st3" d="M36.96,151.06c0,13.97-0.14,25.29-0.32,25.29c-0.17,0-0.32-11.32-0.32-25.29c0-13.97,0.14-25.29,0.32-25.29
		C36.82,125.77,36.96,137.1,36.96,151.06z"/>
	<path class="st3" d="M105.67,145.1c0,20.3-0.14,36.75-0.31,36.75c-0.17,0-0.32-16.45-0.32-36.75c0-20.29,0.14-36.75,0.32-36.75
		C105.53,108.35,105.67,124.81,105.67,145.1z"/>
	<path class="st3" d="M92.78,144.1c0,12.7-0.14,23-0.32,23c-0.17,0-0.32-10.3-0.32-23c0-12.7,0.14-23,0.32-23
		C92.64,121.1,92.78,131.4,92.78,144.1z"/>
	<path class="st3" d="M78.21,144.1c0,6.08-0.13,11-0.3,11c-0.16,0-0.3-4.92-0.3-11s0.13-11,0.3-11
		C78.08,133.1,78.21,138.03,78.21,144.1z"/>
	<path class="st3" d="M15.54,150.06c0,7.16-0.14,12.96-0.31,12.96c-0.17,0-0.32-5.8-0.32-12.96c0-7.16,0.14-12.96,0.32-12.96
		C15.4,137.1,15.54,142.9,15.54,150.06z"/>
	<path d="M148.49,121.73c0-7.39,7.78-13.38,17.38-13.38c9.6,0,17.38,5.99,17.38,13.38c0,0.04-0.01,0.08-0.01,0.13h0.01v52.25
		c0,7.39-7.78,13.38-17.38,13.38c-9.6,0-17.38-5.99-17.38-13.38v-52.25h0.01C148.5,121.81,148.49,121.77,148.49,121.73z"/>
	<path d="M125.39,171.23c0,2-1.62,3.63-3.63,3.63l0,0c-2,0-3.63-1.62-3.63-3.63v-54c0-2,1.62-3.63,3.63-3.63l0,0
		c2,0,3.63,1.62,3.63,3.63V171.23z"/>
	<path class="st1" d="M139.39,157.35c0,2.14-1.73,3.88-3.88,3.88l0,0c-2.14,0-3.88-1.74-3.88-3.88V131.1c0-2.14,1.73-3.88,3.88-3.88
		l0,0c2.14,0,3.88,1.74,3.88,3.88V157.35z"/>
	<path class="st0" d="M202.88,133.14c0-4.07-3.85-7.37-8.6-7.37c0,0-2.53,0-4.75,0c0,5.96,0,43.58,0,43.58s0,0,4.75,0
		c4.75,0,8.6-3.3,8.6-7.37v-28.78h0C202.87,133.19,202.88,133.16,202.88,133.14z"/>
	<path class="st3" d="M153.25,117.49c-0.15,1,6.11-4.99,14.24-3.81c8.69,1.27,11.61,6.25,11.76,5.25c0.15-1-2.97-5.58-11.18-6.78
		C160.19,111,153.39,116.49,153.25,117.49z"/>
	<path class="st3" d="M193.46,127.33c-0.32,0.27,3.2,0.05,5.29,2.53c2.23,2.65,1.72,4.94,2.04,4.67c0.32-0.27,0.66-2.49-1.45-5
		C197.32,127.14,193.78,127.06,193.46,127.33z"/>
	<path class="st3" d="M132.42,130.18c-0.03,0.24,1.45-1.19,3.38-0.9c2.06,0.3,2.76,1.48,2.79,1.25c0.03-0.24-0.71-1.33-2.65-1.61
		C134.07,128.64,132.46,129.95,132.42,130.18z"/>
	<path class="st3" d="M118.67,117.07c-0.03,0.24,1.45-1.19,3.38-0.9c2.06,0.3,2.76,1.48,2.79,1.25c0.04-0.24-0.71-1.33-2.65-1.61
		C120.32,115.53,118.71,116.83,118.67,117.07z"/>
	<path class="st3" d="M132.42,157.76c-0.03-0.24,1.45,1.19,3.38,0.9c2.06-0.3,2.76-1.48,2.79-1.25c0.03,0.24-0.71,1.33-2.65,1.61
		C134.07,159.3,132.46,157.99,132.42,157.76z"/>
	<path class="st3" d="M118.67,170.87c-0.03-0.24,1.45,1.19,3.38,0.9c2.06-0.3,2.76-1.48,2.79-1.25c0.04,0.24-0.71,1.33-2.65,1.61
		C120.32,172.41,118.71,171.11,118.67,170.87z"/>
	<path class="st3" d="M179.3,151.06c0,13.97,0.14,25.29,0.31,25.29c0.17,0,0.32-11.32,0.32-25.29c0-13.97-0.14-25.29-0.32-25.29
		C179.44,125.77,179.3,137.1,179.3,151.06z"/>
	<path class="st3" d="M123.48,144.1c0,12.7,0.14,23,0.31,23c0.17,0,0.32-10.3,0.32-23c0-12.7-0.14-23-0.32-23
		C123.62,121.1,123.48,131.4,123.48,144.1z"/>
	<path class="st3" d="M138.05,144.1c0,6.08,0.13,11,0.3,11c0.16,0,0.3-4.92,0.3-11s-0.13-11-0.3-11
		C138.18,133.1,138.05,138.03,138.05,144.1z"/>
	<path class="st3" d="M200.72,150.06c0,7.16,0.14,12.96,0.32,12.96c0.17,0,0.32-5.8,0.32-12.96c0-7.16-0.14-12.96-0.32-12.96
		C200.86,137.1,200.72,142.9,200.72,150.06z"/>
	<path class="st3" d="M33.17,103.06c1.01,0.05-6.28-3.21-5.1-13.83c0.97-8.73,2.81-18.32,1.8-18.38c-1.01-0.05-2.69,9.68-3.38,17.94
		C25.45,101.38,32.16,103.01,33.17,103.06z"/>
	<path class="st3" d="M183.34,103.06c-1.01,0.05,6.28-3.21,5.1-13.83c-0.97-8.73-2.81-18.32-1.8-18.38
		c1.01-0.05,2.69,9.68,3.38,17.94C191.06,101.38,184.35,103.01,183.34,103.06z"/>
</g>
<g id="Calque_2" class="st4">
	<g class="st5">
		<path d="M192.34,91.85c0,4.25,1.68,15.25-11.82,14.5c-12.93-0.72-12-10.22-12-17.49c0-25.62-34-52.26-57.99-52.26
			c-30.26,0-57.26,25.64-61.63,49.69c-1.22,6.7-4.37,20.06-12.62,20.06c-8.12,0-12.43-2.41-12.43-14.5
			c0-40.73,37.72-73.75,84.25-73.75C154.62,18.1,192.34,51.12,192.34,91.85z"/>
		<path d="M67.77,121.73c0-7.39-7.78-13.38-17.38-13.38s-17.38,5.99-17.38,13.38c0,0.04,0.01,0.08,0.01,0.13h-0.01v52.25
			c0,7.39,7.78,13.38,17.38,13.38s17.38-5.99,17.38-13.38v-52.25h-0.01C67.77,121.81,67.77,121.77,67.77,121.73z"/>
		<path class="st6" d="M111.88,184.85c0,2.07-1.68,3.75-3.75,3.75l0,0c-2.07,0-3.75-1.68-3.75-3.75V103.6
			c0-2.07,1.68-3.75,3.75-3.75l0,0c2.07,0,3.75,1.68,3.75,3.75V184.85z"/>
		<path d="M90.88,171.23c0,2,1.62,3.63,3.63,3.63l0,0c2,0,3.63-1.62,3.63-3.63v-54c0-2-1.62-3.63-3.63-3.63l0,0
			c-2,0-3.63,1.62-3.63,3.63V171.23z"/>
		<path class="st1" d="M76.88,157.35c0,2.14,1.73,3.88,3.88,3.88l0,0c2.14,0,3.88-1.74,3.88-3.88V131.1c0-2.14-1.73-3.88-3.88-3.88
			l0,0c-2.14,0-3.88,1.74-3.88,3.88V157.35z"/>
		<path class="st6" d="M13.39,133.14c0-4.07,3.85-7.37,8.6-7.37c0,0,2.53,0,4.75,0c0,5.96,0,43.58,0,43.58s0,0-4.75,0
			c-4.75,0-8.6-3.3-8.6-7.37v-28.78h0C13.39,133.19,13.39,133.16,13.39,133.14z"/>
		<path class="st3" d="M169.61,44.77c-3.58,1.33-24.31-22.42-61.48-22.42c-25.39,0-51.77,17.25-54.35,16.25
			c-1.35-0.52,26-18.63,54.32-18.63C143.99,19.98,170.97,44.26,169.61,44.77z"/>
		<path class="st3" d="M63.02,117.49c0.15,1-6.11-4.99-14.24-3.81c-8.69,1.27-11.61,6.25-11.76,5.25c-0.15-1,2.97-5.58,11.18-6.78
			C56.07,111,62.87,116.49,63.02,117.49z"/>
		<path class="st3" d="M22.81,127.33c0.32,0.27-3.2,0.05-5.29,2.53c-2.23,2.65-1.72,4.94-2.04,4.67c-0.32-0.27-0.66-2.49,1.45-5
			C18.94,127.14,22.48,127.06,22.81,127.33z"/>
		<path class="st3" d="M83.84,130.18c0.03,0.24-1.45-1.19-3.38-0.9c-2.06,0.3-2.76,1.48-2.79,1.25c-0.03-0.24,0.71-1.33,2.65-1.61
			C82.19,128.64,83.8,129.95,83.84,130.18z"/>
		<path class="st3" d="M97.59,117.07c0.03,0.24-1.45-1.19-3.38-0.9c-2.06,0.3-2.76,1.48-2.79,1.25c-0.04-0.24,0.71-1.33,2.65-1.61
			C95.94,115.53,97.55,116.83,97.59,117.07z"/>
		<path class="st3" d="M111.21,102.69c0.03,0.24-1.45-1.19-3.38-0.9c-2.06,0.3-2.76,1.48-2.79,1.25c-0.04-0.24,0.71-1.33,2.65-1.61
			C109.56,101.15,111.18,102.45,111.21,102.69z"/>
		<path class="st3" d="M83.84,157.76c0.03-0.24-1.45,1.19-3.38,0.9c-2.06-0.3-2.76-1.48-2.79-1.25c-0.03,0.24,0.71,1.33,2.65,1.61
			C82.19,159.3,83.8,157.99,83.84,157.76z"/>
		<path class="st3" d="M97.59,170.87c0.03-0.24-1.45,1.19-3.38,0.9c-2.06-0.3-2.76-1.48-2.79-1.25c-0.04,0.24,0.71,1.33,2.65,1.61
			C95.94,172.41,97.55,171.11,97.59,170.87z"/>
		<path class="st3" d="M111.21,185.25c0.03-0.24-1.45,1.19-3.38,0.9c-2.06-0.3-2.76-1.48-2.79-1.25c-0.04,0.24,0.71,1.33,2.65,1.61
			C109.56,186.79,111.18,185.49,111.21,185.25z"/>
		<path class="st3" d="M36.96,151.06c0,13.97-0.14,25.29-0.32,25.29c-0.17,0-0.32-11.32-0.32-25.29c0-13.97,0.14-25.29,0.32-25.29
			C36.82,125.77,36.96,137.1,36.96,151.06z"/>
		<path class="st3" d="M105.67,145.1c0,20.3-0.14,36.75-0.31,36.75c-0.17,0-0.32-16.45-0.32-36.75c0-20.29,0.14-36.75,0.32-36.75
			C105.53,108.35,105.67,124.81,105.67,145.1z"/>
		<path class="st3" d="M92.78,144.1c0,12.7-0.14,23-0.32,23c-0.17,0-0.32-10.3-0.32-23c0-12.7,0.14-23,0.32-23
			C92.64,121.1,92.78,131.4,92.78,144.1z"/>
		<path class="st3" d="M78.21,144.1c0,6.08-0.13,11-0.3,11c-0.16,0-0.3-4.92-0.3-11s0.13-11,0.3-11
			C78.08,133.1,78.21,138.03,78.21,144.1z"/>
		<path class="st3" d="M15.54,150.06c0,7.16-0.14,12.96-0.31,12.96c-0.17,0-0.32-5.8-0.32-12.96c0-7.16,0.14-12.96,0.32-12.96
			C15.4,137.1,15.54,142.9,15.54,150.06z"/>
		<path d="M148.49,121.73c0-7.39,7.78-13.38,17.38-13.38c9.6,0,17.38,5.99,17.38,13.38c0,0.04-0.01,0.08-0.01,0.13h0.01v52.25
			c0,7.39-7.78,13.38-17.38,13.38c-9.6,0-17.38-5.99-17.38-13.38v-52.25h0.01C148.5,121.81,148.49,121.77,148.49,121.73z"/>
		<path d="M125.39,171.23c0,2-1.62,3.63-3.63,3.63l0,0c-2,0-3.63-1.62-3.63-3.63v-54c0-2,1.62-3.63,3.63-3.63l0,0
			c2,0,3.63,1.62,3.63,3.63V171.23z"/>
		<path class="st1" d="M139.39,157.35c0,2.14-1.73,3.88-3.88,3.88l0,0c-2.14,0-3.88-1.74-3.88-3.88V131.1
			c0-2.14,1.73-3.88,3.88-3.88l0,0c2.14,0,3.88,1.74,3.88,3.88V157.35z"/>
		<path class="st6" d="M202.88,133.14c0-4.07-3.85-7.37-8.6-7.37c0,0-2.53,0-4.75,0c0,5.96,0,43.58,0,43.58s0,0,4.75,0
			c4.75,0,8.6-3.3,8.6-7.37v-28.78h0C202.87,133.19,202.88,133.16,202.88,133.14z"/>
		<path class="st3" d="M153.25,117.49c-0.15,1,6.11-4.99,14.24-3.81c8.69,1.27,11.61,6.25,11.76,5.25c0.15-1-2.97-5.58-11.18-6.78
			C160.19,111,153.39,116.49,153.25,117.49z"/>
		<path class="st3" d="M193.46,127.33c-0.32,0.27,3.2,0.05,5.29,2.53c2.23,2.65,1.72,4.94,2.04,4.67c0.32-0.27,0.66-2.49-1.45-5
			C197.32,127.14,193.78,127.06,193.46,127.33z"/>
		<path class="st3" d="M132.42,130.18c-0.03,0.24,1.45-1.19,3.38-0.9c2.06,0.3,2.76,1.48,2.79,1.25c0.03-0.24-0.71-1.33-2.65-1.61
			C134.07,128.64,132.46,129.95,132.42,130.18z"/>
		<path class="st3" d="M118.67,117.07c-0.03,0.24,1.45-1.19,3.38-0.9c2.06,0.3,2.76,1.48,2.79,1.25c0.04-0.24-0.71-1.33-2.65-1.61
			C120.32,115.53,118.71,116.83,118.67,117.07z"/>
		<path class="st3" d="M132.42,157.76c-0.03-0.24,1.45,1.19,3.38,0.9c2.06-0.3,2.76-1.48,2.79-1.25c0.03,0.24-0.71,1.33-2.65,1.61
			C134.07,159.3,132.46,157.99,132.42,157.76z"/>
		<path class="st3" d="M118.67,170.87c-0.03-0.24,1.45,1.19,3.38,0.9c2.06-0.3,2.76-1.48,2.79-1.25c0.04,0.24-0.71,1.33-2.65,1.61
			C120.32,172.41,118.71,171.11,118.67,170.87z"/>
		<path class="st3" d="M179.3,151.06c0,13.97,0.14,25.29,0.31,25.29c0.17,0,0.32-11.32,0.32-25.29c0-13.97-0.14-25.29-0.32-25.29
			C179.44,125.77,179.3,137.1,179.3,151.06z"/>
		<path class="st3" d="M123.48,144.1c0,12.7,0.14,23,0.31,23c0.17,0,0.32-10.3,0.32-23c0-12.7-0.14-23-0.32-23
			C123.62,121.1,123.48,131.4,123.48,144.1z"/>
		<path class="st3" d="M138.05,144.1c0,6.08,0.13,11,0.3,11c0.16,0,0.3-4.92,0.3-11s-0.13-11-0.3-11
			C138.18,133.1,138.05,138.03,138.05,144.1z"/>
		<path class="st3" d="M200.72,150.06c0,7.16,0.14,12.96,0.32,12.96c0.17,0,0.32-5.8,0.32-12.96c0-7.16-0.14-12.96-0.32-12.96
			C200.86,137.1,200.72,142.9,200.72,150.06z"/>
		<path class="st3" d="M33.17,103.06c1.01,0.05-6.28-3.21-5.1-13.83c0.97-8.73,2.81-18.32,1.8-18.38
			c-1.01-0.05-2.69,9.68-3.38,17.94C25.45,101.38,32.16,103.01,33.17,103.06z"/>
		<path class="st3" d="M183.34,103.06c-1.01,0.05,6.28-3.21,5.1-13.83c-0.97-8.73-2.81-18.32-1.8-18.38
			c1.01-0.05,2.69,9.68,3.38,17.94C191.06,101.38,184.35,103.01,183.34,103.06z"/>
	</g>
</g>
</svg>
