<?xml version="1.0" encoding="utf-8"?>
<!-- Generator: Adobe Illustrator 24.1.2, SVG Export Plug-In . SVG Version: 6.00 Build 0)  -->
<svg version="1.1" id="Calque_1" xmlns="http://www.w3.org/2000/svg" xmlns:xlink="http://www.w3.org/1999/xlink" x="0px" y="0px"
	 viewBox="0 0 30.69 47.04" style="enable-background:new 0 0 30.69 47.04;" xml:space="preserve">
<style type="text/css">
	.st0{fill:#FFCC03;}
	.st1{fill:#FFFFFF;}
	.st2{fill:#010202;stroke:#FFFFFF;stroke-width:0.25;stroke-miterlimit:10;}
	.st3{fill:#333333;stroke:#FFFFFF;stroke-width:0.25;stroke-miterlimit:10;}
</style>
<path class="st0" d="M28.96,15.88L18.68,2.57c-1.65-2.13-4.87-2.13-6.52,0L1.88,15.88c-2.09,2.71-0.16,6.64,3.26,6.64h4.94V40.7
	c0,2.95,2.39,5.34,5.34,5.34c2.95,0,5.34-2.39,5.34-5.34V22.52h4.94C29.13,22.52,31.06,18.59,28.96,15.88z"/>
<path class="st1" d="M19.8,41.9c0,0.83-2.09,2.28-4.38,2.28s-4.44-1.69-4.44-2.52s2.15,1.73,4.44,1.73S19.8,41.07,19.8,41.9z"/>
<path class="st1" d="M28.98,18.62c0.18,0.19-0.19,1.15-0.93,1.85c-0.74,0.7-1.8,0.97-1.97,0.79c-0.18-0.19,1.07-0.27,1.81-0.96
	C28.62,19.6,28.8,18.44,28.98,18.62z"/>
<path class="st1" d="M4.75,21.4c-0.19,0.18-1.15-0.19-1.85-0.93s-0.97-1.8-0.79-1.97s0.27,1.07,0.96,1.81S4.94,21.23,4.75,21.4z"/>
<path class="st2" d="M24.14,14.69l-6.53-8.17c-1.12-1.4-3.25-1.4-4.37,0L6.7,14.69c-1.47,1.83-0.16,4.55,2.19,4.55h4.04v19.78
	c0,1.4,1.13,2.53,2.53,2.53S18,40.41,18,39.01V19.24h3.96C24.3,19.24,25.61,16.52,24.14,14.69z"/>
<ellipse transform="matrix(0.7811 -0.6244 0.6244 0.7811 -1.1089 16.5629)" class="st1" cx="23.07" cy="9.86" rx="0.27" ry="7.01"/>
<ellipse transform="matrix(0.7811 -0.6244 0.6244 0.7811 -2.569 15.0655)" class="st1" cx="20.2" cy="11.2" rx="0.21" ry="5.88"/>
<ellipse class="st1" cx="20" cy="31.87" rx="0.2" ry="8.75"/>
<path class="st3" d="M21.93,14.62l-4.88-6c-0.84-1.03-2.43-1.03-3.27,0l-4.88,6c-1.09,1.35-0.12,3.34,1.63,3.34h4.02v19.52
	c0,1.03-0.15,1.86,0.89,1.86s0.89-0.83,0.89-1.86V17.96h3.95C22.05,17.96,23.03,15.97,21.93,14.62z"/>
</svg>
