<?xml version="1.0" encoding="utf-8"?>
<!-- Generator: Adobe Illustrator 24.1.2, SVG Export Plug-In . SVG Version: 6.00 Build 0)  -->
<svg version="1.1" xmlns="http://www.w3.org/2000/svg" xmlns:xlink="http://www.w3.org/1999/xlink" x="0px" y="0px"
	 viewBox="0 0 784 564" style="enable-background:new 0 0 784 564;" xml:space="preserve">
<style type="text/css">
	.st0{fill:#FFFFFF;}
	.st1{opacity:0.6;}
	.st2{fill:#FFCD1F;}
	.st3{fill:#1D1D1C;}
	.st4{fill:none;}
	.st5{fill:#FAB711;stroke:#FAB711;stroke-miterlimit:10;}
	.st6{font-family:'ArialMT';}
	.st7{font-size:35px;}
	.st8{font-family:'Arial-BoldMT';}
	.st9{font-size:23px;}
	.st10{fill:none;stroke:#000000;}
	.st11{font-size:28px;}
	.st12{font-size:19px;}
	.st13{font-size:24px;}
	.st14{fill:none;stroke:#000000;stroke-miterlimit:10;}
	.st15{font-size:22px;}
	.st16{font-size:48px;}
	.st17{font-size:31px;}
	.st18{stroke:#FFFFFF;stroke-miterlimit:10;}
	.st19{font-size:55px;}
	.st20{font-size:27px;}
	.st21{font-size:21px;}
	.st22{font-size:29px;}
	.st23{fill:none;stroke:#FAB711;stroke-miterlimit:10;}
	.st24{fill:#FAB711;}
	.st25{display:none;}
	.st26{display:inline;opacity:0.6;fill:#1D1D1C;}
</style>
<g id="Calque_4">
	<rect class="st0" width="781.59" height="564"/>
</g>
<g id="Calque_2">
	<g class="st1">
		<path class="st2" d="M352.22,303.25c-6.75-2.22-10.34,5.67-17.33,5.99c-3.23-0.09-0.8-3.67-3.72-4.36
			c-0.62,1.19-1.92,2.1-2.21,3.18c-0.82-1.04,0.41-3.9-2.49-4.1c-2.56-0.31-5.64,0.86-7.94,1.61c-4.78-2.86-0.2-14.18-9.94-10.19
			c1.28-1.4,4.28-1.4,4.43-3.25c-0.87-2.5-8.92-0.69-5.86-4.96c0.99-0.32,2.08-0.85,1.27-1.89c-0.99-2.79-5.79-0.4-6.11-2.92
			c3.83-1.58,5.57-5.43,10.26-4.99c2.49-1.63-0.06-4.56,0.44-6.04c1.63-3.65,6.78,0.08,9.22-3.01c-0.99-2.79-0.92-6.58,1.21-9.08
			c2.35,3.33,5-0.16,6.75-0.89c3.43,5.44,9.95-1.28,13.22,2.9c0.29-1.08-0.21-2.72,1.46-2.77c1.41,2-2.39,4.55,1.66,5.68
			c1.89,0.04,2.55,2.94,4.96,1.98c1.21-0.23,1-2.94,2.6-1.83c-0.2,3.51,3.48,6.89,5.61,10.13c1.08,2.11-3.34,2.73-0.49,4.59
			c1.46,0.34,3.07-1.17,4.57,0.15c-1.88,6.19-7.71,13.66-5.2,21.36C356.97,302.52,354.67,303.28,352.22,303.25"/>
		<path class="st2" d="M178.65,99.91c0.42,1.83-3.4-0.45-2.86,2.49c0.37,0.61,1.97-0.12,1.87,1.05c-2.49,4.76-0.7,11.23,0.49,16.56
			c-0.88-0.96-3.19-0.52-3.81-1.98c-1.21-2.3,0.44-7.1-4.26-6.39c-4.45-0.42-8.63-3-11.29-6.18c-6.63-0.22-5.35,7.56-12.03,7.77
			c-1.16-0.77-1.55-1.98-1.46-3.16c0.3-3.21,4.4-4.76,3.85-8c-1.56-0.32-3.39-0.14-4.55-1.21c-2.67-3.49-6.45-6.82-8.33-9.84
			c1.87-0.92,4.43-0.2,5.79-1.48c-1.17-1.07,0.66-2.92-1.68-3.39c-0.27-1.47,1.76-2.03,3.01-2.44c-0.14-2.03-7.62-2.29-3.95-4
			c0.29-1.55,2.26,0.3,2.97,0.27c-0.05,0.43,0.18,0.98,0.33,1.35c5.06-0.41,9.7,1.3,14.69,1.02c1.63-3.44-1.87-6.66-1.45-10.43
			c1.14,0.46,1.08,2.55,2.17,3.44l3.36,1.19c2.55-3.22,5.95-0.8,8.71-2.43c-0.04,0.74-0.99,1.88-0.81,2.85
			c-1.39,2.33,2.82,1.88,2.4,3.99c1.72,0.69,3.71-0.8,5.53-0.97c0.57-1.74,2.67-2.12,2.89-3.85c1.22-1.33,1.46,1.19,2.51,1.16
			c-2.29,2.72-6.08,5-6.86,8.47c2.42,0.66-1.4,2.02,1.15,2.43l2.02-0.56c-0.33,0.63-0.31,1.24,0.55,1.58
			c1.33-0.23,2.87-0.52,4.18-1.05c-0.19,0.68-1.06,1.7-0.33,2.6l2.76,0.34c-2.66,0.45-4.72,1.75-5.92,3.7
			c0.53,0.97,2.33,0.17,2.42,0.66c-0.56,0.08-1.97,0.13-2.3,0.75c1.91,1.97,5.5,4.01,8.32,3.93c-0.99-0.09-0.04,0.74-0.24,1.12
			C185.24,100.87,181.82,99.81,178.65,99.91"/>
		<path class="st2" d="M170,273.65c-3.3,1.07-5.17,6.61-8.54,5.87c-0.07-1.83-1.76-2.5-3.69-2.08c-1.63,1.15-1.12,3.44-3.47,4
			c-6.02-4.8-7.12-0.75-14.18-3.56c-2.73,1.3-2.18,4.81-2.5,7.38c-1.82-0.43,0.22-1.71-0.37-2.54c-4.22,6.09-3.38,13.6-6.88,20.28
			c0.08-1.46-3.26-1.6-3.39-1.35l2.66-14.19c-10.63-9.03-23.22-11.08-37.98-11.59c-4.19-0.48-4.33,6.95-7.96,2.8
			c-0.41-7.04,11.77-8.75,10-15.15c-4.97-6.17-8.48-14.45-11.46-19.83c-0.18-4.86,9.18,0.08,6.72-6.29
			c-1.41-0.56-3.49-0.5-4.39-2.05c2.01-1.89,7.4,0.87,7.94-3.41c-0.64-2.04-4.78-1.31-3.22-4.27c2.43-2.03,5.1,2.63,7.48-0.6
			c6.29-2.88-2.27-4.79-0.29-7.9c1.93-0.42,4.34,0.84,5.78,2.02c2.19-0.93,6.72-2.4,8.72-4.9c-1.44-1.16-2.64-3.45-2.83-5.02
			c4.05,0.73,8.23,4.48,13.35,3.84c4.25-1.59-2.24-4.19,2.16-5.42c2,1.4,2.42,5.16,5.5,5.79l5.44-3.21
			c11.99,4.49,18.45,13.65,31.22,16.66c2.88,6.24,8.62,10.92,13.92,15.14c-2.58,1.66-4.9,2.83-4.79,5.87
			c1.31,1.42,2.49,3.08,3.78,4.51c-0.49,1.59-2.85,1.54-2.79,3.37l2.92,3.55c-2.71,1.92-6.29,2.88-7.15,5.83
			c-1.58,2.35,1.53,3.6,2.71,5.26C173.34,273.79,171.39,273.61,170,273.65"/>
		<path class="st2" d="M216.6,337.54c-0.01,1.64-2.2,0.61-2.5,1.83c-2.46-0.83-4.09,1.95-6.45-0.04c-3.49-0.5-0.83-3.61-4.19-4.36
			c1.01-2.58-0.39-6.72,4.33-8.26c1.94-1.76,3.88,1.7,4.88-1.19c0.31,0.72,0.62,1.74,1.75,2.19c0.71,0.28,1.85-0.6,2.36,0.05
			c0.33,1.32,0.19,3.21,2.27,3.14c-1.35,0.95-0.61,2.14,0.46,3.02C216.12,333.92,219.92,337.38,216.6,337.54"/>
		<path class="st2" d="M561.43,260.45c0.11,2.83,2.19,6.91-2.3,7.42c-3.42,0.48-5.92-2.82-5.16-5.29
			C555.38,259.88,559.42,258.25,561.43,260.45"/>
		<path class="st2" d="M697.36,310.19c6.75,2.22,10.34-5.67,17.33-5.99c3.23,0.09,0.8,3.67,3.72,4.36c0.62-1.19,1.92-2.1,2.21-3.18
			c0.82,1.04-0.41,3.9,2.49,4.1c2.56,0.31,5.64-0.86,7.94-1.61c4.78,2.87,0.2,14.18,9.94,10.19c-1.28,1.4-4.28,1.4-4.43,3.25
			c0.87,2.5,8.92,0.69,5.86,4.97c-0.99,0.32-2.08,0.85-1.26,1.89c0.99,2.79,5.79,0.41,6.11,2.92c-3.83,1.58-5.57,5.43-10.26,5
			c-2.49,1.63,0.06,4.56-0.44,6.04c-1.63,3.65-6.78-0.08-9.22,3.01c0.99,2.79,0.92,6.58-1.21,9.08c-2.35-3.33-5,0.16-6.75,0.89
			c-3.43-5.44-9.95,1.28-13.22-2.9c-0.29,1.08,0.21,2.72-1.45,2.77c-1.41-2,2.39-4.55-1.66-5.68c-1.89-0.04-2.55-2.94-4.96-1.98
			c-1.21,0.23-1,2.95-2.6,1.83c0.2-3.5-3.48-6.89-5.61-10.13c-1.08-2.11,3.34-2.73,0.49-4.59c-1.46-0.34-3.07,1.17-4.57-0.15
			c1.88-6.19,7.71-13.66,5.2-21.36C692.61,310.93,694.91,310.17,697.36,310.19"/>
		<path class="st2" d="M449.45,409.25c-0.42-1.84,3.4,0.45,2.86-2.49c-0.37-0.61-1.97,0.12-1.87-1.05
			c2.49-4.76,0.7-11.23-0.49-16.56c0.88,0.96,3.19,0.52,3.81,1.98c1.21,2.3-0.44,7.1,4.26,6.39c4.45,0.42,8.63,3,11.29,6.18
			c6.63,0.22,5.35-7.56,12.03-7.77c1.16,0.77,1.55,1.98,1.46,3.16c-0.3,3.21-4.4,4.76-3.85,8c1.56,0.32,3.39,0.14,4.55,1.21
			c2.67,3.49,6.45,6.82,8.33,9.84c-1.87,0.92-4.43,0.2-5.79,1.48c1.17,1.07-0.66,2.92,1.68,3.39c0.27,1.47-1.76,2.03-3.01,2.44
			c0.14,2.03,7.62,2.29,3.95,4c-0.29,1.55-2.26-0.3-2.97-0.27c0.05-0.43-0.18-0.98-0.33-1.35c-5.06,0.41-9.7-1.3-14.69-1.02
			c-1.63,3.44,1.87,6.66,1.45,10.43c-1.14-0.46-1.08-2.55-2.17-3.44l-3.36-1.19c-2.55,3.22-5.95,0.8-8.71,2.43
			c0.04-0.74,0.99-1.88,0.81-2.85c1.39-2.33-2.82-1.88-2.4-3.99c-1.72-0.69-3.71,0.8-5.53,0.97c-0.57,1.74-2.67,2.12-2.89,3.85
			c-1.22,1.33-1.46-1.19-2.51-1.16c2.29-2.72,6.08-5,6.86-8.47c-2.42-0.66,1.4-2.02-1.15-2.43l-2.02,0.56
			c0.33-0.63,0.31-1.24-0.55-1.58c-1.33,0.23-2.87,0.52-4.18,1.05c0.19-0.68,1.06-1.7,0.33-2.6l-2.76-0.34
			c2.66-0.45,4.72-1.75,5.92-3.7c-0.53-0.97-2.33-0.17-2.42-0.66c0.56-0.08,1.97-0.13,2.3-0.75c-1.91-1.97-5.5-4.01-8.32-3.93
			c0.99,0.09,0.04-0.74,0.24-1.12C442.87,408.29,446.29,409.35,449.45,409.25"/>
		<path class="st2" d="M199.76,464.71c3.3-1.07,5.17-6.61,8.54-5.87c0.07,1.82,1.76,2.5,3.69,2.08c1.63-1.15,1.12-3.44,3.47-4
			c6.02,4.8,7.12,0.74,14.18,3.56c2.73-1.3,2.18-4.81,2.5-7.37c1.82,0.43-0.22,1.71,0.37,2.54c4.22-6.09,3.38-13.6,6.88-20.29
			c-0.08,1.46,3.26,1.6,3.39,1.35l-2.66,14.19c10.63,9.03,23.22,11.08,37.98,11.59c4.19,0.48,4.33-6.94,7.96-2.8
			c0.41,7.04-11.77,8.76-10,15.15c4.97,6.17,8.48,14.45,11.46,19.83c0.18,4.86-9.18-0.08-6.72,6.29c1.41,0.56,3.49,0.5,4.39,2.05
			c-2.01,1.89-7.4-0.87-7.94,3.41c0.64,2.04,4.78,1.31,3.22,4.27c-2.43,2.03-5.1-2.63-7.48,0.6c-6.29,2.88,2.27,4.8,0.3,7.9
			c-1.93,0.42-4.34-0.84-5.78-2.02c-2.19,0.93-6.72,2.4-8.72,4.9c1.44,1.16,2.64,3.45,2.83,5.02c-4.05-0.73-8.23-4.48-13.35-3.84
			c-4.25,1.59,2.24,4.19-2.16,5.42c-2-1.4-2.42-5.16-5.5-5.79l-5.44,3.21c-11.99-4.49-18.45-13.65-31.22-16.66
			c-2.88-6.24-8.62-10.92-13.92-15.14c2.58-1.66,4.9-2.83,4.79-5.87c-1.31-1.42-2.49-3.08-3.78-4.51c0.49-1.59,2.85-1.54,2.79-3.37
			l-2.92-3.55c2.71-1.91,6.29-2.88,7.15-5.83c1.58-2.36-1.53-3.6-2.71-5.26C196.42,464.58,198.37,464.76,199.76,464.71"/>
		<path class="st2" d="M64.87,35.32c0.01-1.64,2.2-0.61,2.5-1.83c2.46,0.83,4.09-1.95,6.45,0.04c3.49,0.5,0.83,3.61,4.19,4.35
			c-1.01,2.58,0.39,6.72-4.33,8.26c-1.94,1.76-3.88-1.7-4.88,1.18c-0.31-0.72-0.62-1.74-1.75-2.19c-0.71-0.28-1.85,0.6-2.36-0.05
			c-0.33-1.32-0.19-3.21-2.27-3.14c1.35-0.95,0.61-2.14-0.46-3.02C65.35,38.94,61.55,35.48,64.87,35.32"/>
		<path class="st3" d="M212.61,62.21c1.4-3.51,1.05-7.25,0.61-10.92c-0.7-5.77-1.85-11.69-4.85-16.8c-0.24-0.4-0.73-0.45-1.1-0.27
			c-1.44-0.26-2.44,0.14-4.02,0.49c-2.21,0.48-4.45,0.83-6.68,1.25c-2,0.38-4.07,0.65-6.02,1.25l-0.4,0.26
			c-0.33,0.05-0.65,0.27-0.57,0.64c1.35,6.49,2.51,13.1,2.73,19.76c-0.78-1.37-1.84-2.54-3.16-3.14c-4.93-2.24-8.46,3.21-9.17,6.82
			c-0.76,3.74,0.12,9.38,4.81,10.54c5.58,1.39,9.26-3.99,9.15-8.33c2.04-8.47,0.7-16.77-2.53-24.68c1.82,0.03,3.67,0.04,5.5-0.13
			c2.68-0.23,7.55-0.27,10.2-1.88c0.81,7.03,3.23,14.18,3.28,21.28c-1.05-1.87-2.79-3.43-5.17-3.61c-5.07-0.39-5.77,5.61-5.19,8.61
			c0.57,2.98,2.98,7.42,7.31,6.12C210.5,68.51,212.71,65.12,212.61,62.21"/>
		<path class="st3" d="M511.46,417.51l0.11-0.1c0.33-0.61,0.66-1.29,0.92-1.96c7.77-10.8,9.93-26.65,12.62-39.85
			c0.17-0.8-0.79-1.44-1.36-1.17l-0.07-0.02c-4.61-2.35-9.92-3.23-14.82-4.33c-6-1.33-12.18-2.77-18.24-3.25
			c-0.49-0.77-1.56-0.75-2.11-0.15c-1.26,0.04-1.54,1.75-0.36,2.36c-0.12,3.92-0.15,7.79-0.29,11.68l-0.01,0.7
			c-0.13,3.42-0.34,6.83-0.77,10.23c-0.41,3.07-1.09,5.95-1.94,8.76c-0.24-0.58-0.45-1.17-0.78-1.72
			c-4.74-8.01-13.72-4.75-16.96,0.98c-2.74,4.82-2.23,12.34,0.94,17.64c3.02,5.05,9.04,5.44,12.28,2.09
			c0.58,0.06,1.2-0.14,1.64-0.75c6.44-8.78,9.74-21.41,10.08-33.91c7.44,4.51,16.26,7.39,24.07,10.65
			c-1.07,3.22-2.25,6.36-3.49,9.49c-0.67-1.56-1.75-2.98-3.39-4.14c-5.82-3.98-11.29,1.6-12.59,6.42
			c-1.16,4.24,0.59,9.87,4.81,12.49C504.97,421.68,509.61,420.43,511.46,417.51 M492.34,381.37c-0.07-3.88-0.39-7.69-1.02-11.34
			c5.06,1.45,10.21,2.52,15.28,3.87c5.06,1.39,10.22,3.52,15.34,4.42c-1.53,3.95-2.77,8-3.99,12.06
			C510.35,385.67,500.81,383.77,492.34,381.37"/>
		<path class="st3" d="M521.94,52.84c0.77-0.13,0.67-1.08-0.04-1.14c-4.63-0.37-9.5-0.53-14.16,0.07c-0.8,0.1-1.21,0.56-1.32,1.1
			l-0.03,0.07c-0.44,4.19-0.86,8.14-2.06,12.27c-0.06,0.21-0.15,0.41-0.22,0.61c-0.37-0.51-0.86-0.92-1.54-1.17
			c-1.63-0.61-3.41,0.66-4.45,1.7c-2.36,2.35-3.68,6.05-2.04,8.86c1.33,2.29,3.81,1.91,5.66,0.56l0.12,0
			c0.14,0.02,0.32-0.02,0.48-0.16c0.74-0.56,1.28-1.34,1.68-2.19c3.68-5.21,5.15-13.06,3.96-18.79c0.11,0,0.19,0.02,0.28,0.01
			C512.83,53.98,517.43,53.62,521.94,52.84"/>
		<path class="st3" d="M574.85,233.5c1.27-0.49,0.45-2.22-0.85-2.09c-8.46,0.78-17.2,2.04-25.06,4.63
			c-1.34,0.43-1.75,1.42-1.59,2.44l-0.01,0.13c2.12,7.88,4.1,15.32,4.85,23.31c0.04,0.4,0.01,0.81,0.04,1.2
			c-1-0.82-2.16-1.41-3.54-1.68c-3.31-0.61-5.57,2.32-6.71,4.56c-2.55,5.09-2.33,12.35,2.52,17.02c3.96,3.81,8.07,2.3,10.42-0.78
			l0.2-0.05c0.27-0.02,0.54-0.13,0.74-0.45c0.92-1.28,1.35-2.89,1.47-4.58c2.93-10.79,0.09-25.77-5.98-35.96l0.51-0.07
			C559.47,238.48,567.38,236.35,574.85,233.5"/>
		<path class="st3" d="M360.2,406.25c1.72-6.76-0.46-15.04-4.02-22.49c3.2-0.51,6.78-1.46,9.04-3.24c0.56-0.44-0.04-1.23-0.73-1.03
			c-3.14,0.93-6.36,1.31-9.65,1.6c-1.19-2.21-2.48-4.33-3.8-6.26c0.27-0.08,0.55-0.18,0.89-0.28c1.54-0.47,3.12-0.87,4.68-1.33
			c2.9-0.84,5.66-1.81,8.23-3.22c0.73-0.39-0.11-1.32-0.82-1.14c-2.98,0.77-6.09,1.31-9.15,1.88c-1.69,0.34-4.33,0.46-5.81,1.45
			c-0.52-0.26-1.29,0.09-1.09,0.66l0.17,0.45c-0.11,0.4,0.09,0.81,0.41,1.1c1.65,4.28,3.72,8.47,5.48,12.7
			c1.38,3.31,2.26,6.49,2.88,9.7c-3.16-2.52-6.61,0.1-7.17,3.05c-0.54,2.88,1.37,5.9,3.82,7.9c2.16,1.77,5.68,1.33,6.32-1.02
			C360.01,406.63,360.14,406.48,360.2,406.25"/>
		<path class="st3" d="M682.07,64.66c2.96-8.16,1.37-17.92-2.03-26.64c3.96-0.77,8.45-2.08,11.45-4.31
			c0.75-0.56,0.11-1.47-0.76-1.21c-3.96,1.27-7.94,1.89-12,2.39c-1.17-2.58-2.48-5.04-3.84-7.3c0.35-0.11,0.71-0.24,1.12-0.37
			c1.95-0.64,3.93-1.19,5.88-1.81c3.65-1.14,7.14-2.44,10.46-4.25c0.95-0.51,0.03-1.58-0.85-1.32c-3.74,1.07-7.6,1.85-11.42,2.69
			c-2.12,0.48-5.34,0.75-7.29,2.02c-0.6-0.29-1.59,0.16-1.41,0.84c0.04,0.18,0.11,0.35,0.15,0.53c-0.17,0.48,0.01,0.95,0.38,1.28
			c1.46,5.03,3.44,9.93,5.07,14.89c1.26,3.87,1.93,7.63,2.27,11.43c-3.53-2.84-8.09,0.45-9.15,3.99c-1.03,3.47,0.92,6.98,3.65,9.24
			c2.4,2.01,6.76,1.31,7.85-1.52C681.79,65.12,681.96,64.93,682.07,64.66"/>
		<path class="st3" d="M653.72,320.82c2.07-6.58,0.44-14.3-2.6-21.14c3.14-0.72,6.67-1.9,8.99-3.76c0.58-0.46,0.03-1.17-0.65-0.94
			c-3.11,1.12-6.27,1.73-9.5,2.25c-1.03-2.02-2.16-3.94-3.33-5.7c0.27-0.1,0.56-0.21,0.88-0.32c1.54-0.57,3.1-1.06,4.63-1.61
			c2.87-1.01,5.61-2.14,8.21-3.67c0.73-0.43-0.03-1.26-0.73-1.03c-2.95,0.96-6.01,1.69-9.02,2.47c-1.67,0.44-4.24,0.75-5.75,1.81
			c-0.49-0.21-1.27,0.18-1.1,0.71c0.04,0.14,0.1,0.27,0.13,0.41c-0.12,0.39,0.04,0.76,0.35,1.01c1.35,3.96,3.11,7.8,4.59,11.7
			c1.15,3.04,1.82,6.01,2.23,9.03c-2.93-2.16-6.45,0.59-7.16,3.44c-0.7,2.79,0.99,5.52,3.25,7.25c2,1.53,5.45,0.85,6.22-1.44
			C653.52,321.19,653.65,321.04,653.72,320.82"/>
		<g>
			<path class="st3" d="M156.06,100.98c-1.24-3.15-4.54-5.45-8.43-5.83c-0.37-0.08-0.74-0.15-1.12-0.2
				c-2.92-0.41-5.5,0.03-7.16,0.47c-6.42,1.72-12.56,7.99-14.66,14.72c-2.86,0.3-5.8,0.63-8.67,1.03
				c-10.3,1.47-24.45,5.02-28.36,18.75c-1.65,5.79-0.33,11.99,3.71,17.46c4.78,6.45,12.88,11.2,21.16,12.37
				c1.39,0.2,2.79,0.29,4.15,0.28c1.54-0.01,3.11-0.11,4.7-0.31c0.01,0.64,0.03,1.26,0.05,1.87l0,0.25
				c-0.23,4.61-0.72,8.64-1.52,12.33c-0.15,0.69-0.33,1.36-0.56,2.04c-0.85,1.64-1.75,2.98-2.81,4.19
				c-3.43,3.94-8.26,5.65-14.37,5.11c-3.25-0.28-6.5-1.5-9.12-3.28c4.93,0.12,9.28-2.66,11.1-7.26c1.81-4.56,0.69-9.22-3.33-13.82
				c-1.81-2.07-4.28-3.38-7.15-3.78c-3.33-0.48-6.63,0.34-8.8,1.1c-4.43,1.56-7.58,4.7-8.87,8.86c-1.45,4.68-0.44,10.4,2.69,15.28
				c3.16,4.93,7.88,8.84,13.65,11.33c2.34,1.19,4.67,1.96,6.96,2.29c0.38,0.05,0.75,0.09,1.13,0.13c2.09,0.37,4.22,0.57,6.3,0.6
				c10.36,0.14,19.13-5.46,23.49-14.98c1.45-3.18,2.39-6.84,2.85-11.19c1.24-4.84,1.74-9.92,2.17-14.89
				c2.15-0.82,4.12-1.79,5.99-2.95c2.01-1.25,8.75-5.8,11.67-12.01c0.6-0.95,1.13-2.03,1.08-3.47c-0.05-1.72-1.45-3.2-3.25-3.46
				c-0.27-0.04-0.55-0.05-0.79-0.03c-0.15,0.01-0.29,0.03-0.41,0.05c-0.6,0.03-1.17,0.19-1.65,0.45l-0.04,0.02
				c-0.69,0.16-1.29,0.53-1.7,1.07c-0.7,0.58-1.28,1.24-1.8,1.84c-0.24,0.28-0.48,0.55-0.71,0.79l-1.76,1.8
				c-1.53,1.05-3.3,2.01-5.44,2.93c0.11-1.29,0.21-2.58,0.31-3.84c0.23-2.91,0.47-5.92,0.77-8.85c0.16-1.56,0.37-3.15,0.58-4.74
				c0.25-1.87,0.5-3.79,0.68-5.73c1.12-0.36,2.16-0.73,3.05-1.05c0.45-0.16,0.87-0.31,1.26-0.45c4.84-1.67,9.76-3.69,12.15-8.36
				c0.28-0.39,0.5-0.77,0.64-1.08c0.26-0.45,0.44-0.94,0.56-1.44C157.04,105.35,156.91,103.13,156.06,100.98 M142.33,106.42
				c0.96-1.39,2.39-2.57,4.42-2.29c0.35,0.05,0.72,0.14,1.1,0.27c0.09,0.03,0.16,0.06,0.21,0.08c-0.05,0.14-0.22,0.39-0.62,0.56
				c-1.38,0.57-3.08,0.94-4.73,1.29L142.33,106.42z M106.39,124.94c0.8-0.42,1.6-0.86,2.38-1.32c3.16-0.93,6.57-1.43,9.54-1.84
				c1.58-0.22,3.2-0.39,4.88-0.55c-0.03,0.18-0.05,0.37-0.08,0.55c-1.1,7.87-1.64,16.08-1.67,25.03c-3.65,0.34-7.06,0.22-10.09-0.42
				c-7.65-1.59-12.26-7.08-11.75-13.98C99.88,128.63,102.36,127.11,106.39,124.94"/>
			<path class="st0" d="M99.39,175.16c-3.4,3.4-7.9,3.48-12.61,0.85c-6.27-3.5-5.75-10.78-1.05-14.18c0.13-0.1,0.11-0.38-0.11-0.29
				c-5.68,2.42-6.56,9.75-1.88,14.37c4.57,4.53,14.07,5.79,16.81-0.01C100.91,175.11,100,174.54,99.39,175.16"/>
			<path class="st0" d="M95.75,193.03c-7.23-2.84-14.82-8.43-17.34-15.62c-0.09-0.26-0.46-0.07-0.4,0.14
				c1.92,7.13,9.62,14.6,17.39,16.26C95.79,193.89,96.24,193.21,95.75,193.03"/>
			<path class="st0" d="M116.08,155.67c-9.71-1.68-17.58-4.21-22.88-12.96c-6.13-10.14,1.15-20.78,9.14-25.94
				c0.09-0.05,0.03-0.2-0.08-0.13c-7.91,4.71-13.79,12.97-12.17,22.66c2,11.93,15.21,16.64,25.84,16.85
				C116.17,156.15,116.43,155.74,116.08,155.67"/>
			<path class="st0" d="M146.21,142.57c-4.13,5.67-10.04,9.02-17.06,11.23c-0.21,0.07-0.19,0.41,0.08,0.34
				c7.01-1.9,14.18-5.19,17.84-11.19C147.45,142.34,146.56,142.08,146.21,142.57"/>
			<path class="st0" d="M144.18,95.96c-20.88,0.33-18.02,26.58-17.71,40.69c0.02,0.71,0.99,0.4,1.03-0.11
				c1.37-14.9-3.28-37.06,16.66-40.16C144.39,96.34,144.51,95.96,144.18,95.96"/>
			<path class="st0" d="M123.2,168.83c-1.53,6.87-3.21,15.06-11.28,17.03c-0.76,0.18-0.89,1.41,0.12,1.42
				c9.18,0.09,10.85-12.04,11.74-18.45C123.83,168.48,123.26,168.57,123.2,168.83"/>
		</g>
		<path class="st2" d="M614.83,90.77c0.01-1.64,2.2-0.61,2.5-1.83c2.46,0.83,4.09-1.95,6.45,0.04c3.49,0.5,0.83,3.61,4.19,4.35
			c-1.01,2.58,0.39,6.72-4.33,8.26c-1.94,1.76-3.88-1.7-4.88,1.18c-0.31-0.72-0.62-1.74-1.75-2.19c-0.71-0.28-1.85,0.6-2.36-0.05
			c-0.33-1.32-0.19-3.21-2.27-3.14c1.35-0.95,0.61-2.14-0.46-3.02C615.31,94.39,611.5,90.93,614.83,90.77"/>
		<path class="st2" d="M661.82,221.67c-6.75-2.22-10.34,5.67-17.33,5.99c-3.23-0.09-0.8-3.67-3.72-4.36
			c-0.62,1.19-1.92,2.1-2.21,3.18c-0.82-1.04,0.41-3.9-2.49-4.1c-2.56-0.31-5.64,0.86-7.94,1.61c-4.78-2.86-0.2-14.18-9.94-10.19
			c1.28-1.4,4.28-1.4,4.43-3.25c-0.87-2.5-8.92-0.69-5.86-4.96c0.99-0.32,2.08-0.85,1.27-1.89c-0.99-2.79-5.79-0.4-6.11-2.92
			c3.83-1.58,5.57-5.43,10.26-4.99c2.49-1.63-0.06-4.56,0.44-6.04c1.63-3.65,6.78,0.08,9.22-3.01c-0.99-2.79-0.92-6.58,1.21-9.08
			c2.35,3.33,5-0.16,6.75-0.89c3.43,5.44,9.95-1.28,13.22,2.9c0.29-1.08-0.21-2.72,1.46-2.77c1.41,2-2.39,4.55,1.66,5.68
			c1.89,0.04,2.55,2.94,4.96,1.98c1.21-0.23,1-2.94,2.6-1.83c-0.2,3.51,3.48,6.89,5.61,10.13c1.08,2.11-3.34,2.73-0.49,4.59
			c1.46,0.34,3.07-1.17,4.57,0.15c-1.88,6.19-7.71,13.66-5.2,21.36C666.58,220.94,664.27,221.7,661.82,221.67"/>
		<path class="st2" d="M592.88,348.42c0.42,1.83-3.4-0.45-2.86,2.49c0.37,0.61,1.97-0.12,1.87,1.05c-2.49,4.76-0.7,11.23,0.49,16.56
			c-0.88-0.96-3.19-0.52-3.81-1.98c-1.21-2.3,0.44-7.1-4.26-6.39c-4.45-0.42-8.63-3-11.29-6.18c-6.63-0.22-5.35,7.56-12.03,7.77
			c-1.16-0.77-1.55-1.98-1.46-3.16c0.3-3.21,4.4-4.76,3.85-8c-1.56-0.32-3.39-0.14-4.55-1.21c-2.66-3.49-6.45-6.82-8.33-9.84
			c1.87-0.92,4.43-0.2,5.79-1.48c-1.17-1.07,0.66-2.92-1.68-3.39c-0.27-1.47,1.76-2.03,3.01-2.44c-0.14-2.03-7.62-2.29-3.95-4
			c0.29-1.55,2.26,0.3,2.97,0.27c-0.05,0.43,0.18,0.98,0.33,1.35c5.06-0.41,9.7,1.3,14.69,1.02c1.63-3.44-1.87-6.66-1.45-10.43
			c1.14,0.46,1.08,2.55,2.17,3.44l3.36,1.19c2.55-3.22,5.95-0.8,8.71-2.43c-0.04,0.74-0.99,1.88-0.81,2.85
			c-1.39,2.33,2.82,1.88,2.4,3.99c1.72,0.69,3.71-0.8,5.53-0.97c0.57-1.74,2.67-2.12,2.89-3.85c1.22-1.33,1.46,1.19,2.51,1.16
			c-2.29,2.72-6.08,5-6.86,8.47c2.42,0.66-1.4,2.02,1.15,2.43l2.02-0.56c-0.33,0.63-0.31,1.24,0.55,1.58
			c1.33-0.23,2.87-0.52,4.18-1.05c-0.19,0.68-1.06,1.7-0.33,2.6l2.76,0.34c-2.66,0.45-4.72,1.75-5.92,3.7
			c0.53,0.97,2.33,0.17,2.42,0.66c-0.56,0.08-1.97,0.13-2.3,0.75c1.91,1.97,5.5,4.01,8.32,3.93c-0.99-0.09-0.04,0.74-0.24,1.12
			C599.46,349.38,596.04,348.32,592.88,348.42"/>
		<g>
			<path class="st3" d="M724.69,393.06c-0.41-3.36-3.04-6.41-6.7-7.76c-0.34-0.17-0.68-0.33-1.04-0.48
				c-2.72-1.13-5.34-1.35-7.05-1.34c-6.65,0.06-14.16,4.59-17.87,10.59c-2.85-0.42-5.77-0.84-8.65-1.17
				c-10.34-1.15-24.92-1.26-32.15,11.05c-3.05,5.2-3.32,11.53-0.77,17.83c3.01,7.44,9.67,14.07,17.39,17.27
				c1.3,0.54,2.62,0.98,3.94,1.31c1.5,0.38,3.04,0.67,4.62,0.88c-0.15,0.62-0.29,1.23-0.42,1.83l-0.06,0.25
				c-1.37,4.4-2.86,8.18-4.56,11.56c-0.32,0.63-0.66,1.23-1.05,1.83c-1.24,1.38-2.44,2.44-3.77,3.35c-4.3,2.96-9.42,3.4-15.19,1.35
				c-3.08-1.09-5.92-3.07-8.01-5.46c4.74,1.35,9.65-0.26,12.56-4.25c2.89-3.96,2.97-8.75,0.23-14.22c-1.23-2.45-3.3-4.34-5.98-5.45
				c-3.11-1.29-6.5-1.33-8.8-1.13c-4.68,0.4-8.52,2.66-10.8,6.36c-2.57,4.17-3.02,9.95-1.21,15.47c1.83,5.56,5.41,10.53,10.38,14.38
				c1.96,1.74,4.03,3.07,6.16,3.96c0.35,0.15,0.71,0.28,1.06,0.4c1.93,0.88,3.95,1.61,5.94,2.16c9.99,2.73,19.89-0.5,26.49-8.63
				c2.2-2.71,4.02-6.03,5.56-10.13c2.41-4.38,4.17-9.17,5.83-13.88c2.29-0.25,4.44-0.7,6.53-1.36c2.26-0.71,9.92-3.42,14.3-8.71
				c0.82-0.77,1.6-1.68,1.92-3.09c0.38-1.67-0.6-3.46-2.28-4.16c-0.26-0.11-0.52-0.18-0.75-0.23c-0.14-0.02-0.29-0.04-0.41-0.05
				c-0.59-0.12-1.18-0.11-1.71,0.02l-0.05,0.01c-0.71-0.02-1.38,0.2-1.91,0.61c-0.83,0.39-1.55,0.88-2.2,1.33
				c-0.3,0.21-0.6,0.41-0.89,0.59l-2.16,1.31c-1.74,0.63-3.7,1.12-6,1.48c0.43-1.22,0.85-2.44,1.26-3.64
				c0.95-2.76,1.94-5.61,2.96-8.38c0.55-1.47,1.14-2.95,1.75-4.45c0.71-1.75,1.43-3.55,2.1-5.38c1.17-0.07,2.27-0.17,3.22-0.25
				c0.48-0.05,0.92-0.09,1.33-0.12c5.1-0.4,10.37-1.13,13.86-5.05c0.37-0.31,0.67-0.62,0.89-0.89c0.36-0.38,0.67-0.8,0.91-1.26
				C724.54,397.54,724.97,395.37,724.69,393.06 M710.04,394.9c1.27-1.1,2.96-1.89,4.86-1.11c0.32,0.14,0.66,0.32,0.99,0.54
				c0.08,0.05,0.14,0.1,0.18,0.13c-0.08,0.13-0.31,0.32-0.74,0.38c-1.48,0.21-3.22,0.14-4.9,0.07L710.04,394.9z M670.6,403.84
				c0.88-0.21,1.76-0.43,2.63-0.68c3.29-0.11,6.72,0.26,9.7,0.6c1.58,0.18,3.19,0.42,4.86,0.68c-0.07,0.17-0.14,0.34-0.21,0.52
				c-3.03,7.34-5.62,15.16-7.87,23.81c-3.62-0.59-6.89-1.55-9.67-2.93c-7-3.45-10.1-9.92-7.88-16.47
				C663.37,405.78,666.16,404.93,670.6,403.84"/>
			<path class="st0" d="M651.26,450.71c-4.14,2.44-8.52,1.4-12.43-2.33c-5.2-4.96-2.87-11.88,2.54-13.99
				c0.15-0.06,0.2-0.34-0.04-0.31c-6.11,0.93-8.79,7.79-5.42,13.44c3.29,5.53,12.18,9.13,16.28,4.19
				C652.75,451.04,652.01,450.27,651.26,450.71"/>
			<path class="st0" d="M643.27,467.1c-6.29-4.56-12.24-11.87-12.89-19.46c-0.02-0.27-0.43-0.18-0.43,0.03
				c0.08,7.38,5.66,16.54,12.77,20.09C643.09,467.94,643.69,467.39,643.27,467.1"/>
			<path class="st0" d="M672.29,436.01c-8.98-4.05-15.96-8.47-18.91-18.27c-3.4-11.35,6.31-19.84,15.34-22.83
				c0.1-0.03,0.08-0.18-0.05-0.15c-8.83,2.58-16.6,9.11-17.45,18.89c-1.05,12.05,10.57,19.92,20.8,22.78
				C672.26,436.5,672.62,436.17,672.29,436.01"/>
			<path class="st0" d="M704.75,430.87c-5.42,4.46-11.98,6.22-19.33,6.61c-0.22,0.01-0.29,0.35-0.01,0.35
				c7.26-0.08,15.03-1.47,20.08-6.37C706,430.95,705.21,430.48,704.75,430.87"/>
			<path class="st0" d="M714.44,385.24c-20.3-4.9-24.09,21.23-27.33,34.96c-0.16,0.69,0.85,0.64,1.03,0.15
				c5.05-14.08,6.1-36.7,26.18-34.72C714.55,385.66,714.76,385.32,714.44,385.24"/>
			<path class="st0" d="M675.9,450.54c-3.2,6.26-6.88,13.78-15.18,13.67c-0.78-0.01-1.21,1.15-0.24,1.41
				c8.87,2.38,13.52-8.95,15.98-14.92C676.59,450.36,676.02,450.3,675.9,450.54"/>
		</g>
		<path class="st3" d="M661.74,177.46c1.4-3.46,1.04-7.16,0.61-10.77c-0.69-5.69-1.82-11.54-4.79-16.57
			c-0.24-0.39-0.72-0.45-1.09-0.27c-1.41-0.26-2.39,0.14-3.97,0.49c-2.17,0.47-4.39,0.82-6.59,1.23c-1.98,0.37-4.01,0.64-5.93,1.24
			c-0.17,0.06-0.29,0.14-0.39,0.26c-0.33,0.04-0.64,0.26-0.56,0.63c1.33,6.4,2.47,12.92,2.69,19.5c-0.76-1.35-1.81-2.5-3.11-3.1
			c-4.86-2.21-8.34,3.17-9.04,6.73c-0.76,3.69,0.11,9.25,4.73,10.4c5.51,1.38,9.14-3.94,9.03-8.22c2.02-8.36,0.7-16.56-2.49-24.35
			c1.8,0.02,3.63,0.03,5.43-0.13c2.64-0.24,7.46-0.28,10.05-1.86c0.82,6.95,3.19,13.99,3.24,21c-1.03-1.85-2.75-3.39-5.09-3.57
			c-5-0.38-5.7,5.54-5.13,8.49c0.57,2.94,2.95,7.32,7.21,6.04C659.67,183.67,661.84,180.33,661.74,177.46"/>
		<path class="st3" d="M89.72,290.15l0.05-0.05c0.15-0.28,0.3-0.6,0.43-0.91c3.61-5.03,4.62-12.4,5.87-18.54
			c0.08-0.37-0.37-0.67-0.63-0.54l-0.03-0.01c-2.14-1.1-4.61-1.5-6.89-2.01c-2.79-0.62-5.67-1.29-8.49-1.51
			c-0.23-0.36-0.73-0.35-0.98-0.07c-0.59,0.02-0.72,0.82-0.17,1.1c-0.06,1.82-0.07,3.63-0.13,5.43l-0.01,0.33
			c-0.06,1.59-0.16,3.18-0.36,4.76c-0.19,1.43-0.51,2.77-0.9,4.08c-0.11-0.27-0.21-0.54-0.36-0.8c-2.2-3.72-6.38-2.21-7.89,0.46
			c-1.28,2.24-1.04,5.74,0.43,8.2c1.4,2.35,4.2,2.53,5.71,0.97c0.27,0.03,0.56-0.07,0.76-0.35c3-4.08,4.53-9.96,4.69-15.78
			c3.46,2.1,7.56,3.44,11.2,4.95c-0.5,1.5-1.05,2.96-1.62,4.41c-0.31-0.73-0.81-1.38-1.58-1.92c-2.71-1.85-5.25,0.74-5.86,2.99
			c-0.54,1.97,0.28,4.59,2.24,5.81C86.7,292.09,88.86,291.51,89.72,290.15 M80.83,273.34c-0.03-1.8-0.18-3.58-0.47-5.27
			c2.36,0.67,4.75,1.17,7.11,1.8c2.36,0.64,4.75,1.64,7.14,2.06c-0.71,1.84-1.29,3.72-1.85,5.61
			C89.2,275.34,84.77,274.46,80.83,273.34"/>
		<path class="st3" d="M416.85,78.06c3.05-9.68,0.65-21.05-3.83-31.11c4.62-1.07,9.82-2.8,13.23-5.53c0.85-0.68,0.05-1.73-0.95-1.38
			c-4.58,1.65-9.23,2.54-13.99,3.31c-1.51-2.98-3.18-5.8-4.91-8.39c0.4-0.14,0.82-0.31,1.29-0.48c2.26-0.83,4.56-1.56,6.82-2.37
			c4.23-1.49,8.26-3.15,12.08-5.41c1.08-0.64-0.04-1.85-1.07-1.52c-4.34,1.41-8.84,2.49-13.28,3.64c-2.46,0.65-6.24,1.11-8.46,2.67
			c-0.72-0.31-1.86,0.26-1.61,1.05c0.05,0.21,0.14,0.4,0.2,0.61c-0.17,0.57,0.06,1.12,0.51,1.49c1.98,5.83,4.58,11.48,6.76,17.23
			c1.69,4.48,2.68,8.85,3.29,13.29c-4.31-3.18-9.5,0.86-10.54,5.06c-1.03,4.11,1.46,8.13,4.79,10.67c2.94,2.25,8.02,1.25,9.15-2.11
			C416.55,78.61,416.75,78.38,416.85,78.06"/>
		<path class="st3" d="M607.91,528.68c1.4-3.46,1.04-7.16,0.61-10.77c-0.69-5.69-1.82-11.54-4.79-16.57
			c-0.24-0.4-0.72-0.45-1.09-0.27c-1.41-0.26-2.39,0.14-3.97,0.49c-2.17,0.47-4.39,0.82-6.59,1.23c-1.98,0.37-4.01,0.64-5.93,1.24
			c-0.17,0.06-0.29,0.14-0.39,0.26c-0.33,0.04-0.64,0.26-0.56,0.63c1.33,6.41,2.47,12.92,2.69,19.5c-0.76-1.35-1.81-2.5-3.11-3.1
			c-4.86-2.21-8.34,3.17-9.05,6.73c-0.76,3.69,0.11,9.25,4.73,10.4c5.51,1.38,9.14-3.94,9.03-8.22c2.02-8.36,0.7-16.56-2.49-24.35
			c1.8,0.02,3.63,0.03,5.43-0.13c2.64-0.24,7.46-0.28,10.05-1.86c0.82,6.95,3.19,13.99,3.24,21c-1.03-1.85-2.75-3.39-5.09-3.57
			c-5-0.38-5.7,5.54-5.13,8.49c0.57,2.94,2.95,7.32,7.21,6.04C605.84,534.89,608.01,531.55,607.91,528.68"/>
		<path class="st3" d="M276.86,515.89c7.05-5.06,11.26-14.02,13.38-23.13c3.71,1.6,8.15,3.06,11.88,2.91
			c0.93-0.04,0.92-1.16,0.06-1.42c-3.98-1.19-7.61-2.93-11.25-4.81c0.49-2.79,0.81-5.56,0.96-8.19c0.35,0.11,0.72,0.21,1.13,0.33
			c1.97,0.58,3.91,1.24,5.88,1.83c3.65,1.12,7.27,2.02,11.03,2.4c1.07,0.12,0.92-1.28,0.04-1.57c-3.69-1.24-7.32-2.77-10.94-4.23
			c-2.02-0.8-4.84-2.4-7.15-2.45c-0.33-0.57-1.4-0.76-1.64-0.1c-0.07,0.17-0.11,0.35-0.18,0.52c-0.41,0.3-0.53,0.79-0.41,1.27
			c-1.64,4.97-2.77,10.14-4.24,15.15c-1.15,3.91-2.72,7.38-4.59,10.71c-1.31-4.34-6.93-4.2-9.8-1.88c-2.81,2.28-3.18,6.28-2.21,9.69
			c0.85,3.01,4.84,4.9,7.33,3.18C276.37,516.11,276.62,516.05,276.86,515.89"/>
		<path class="st3" d="M314.72,292.34c2.6-2.67,3.67-6.23,4.63-9.74c1.51-5.53,2.67-11.37,1.83-17.15c-0.07-0.46-0.5-0.69-0.91-0.66
			c-1.21-0.77-2.27-0.78-3.86-1.05c-2.19-0.38-4.38-0.9-6.57-1.35c-1.97-0.4-3.96-0.92-5.96-1.09c-0.18-0.01-0.32,0.02-0.46,0.09
			c-0.32-0.09-0.7,0-0.76,0.37c-1.19,6.43-2.59,12.9-4.88,19.07c-0.19-1.54-0.73-3-1.71-4.04c-3.66-3.89-8.92-0.22-10.92,2.81
			c-2.1,3.13-3.4,8.61,0.45,11.42c4.58,3.36,9.95-0.19,11.46-4.2c5.03-6.98,6.9-15.06,6.9-23.49c1.66,0.7,3.35,1.4,5.08,1.93
			c2.53,0.78,7.01,2.56,10,2.07c-1.87,6.74-2.33,14.16-4.93,20.66c-0.25-2.1-1.26-4.18-3.37-5.23c-4.49-2.24-7.37,2.97-7.96,5.93
			c-0.58,2.93-0.03,7.89,4.39,8.32C310.45,297.31,313.73,295.04,314.72,292.34"/>
		<path class="st3" d="M770.77,240.9c2.07-5.17,1.55-10.69,0.9-16.09c-1.04-8.5-2.73-17.24-7.15-24.76
			c-0.35-0.58-1.07-0.66-1.62-0.39c-2.12-0.38-3.6,0.21-5.93,0.72c-3.26,0.71-6.56,1.22-9.85,1.84c-2.95,0.56-5.99,0.96-8.87,1.85
			l-0.59,0.38c-0.49,0.07-0.95,0.4-0.84,0.94c1.99,9.57,3.7,19.31,4.03,29.13c-1.15-2.01-2.71-3.74-4.65-4.62
			c-7.26-3.3-12.46,4.73-13.52,10.05c-1.12,5.51,0.17,13.83,7.09,15.54c8.22,2.05,13.66-5.88,13.48-12.27
			c3.01-12.49,1.04-24.72-3.72-36.38c2.68,0.04,5.42,0.05,8.11-0.2c3.95-0.35,11.13-0.4,15.03-2.77c1.2,10.37,4.76,20.9,4.84,31.36
			c-1.55-2.76-4.11-5.06-7.62-5.32c-7.47-0.57-8.51,8.26-7.64,12.69c0.84,4.39,4.4,10.93,10.77,9.02
			C767.65,250.19,770.91,245.18,770.77,240.9"/>
		<path class="st3" d="M760.29,508.56c0.77-0.13,0.67-1.08-0.04-1.14c-4.63-0.37-9.5-0.53-14.16,0.07c-0.8,0.1-1.21,0.56-1.32,1.1
			l-0.03,0.07c-0.44,4.19-0.86,8.14-2.06,12.27c-0.06,0.21-0.15,0.41-0.22,0.61c-0.37-0.51-0.86-0.92-1.54-1.17
			c-1.63-0.61-3.41,0.66-4.45,1.7c-2.36,2.35-3.68,6.05-2.04,8.86c1.33,2.29,3.81,1.91,5.66,0.56l0.12,0
			c0.14,0.02,0.32-0.02,0.48-0.16c0.74-0.56,1.28-1.34,1.68-2.19c3.68-5.21,5.15-13.06,3.96-18.79c0.11,0,0.19,0.02,0.28,0.01
			C751.18,509.69,755.78,509.33,760.29,508.56"/>
		<path class="st3" d="M81.5,60.86c2.96-8.16,1.37-17.92-2.03-26.64c3.96-0.77,8.45-2.08,11.45-4.31c0.75-0.56,0.11-1.47-0.76-1.21
			c-3.96,1.27-7.94,1.89-12,2.39c-1.17-2.58-2.48-5.04-3.84-7.3c0.35-0.11,0.71-0.24,1.12-0.37c1.95-0.64,3.93-1.19,5.88-1.81
			c3.65-1.14,7.14-2.44,10.46-4.25c0.95-0.51,0.03-1.58-0.85-1.32c-3.74,1.07-7.6,1.85-11.42,2.69c-2.12,0.48-5.34,0.75-7.29,2.02
			c-0.6-0.29-1.59,0.16-1.41,0.84c0.04,0.18,0.11,0.35,0.15,0.53c-0.17,0.48,0.01,0.95,0.38,1.28c1.46,5.03,3.44,9.93,5.07,14.89
			c1.26,3.87,1.93,7.63,2.27,11.43c-3.53-2.84-8.09,0.45-9.15,3.99c-1.03,3.47,0.92,6.98,3.65,9.24c2.4,2.01,6.76,1.31,7.85-1.52
			C81.22,61.32,81.4,61.13,81.5,60.86"/>
		<g>
			<path class="st2" d="M175.79,2.18c-3.17,0.1-6.59-0.96-9.84-1.36c-0.2,0.38,0.75,1.21-0.24,1.12c2.82-0.09,6.41,1.96,8.32,3.93
				c-0.33,0.63-1.74,0.67-2.3,0.75c0.09,0.49,1.89-0.3,2.42,0.66c-1.19,1.95-3.26,3.24-5.92,3.7l2.76,0.34
				c0.74,0.9-0.14,1.92-0.33,2.6c1.32-0.53,2.86-0.83,4.18-1.05c0.86,0.34,0.88,0.96,0.55,1.58l2.02-0.56
				c2.55,0.41-1.27,1.77,1.15,2.43c-0.79,3.47-4.57,5.75-6.86,8.47c1.05-0.03,1.29,2.49,2.51,1.16c0.22-1.73,2.32-2.11,2.89-3.85
				c1.82-0.18,3.81-1.66,5.53-0.97c-0.42,2.11,3.79,1.67,2.4,3.99c0.18,0.97-0.76,2.12-0.81,2.85c2.76-1.63,6.16,0.79,8.71-2.43
				l3.36,1.19c1.09,0.89,1.03,2.98,2.17,3.44c0.42-3.77-3.08-6.99-1.45-10.43c4.99-0.28,9.63,1.42,14.69,1.02
				c0.16,0.36,0.38,0.91,0.33,1.35c0.71-0.02,2.68,1.82,2.97,0.27c3.67-1.71-3.81-1.97-3.95-4c1.25-0.41,3.27-0.97,3.01-2.44
				c-2.34-0.48-0.51-2.32-1.68-3.39c1.36-1.28,3.92-0.56,5.79-1.48c-1.87-3.02-5.66-6.35-8.33-9.84c-1.17-1.07-2.99-0.89-4.55-1.21
				c0-0.01,0-0.02,0-0.02h-26.6C178.89,2.45,175.39,0.42,175.79,2.18z"/>
		</g>
		<g>
			<path class="st4" d="M373.98,0.78c0.14-0.27,0.32-0.53,0.52-0.78h-1.76C372.98,0.35,373.35,0.63,373.98,0.78z"/>
			<path class="st2" d="M373.98,0.78c-0.62-0.15-1-0.43-1.24-0.78h-10.69c-2.81,1.89-5.52,3.6-9.13,2.41
				c-2.45-0.02-4.75,0.74-6.34,2.72c2.51,7.7-3.32,15.18-5.2,21.36c1.5,1.32,3.11-0.19,4.57,0.15c2.85,1.86-1.58,2.48-0.49,4.59
				c2.12,3.24,5.8,6.63,5.61,10.13c1.6,1.12,1.39-1.6,2.6-1.83c2.41-0.96,3.07,1.94,4.96,1.98c4.05,1.14,0.25,3.68,1.66,5.68
				c1.67-0.05,1.16-1.69,1.45-2.77c3.27,4.17,9.79-2.54,13.22,2.9c1.75-0.74,4.4-4.23,6.75-0.89c2.13-2.5,2.21-6.29,1.21-9.08
				c2.44-3.09,7.58,0.64,9.22-3.01c0.51-1.48-2.05-4.41,0.44-6.04c4.69,0.43,6.43-3.41,10.26-5c-0.32-2.51-5.12-0.13-6.11-2.92
				c-0.82-1.04,0.27-1.56,1.26-1.89c3.06-4.27-4.99-2.46-5.86-4.97c0.15-1.85,3.15-1.85,4.43-3.25c-9.74,4-5.17-7.32-9.94-10.19
				c-2.3,0.75-5.38,1.92-7.94,1.61c-1.43-0.1-1.85-0.85-2.02-1.7h-2.17C374.3,0.25,374.12,0.51,373.98,0.78z"/>
		</g>
		<g>
			<path class="st2" d="M680.74,561.06l-2.92-3.55c-0.06-1.82,2.3-1.78,2.79-3.37c-1.29-1.42-2.48-3.09-3.78-4.51
				c-0.11-3.04,2.21-4.21,4.79-5.87c-5.31-4.22-11.05-8.9-13.92-15.14c-12.77-3-19.23-12.17-31.22-16.66l-5.44,3.21
				c-3.08-0.64-3.51-4.39-5.5-5.79c-4.4,1.24,2.09,3.83-2.16,5.42c-5.12,0.64-9.3-3.11-13.35-3.84c0.19,1.58,1.39,3.86,2.83,5.02
				c-1.99,2.5-6.53,3.98-8.72,4.9c-1.43-1.18-3.84-2.44-5.78-2.02c-1.97,3.11,6.58,5.03,0.29,7.9c-2.38,3.23-5.06-1.43-7.48,0.6
				c-1.56,2.96,2.59,2.23,3.22,4.27c-0.54,4.28-5.92,1.52-7.94,3.41c0.89,1.55,2.97,1.49,4.39,2.05c2.46,6.38-6.9,1.44-6.72,6.29
				c2.98,5.38,6.5,13.67,11.46,19.83c0.07,0.26,0.11,0.51,0.14,0.75h80.13C677.31,562.96,679.17,562.17,680.74,561.06z"/>
		</g>
		<g>
			<path class="st4" d="M782.01,102.24c0.59,0.24,1.3,0.37,1.99,0.55v-4.21C782.23,98.77,780.88,99.32,782.01,102.24z"/>
			<path class="st4" d="M777.26,76.11c2.6,3.23,4.8,7.04,6.74,10.71V67C780.67,69.86,776.14,72.04,777.26,76.11z"/>
			<path class="st2" d="M782.01,102.24c-1.13-2.91,0.22-3.46,1.99-3.66V86.82c-1.94-3.67-4.14-7.48-6.74-10.71
				c-1.12-4.07,3.4-6.25,6.74-9.11v-6.6c-1.19,1.23-2.25,3.64-4.7,3.37c-14.76-0.51-27.35-2.55-37.98-11.59l2.66-14.19
				c-0.13,0.25-3.47,0.11-3.39-1.35c-3.51,6.68-2.66,14.19-6.88,20.29c-0.59-0.83,1.45-2.11-0.37-2.54
				c-0.32,2.57,0.23,6.07-2.5,7.37c-7.06-2.82-8.16,1.23-14.18-3.56c-2.34,0.56-1.84,2.85-3.47,4c-1.93,0.42-3.62-0.25-3.69-2.08
				c-3.37-0.74-5.24,4.79-8.54,5.87c-1.39,0.04-3.34-0.14-4.41,1.24c1.18,1.67,4.28,2.91,2.71,5.26c-0.86,2.95-4.44,3.91-7.15,5.83
				l2.92,3.55c0.06,1.82-2.3,1.78-2.79,3.37c1.29,1.42,2.48,3.09,3.78,4.51c0.11,3.04-2.21,4.21-4.79,5.87
				c5.31,4.22,11.05,8.9,13.92,15.14c12.77,3,19.23,12.17,31.22,16.66l5.44-3.21c3.08,0.64,3.51,4.39,5.5,5.79
				c4.4-1.24-2.09-3.83,2.16-5.42c5.12-0.64,9.3,3.11,13.35,3.84c-0.19-1.58-1.39-3.86-2.83-5.02c1.99-2.5,6.53-3.98,8.72-4.9
				c1.43,1.18,3.84,2.44,5.78,2.02c1.97-3.11-6.58-5.03-0.29-7.9c2.38-3.23,5.06,1.43,7.48-0.6c1.56-2.96-2.59-2.23-3.22-4.27
				c0.38-3.04,3.21-2.53,5.54-2.66v-2.26C783.31,102.6,782.6,102.47,782.01,102.24z"/>
		</g>
		<g>
			<path class="st3" d="M40.5,156.05l0.68-12.32l-4.31,0.01c-0.05,3.92-0.11,7.91-0.17,11.97L40.5,156.05z"/>
			<path class="st3" d="M41.23,142.81l0.05-0.92l-4.39,0.01c0,0.31-0.01,0.61-0.01,0.92L41.23,142.81z"/>
			<path class="st3" d="M36.69,156.62c0,0.31-0.01,0.61-0.01,0.92l3.72,0.33l0.05-0.92L36.69,156.62z"/>
			<path class="st3" d="M36.7,155.71c0,0.3-0.01,0.61-0.01,0.91l3.76,0.33l0.05-0.91L36.7,155.71z"/>
			<path class="st3" d="M41.18,143.73l0.05-0.92l-4.35,0.01c0,0.31-0.01,0.62-0.01,0.92L41.18,143.73z"/>
			<path class="st3" d="M49.34,142.17c0.22,0.2,0.33,0.47,0.32,0.73l-0.96,14.82c-0.03,0.49-0.5,0.85-1.04,0.79l-5.2-0.46l-0.21,3.8
				c-0.01,0.22,0.7,0.94,2.57,1.47c0.7,0.19,1.46,0.34,2.24,0.42c1.44,0.17,2.83,0.1,3.82-0.15c0.86-0.24,1.14-0.54,1.15-0.64
				l1.53-27.46c0.02-0.21-0.71-0.93-2.59-1.46c-0.7-0.2-1.45-0.36-2.24-0.44c-1.41-0.17-2.81-0.1-3.82,0.17
				c-0.85,0.23-1.15,0.52-1.15,0.63l-0.41,7.47l5.19-0.01L49.34,142.17z"/>
			<polygon class="st3" points="46.72,156.6 47.54,143.71 43.25,143.72 42.56,156.23 			"/>
			<path class="st3" d="M47.68,157.6l-5.18-0.46l-0.05,0.92l5.2,0.46c0.54,0.06,1.01-0.31,1.04-0.79l0.96-14.82
				c0.01-0.27-0.1-0.53-0.32-0.73l-0.79-0.3l-5.19,0.01l-0.05,0.93l5.33-0.01L47.68,157.6z"/>
			<polygon class="st3" points="46.72,156.6 42.56,156.23 42.5,157.14 47.68,157.6 48.63,142.79 43.3,142.81 43.25,143.72 
				47.54,143.71 			"/>
			<path class="st3" d="M42.74,134.3c0.06-1.26,2.77-1.98,6.04-1.6c3.27,0.36,5.86,1.67,5.79,2.93l-1.52,27.47
				c-0.07,1.23-2.77,1.95-6.04,1.58c-3.27-0.36-5.86-1.67-5.79-2.93l0.21-3.78l-1.03-0.09l-0.21,3.76
				c-0.08,1.38,1.47,2.66,4.13,3.44c0.83,0.23,1.72,0.41,2.64,0.53c1.72,0.19,3.36,0.11,4.62-0.24c2.09-0.56,2.46-1.59,2.49-2.18
				l1.52-27.47c0.08-1.37-1.47-2.65-4.13-3.43c-0.83-0.23-1.72-0.41-2.64-0.5c-1.71-0.21-3.36-0.13-4.63,0.21
				c-2.09,0.55-2.46,1.59-2.5,2.17l-0.43,7.71l1.04,0L42.74,134.3z"/>
			<polygon class="st3" points="41.53,156.14 42.22,143.72 41.18,143.73 40.5,156.05 			"/>
			<polygon class="st3" points="42.27,142.81 42.32,141.88 41.28,141.89 41.23,142.81 			"/>
			<polygon class="st3" points="41.48,157.05 40.45,156.96 40.4,157.87 41.43,157.97 			"/>
			<polygon class="st3" points="42.22,143.72 42.27,142.81 41.23,142.81 41.18,143.73 			"/>
			<polygon class="st3" points="40.5,156.05 40.45,156.96 41.48,157.05 41.53,156.14 			"/>
			<path class="st3" d="M43.76,134.41c0-0.11,0.29-0.4,1.15-0.63c1-0.27,2.4-0.34,3.82-0.17c0.79,0.08,1.54,0.23,2.24,0.44
				c1.88,0.53,2.6,1.25,2.59,1.46l-1.53,27.46c0,0.1-0.29,0.4-1.15,0.64c-0.99,0.25-2.39,0.32-3.82,0.15
				c-0.78-0.09-1.54-0.23-2.24-0.42c-1.87-0.54-2.58-1.26-2.57-1.47l0.21-3.8l-1.03-0.09l-0.21,3.78c-0.07,1.25,2.52,2.57,5.79,2.93
				c3.27,0.37,5.98-0.35,6.04-1.58l1.52-27.47c0.08-1.26-2.52-2.57-5.79-2.93c-3.27-0.37-5.98,0.35-6.04,1.6l-0.42,7.58l1.03,0
				L43.76,134.41z"/>
			<polygon class="st3" points="42.56,156.23 43.25,143.72 42.22,143.72 41.53,156.14 			"/>
			<polygon class="st3" points="43.35,141.88 42.32,141.88 42.27,142.81 43.3,142.81 			"/>
			<polygon class="st3" points="42.5,157.14 41.48,157.05 41.43,157.97 42.45,158.06 			"/>
			<polygon class="st3" points="42.56,156.23 41.53,156.14 41.48,157.05 42.5,157.14 			"/>
			<polygon class="st3" points="43.25,143.72 43.3,142.81 42.27,142.81 42.22,143.72 			"/>
			<path class="st3" d="M42.17,200.65l0.68-12.32l-6.66,0.02c-0.06,3.89-0.13,7.82-0.2,11.75L42.17,200.65z"/>
			<path class="st3" d="M42.9,187.41l0.05-0.92l-6.73,0.02c-0.01,0.31-0.01,0.62-0.02,0.92L42.9,187.41z"/>
			<path class="st3" d="M35.99,201.01c-0.01,0.3-0.01,0.61-0.02,0.91l6.1,0.54l0.05-0.9L35.99,201.01z"/>
			<path class="st3" d="M36,200.1c-0.01,0.31-0.01,0.61-0.02,0.92l6.14,0.55l0.05-0.92L36,200.1z"/>
			<path class="st3" d="M42.85,188.32l0.05-0.92l-6.69,0.02c-0.01,0.31-0.01,0.61-0.02,0.92L42.85,188.32z"/>
			<path class="st3" d="M51.02,186.77c0.2,0.2,0.31,0.46,0.3,0.73l-0.95,14.82c-0.02,0.49-0.49,0.85-1.05,0.79l-5.2-0.46l-0.21,3.81
				c-0.02,0.21,0.7,0.93,2.57,1.47c0.71,0.19,1.45,0.34,2.25,0.43c1.42,0.17,2.81,0.11,3.81-0.15c0.86-0.23,1.15-0.53,1.15-0.64
				l1.53-27.46c0.01-0.21-0.71-0.92-2.59-1.47c-0.7-0.2-1.45-0.35-2.24-0.43c-1.43-0.16-2.82-0.1-3.81,0.16
				c-0.86,0.23-1.15,0.52-1.16,0.64l-0.41,7.47l5.2-0.01L51.02,186.77z"/>
			<polygon class="st3" points="48.38,201.2 49.2,188.3 44.92,188.32 44.22,200.83 			"/>
			<path class="st3" d="M49.35,202.21l-5.17-0.46l-0.05,0.9l5.2,0.46c0.55,0.06,1.02-0.3,1.05-0.79l0.95-14.82
				c0.01-0.27-0.1-0.52-0.3-0.73l-0.8-0.31l-5.2,0.01l-0.05,0.92l5.33-0.01L49.35,202.21z"/>
			<polygon class="st3" points="48.38,201.2 44.22,200.83 44.17,201.75 49.35,202.21 50.3,187.39 44.97,187.4 44.92,188.32 
				49.2,188.3 			"/>
			<path class="st3" d="M44.4,178.89c0.07-1.25,2.78-1.97,6.04-1.6c3.27,0.37,5.87,1.68,5.79,2.92l-1.52,27.47
				c-0.06,1.24-2.77,1.96-6.04,1.6c-3.28-0.37-5.88-1.69-5.81-2.93l0.21-3.79l-1.01-0.09l-0.21,3.76c-0.09,1.38,1.45,2.66,4.13,3.44
				c0.83,0.24,1.71,0.4,2.63,0.51c1.72,0.19,3.37,0.12,4.64-0.23c2.1-0.55,2.45-1.59,2.47-2.16l1.53-27.46
				c0.09-1.4-1.47-2.67-4.13-3.45c-0.83-0.23-1.71-0.4-2.63-0.5c-1.72-0.21-3.36-0.12-4.64,0.22c-2.09,0.54-2.46,1.6-2.49,2.17
				l-0.42,7.72l1.03,0L44.4,178.89z"/>
			<polygon class="st3" points="43.19,200.74 43.88,188.32 42.85,188.32 42.17,200.65 			"/>
			<polygon class="st3" points="43.14,201.66 42.12,201.57 42.07,202.47 43.09,202.56 			"/>
			<polygon class="st3" points="43.93,187.4 43.98,186.48 42.95,186.48 42.9,187.41 			"/>
			<polygon class="st3" points="43.88,188.32 43.93,187.4 42.9,187.41 42.85,188.32 			"/>
			<polygon class="st3" points="42.17,200.65 42.12,201.57 43.14,201.66 43.19,200.74 			"/>
			<path class="st3" d="M45.43,179.01c0.01-0.12,0.3-0.41,1.16-0.64c1-0.26,2.38-0.32,3.81-0.16c0.79,0.08,1.53,0.23,2.24,0.43
				c1.87,0.55,2.6,1.25,2.59,1.47l-1.53,27.46c0,0.12-0.29,0.42-1.15,0.64c-1,0.26-2.39,0.32-3.81,0.15
				c-0.8-0.09-1.54-0.23-2.25-0.43c-1.86-0.54-2.59-1.26-2.57-1.47l0.21-3.81l-1.04-0.09l-0.21,3.79c-0.07,1.24,2.53,2.55,5.81,2.93
				c3.27,0.36,5.97-0.36,6.04-1.6l1.52-27.47c0.08-1.24-2.52-2.55-5.79-2.92c-3.26-0.37-5.97,0.35-6.04,1.6l-0.42,7.59l1.04,0
				L45.43,179.01z"/>
			<polygon class="st3" points="44.22,200.83 44.92,188.32 43.88,188.32 43.19,200.74 			"/>
			<polygon class="st3" points="45.02,186.48 43.98,186.48 43.93,187.4 44.97,187.4 			"/>
			<polygon class="st3" points="44.17,201.75 43.14,201.66 43.09,202.56 44.12,202.65 			"/>
			<polygon class="st3" points="44.22,200.83 43.19,200.74 43.14,201.66 44.17,201.75 			"/>
			<polygon class="st3" points="44.92,188.32 44.97,187.4 43.93,187.4 43.88,188.32 			"/>
			<path class="st3" d="M38.2,246.37l0.68-12.32l-3.48,0.01c-0.07,4.03-0.15,8.05-0.22,12.05L38.2,246.37z"/>
			<path class="st3" d="M38.94,233.12l0.05-0.91l-3.55,0.01c-0.01,0.31-0.01,0.61-0.02,0.92L38.94,233.12z"/>
			<path class="st3" d="M35.17,247.01c-0.01,0.31-0.01,0.62-0.02,0.92l2.95,0.26l0.05-0.92L35.17,247.01z"/>
			<path class="st3" d="M35.18,246.1c-0.01,0.3-0.01,0.61-0.02,0.91l2.98,0.26l0.05-0.9L35.18,246.1z"/>
			<path class="st3" d="M38.88,234.05l0.05-0.92l-3.51,0.01c-0.01,0.31-0.01,0.61-0.02,0.92L38.88,234.05z"/>
			<path class="st3" d="M47.04,232.5c0.21,0.2,0.33,0.46,0.3,0.73l-0.95,14.81c-0.02,0.5-0.49,0.85-1.03,0.8l-5.21-0.46l-0.21,3.8
				c-0.01,0.21,0.71,0.93,2.58,1.46c0.7,0.2,1.45,0.35,2.25,0.44c1.42,0.15,2.8,0.1,3.8-0.17c0.85-0.22,1.15-0.52,1.16-0.62
				l1.53-27.46c0.01-0.21-0.72-0.93-2.57-1.47c-0.71-0.19-1.46-0.34-2.25-0.43c-1.43-0.17-2.82-0.11-3.82,0.16
				c-0.86,0.23-1.15,0.53-1.15,0.63l-0.42,7.48l5.19-0.02L47.04,232.5z"/>
			<polygon class="st3" points="44.42,246.93 45.25,234.03 40.95,234.04 40.25,246.55 			"/>
			<path class="st3" d="M45.38,247.92l-5.18-0.46l-0.05,0.92l5.21,0.46c0.54,0.04,1.02-0.31,1.03-0.8l0.95-14.81
				c0.02-0.27-0.1-0.53-0.3-0.73l-0.8-0.31l-5.19,0.02L41,233.11l5.33-0.02L45.38,247.92z"/>
			<polygon class="st3" points="44.42,246.93 40.25,246.55 40.2,247.46 45.38,247.92 46.33,233.09 41,233.11 40.95,234.04 
				45.25,234.03 			"/>
			<path class="st3" d="M40.44,224.6c0.06-1.24,2.76-1.96,6.04-1.6c3.27,0.38,5.86,1.69,5.8,2.93l-1.52,27.47
				c-0.06,1.25-2.78,1.97-6.05,1.6c-3.27-0.37-5.87-1.68-5.79-2.92l0.21-3.78l-1.03-0.09l-0.21,3.76c-0.09,1.38,1.47,2.67,4.13,3.44
				c0.83,0.23,1.72,0.4,2.64,0.5c1.72,0.19,3.35,0.13,4.63-0.22c2.1-0.54,2.46-1.59,2.5-2.17l1.52-27.47
				c0.07-1.38-1.49-2.66-4.14-3.43c-0.82-0.23-1.72-0.41-2.63-0.53c-1.72-0.19-3.37-0.1-4.64,0.23c-2.09,0.55-2.44,1.59-2.48,2.17
				l-0.43,7.71l1.04,0L40.44,224.6z"/>
			<polygon class="st3" points="39.23,246.46 39.92,234.04 38.88,234.05 38.2,246.37 			"/>
			<polygon class="st3" points="39.97,233.12 40.02,232.21 38.99,232.21 38.94,233.12 			"/>
			<polygon class="st3" points="39.18,247.37 38.15,247.27 38.1,248.2 39.13,248.29 			"/>
			<polygon class="st3" points="39.92,234.04 39.97,233.12 38.94,233.12 38.88,234.05 			"/>
			<polygon class="st3" points="38.2,246.37 38.15,247.27 39.18,247.37 39.23,246.46 			"/>
			<path class="st3" d="M41.47,224.72c-0.01-0.11,0.29-0.4,1.15-0.63c1.01-0.27,2.4-0.33,3.82-0.16c0.79,0.09,1.54,0.24,2.25,0.43
				c1.85,0.54,2.58,1.26,2.57,1.47l-1.53,27.46c0,0.1-0.3,0.4-1.16,0.62c-1,0.27-2.39,0.33-3.8,0.17c-0.8-0.09-1.55-0.24-2.25-0.44
				c-1.87-0.54-2.59-1.25-2.58-1.46l0.21-3.8l-1.02-0.09l-0.21,3.78c-0.08,1.25,2.52,2.55,5.79,2.92c3.27,0.37,5.98-0.34,6.05-1.6
				l1.52-27.47c0.06-1.24-2.53-2.55-5.8-2.93c-3.28-0.36-5.98,0.37-6.04,1.6l-0.42,7.6l1.03,0L41.47,224.72z"/>
			<polygon class="st3" points="40.25,246.55 40.95,234.04 39.92,234.04 39.23,246.46 			"/>
			<polygon class="st3" points="40.2,247.46 39.18,247.37 39.13,248.29 40.15,248.38 			"/>
			<polygon class="st3" points="41.05,232.2 40.02,232.21 39.97,233.12 41,233.11 			"/>
			<polygon class="st3" points="40.95,234.04 41,233.11 39.97,233.12 39.92,234.04 			"/>
			<polygon class="st3" points="40.25,246.55 39.23,246.46 39.18,247.37 40.2,247.46 			"/>
			<path class="st3" d="M37.33,296.13l0.69-12.32l-3.56,0.01c-0.08,4.07-0.16,8.08-0.24,12.03L37.33,296.13z"/>
			<path class="st3" d="M34.21,296.77c-0.01,0.31-0.01,0.62-0.02,0.92l3.04,0.27l0.05-0.92L34.21,296.77z"/>
			<path class="st3" d="M38.07,282.9l0.05-0.93l-3.62,0.01c-0.01,0.31-0.01,0.62-0.02,0.93L38.07,282.9z"/>
			<path class="st3" d="M34.23,295.86c-0.01,0.3-0.01,0.61-0.02,0.91l3.07,0.27l0.05-0.91L34.23,295.86z"/>
			<path class="st3" d="M38.02,283.81l0.05-0.92l-3.59,0.01c-0.01,0.31-0.01,0.61-0.02,0.92L38.02,283.81z"/>
			<path class="st3" d="M46.18,282.26c0.22,0.2,0.33,0.47,0.31,0.74l-0.96,14.81c-0.02,0.49-0.49,0.86-1.04,0.8l-5.21-0.46
				l-0.21,3.8c-0.01,0.21,0.72,0.93,2.58,1.48c0.71,0.19,1.45,0.34,2.25,0.43c1.43,0.17,2.82,0.1,3.82-0.15
				c0.85-0.24,1.14-0.54,1.15-0.64l1.52-27.46c0.01-0.22-0.71-0.92-2.59-1.46c-0.7-0.21-1.45-0.36-2.24-0.44
				c-1.43-0.15-2.81-0.1-3.81,0.15c-0.86,0.24-1.15,0.54-1.17,0.64l-0.41,7.48l5.2-0.02L46.18,282.26z"/>
			<polygon class="st3" points="43.56,296.69 44.38,283.79 40.08,283.81 39.38,296.31 			"/>
			<path class="st3" d="M44.52,297.69l-5.18-0.46l-0.05,0.92l5.21,0.46c0.55,0.05,1.01-0.31,1.04-0.8L46.5,283
				c0.01-0.27-0.1-0.54-0.31-0.74l-0.8-0.31l-5.2,0.02l-0.05,0.93l5.34-0.01L44.52,297.69z"/>
			<polygon class="st3" points="43.56,296.69 39.38,296.31 39.33,297.22 44.52,297.69 45.47,282.88 40.13,282.89 40.08,283.81 
				44.38,283.79 			"/>
			<path class="st3" d="M39.57,274.38c0.07-1.25,2.78-1.98,6.05-1.6c3.27,0.35,5.86,1.68,5.79,2.92l-1.51,27.47
				c-0.07,1.23-2.77,1.96-6.04,1.59c-3.28-0.36-5.86-1.67-5.79-2.92l0.21-3.78l-1.04-0.09l-0.21,3.77
				c-0.06,1.38,1.48,2.65,4.14,3.43c0.84,0.23,1.72,0.41,2.64,0.51c1.72,0.21,3.36,0.13,4.62-0.22c2.09-0.55,2.46-1.59,2.49-2.17
				l1.53-27.46c0.08-1.38-1.47-2.66-4.13-3.43c-0.84-0.23-1.73-0.41-2.65-0.51c-1.71-0.21-3.36-0.12-4.63,0.22
				c-2.09,0.54-2.46,1.59-2.48,2.17l-0.43,7.71l1.03,0L39.57,274.38z"/>
			<polygon class="st3" points="38.37,296.22 39.05,283.81 38.02,283.81 37.33,296.13 			"/>
			<polygon class="st3" points="38.32,297.13 37.28,297.04 37.23,297.96 38.27,298.05 			"/>
			<polygon class="st3" points="39.1,282.89 39.15,281.97 38.13,281.97 38.07,282.9 			"/>
			<polygon class="st3" points="37.33,296.13 37.28,297.04 38.32,297.13 38.37,296.22 			"/>
			<polygon class="st3" points="39.05,283.81 39.1,282.89 38.07,282.9 38.02,283.81 			"/>
			<path class="st3" d="M40.59,274.49c0.01-0.1,0.31-0.4,1.17-0.64c0.99-0.25,2.38-0.31,3.81-0.15c0.79,0.09,1.54,0.23,2.24,0.44
				c1.88,0.54,2.6,1.24,2.59,1.46l-1.52,27.46c-0.01,0.11-0.3,0.4-1.15,0.64c-1.01,0.25-2.39,0.32-3.82,0.15
				c-0.79-0.09-1.54-0.24-2.25-0.43c-1.86-0.55-2.58-1.26-2.58-1.48l0.21-3.8l-1.02-0.09l-0.21,3.78c-0.07,1.25,2.51,2.57,5.79,2.92
				c3.28,0.37,5.98-0.35,6.04-1.59l1.51-27.47c0.07-1.24-2.52-2.57-5.79-2.92c-3.27-0.38-5.98,0.34-6.05,1.6l-0.42,7.59l1.02,0
				L40.59,274.49z"/>
			<polygon class="st3" points="39.38,296.31 40.08,283.81 39.05,283.81 38.37,296.22 			"/>
			<polygon class="st3" points="40.18,281.96 39.15,281.97 39.1,282.89 40.13,282.89 			"/>
			<polygon class="st3" points="39.33,297.22 38.32,297.13 38.27,298.05 39.28,298.14 			"/>
			<polygon class="st3" points="40.08,283.81 40.13,282.89 39.1,282.89 39.05,283.81 			"/>
			<polygon class="st3" points="39.38,296.31 38.37,296.22 38.32,297.13 39.33,297.22 			"/>
			<path class="st3" d="M34.92,342.92l0.68-12.32l-2.08,0.01c-0.09,4.22-0.17,8.28-0.25,12.16L34.92,342.92z"/>
			<path class="st3" d="M33.26,343.69c-0.01,0.31-0.01,0.61-0.02,0.92l1.58,0.14l0.05-0.91L33.26,343.69z"/>
			<path class="st3" d="M35.66,329.68l0.05-0.92l-2.14,0.01c-0.01,0.31-0.01,0.62-0.02,0.93L35.66,329.68z"/>
			<path class="st3" d="M33.28,342.77c-0.01,0.31-0.01,0.62-0.02,0.92l1.61,0.14l0.05-0.92L33.28,342.77z"/>
			<path class="st3" d="M35.61,330.6l0.05-0.92l-2.11,0.01c-0.01,0.31-0.01,0.61-0.02,0.91L35.61,330.6z"/>
			<path class="st3" d="M43.76,329.05c0.21,0.2,0.33,0.46,0.31,0.74l-0.95,14.8c-0.04,0.51-0.5,0.85-1.05,0.8l-5.21-0.46l-0.21,3.82
				c0,0.21,0.72,0.92,2.58,1.46c0.69,0.2,1.44,0.35,2.24,0.44c1.43,0.17,2.82,0.1,3.82-0.16c0.85-0.22,1.15-0.54,1.15-0.65
				l1.52-27.45c0.01-0.21-0.72-0.93-2.58-1.48c-0.7-0.19-1.46-0.32-2.25-0.42c-1.42-0.17-2.81-0.12-3.81,0.15
				c-0.86,0.23-1.14,0.52-1.17,0.63l-0.41,7.49l5.21-0.01L43.76,329.05z"/>
			<polygon class="st3" points="41.14,343.47 41.96,330.58 37.66,330.59 36.97,343.1 			"/>
			<path class="st3" d="M42.1,344.48l-5.18-0.46l-0.05,0.91l5.21,0.46c0.56,0.05,1.02-0.29,1.05-0.8l0.95-14.8
				c0.02-0.28-0.1-0.54-0.31-0.74l-0.79-0.31l-5.21,0.01l-0.05,0.92l5.33-0.02L42.1,344.48z"/>
			<polygon class="st3" points="41.14,343.47 36.97,343.1 36.92,344.01 42.1,344.48 43.04,329.65 37.71,329.67 37.66,330.59 
				41.96,330.58 			"/>
			<path class="st3" d="M37.16,321.16c0.06-1.25,2.76-1.96,6.04-1.6c3.27,0.37,5.86,1.67,5.8,2.92l-1.52,27.46
				c-0.07,1.25-2.78,1.98-6.05,1.6c-3.26-0.38-5.86-1.67-5.79-2.93l0.21-3.77l-1.02-0.09l-0.21,3.75c-0.08,1.4,1.46,2.68,4.13,3.46
				c0.84,0.23,1.71,0.39,2.65,0.5c1.72,0.19,3.36,0.12,4.62-0.21c2.09-0.55,2.47-1.6,2.5-2.17l1.53-27.46
				c0.07-1.39-1.48-2.67-4.12-3.44c-0.85-0.24-1.73-0.41-2.65-0.52c-1.72-0.19-3.36-0.12-4.63,0.23c-2.1,0.54-2.46,1.59-2.49,2.16
				l-0.43,7.72l1.03,0L37.16,321.16z"/>
			<polygon class="st3" points="35.95,343.01 36.63,330.6 35.61,330.6 34.92,342.92 			"/>
			<polygon class="st3" points="36.69,329.68 36.74,328.76 35.71,328.76 35.66,329.68 			"/>
			<polygon class="st3" points="35.9,343.92 34.87,343.83 34.82,344.74 35.85,344.84 			"/>
			<polygon class="st3" points="34.92,342.92 34.87,343.83 35.9,343.92 35.95,343.01 			"/>
			<polygon class="st3" points="36.63,330.6 36.69,329.68 35.66,329.68 35.61,330.6 			"/>
			<path class="st3" d="M38.17,321.27c0.03-0.11,0.31-0.4,1.17-0.63c1-0.27,2.39-0.32,3.81-0.15c0.79,0.1,1.54,0.23,2.25,0.42
				c1.86,0.55,2.59,1.27,2.58,1.48l-1.52,27.45c-0.01,0.11-0.3,0.43-1.15,0.65c-1,0.26-2.39,0.33-3.82,0.16
				c-0.8-0.09-1.55-0.24-2.24-0.44c-1.86-0.54-2.58-1.25-2.58-1.46l0.21-3.82l-1.02-0.09l-0.21,3.77c-0.06,1.26,2.53,2.55,5.79,2.93
				c3.27,0.38,5.98-0.34,6.05-1.6L49,322.48c0.06-1.24-2.53-2.55-5.8-2.92c-3.28-0.37-5.98,0.35-6.04,1.6l-0.42,7.59l1.02,0
				L38.17,321.27z"/>
			<polygon class="st3" points="36.97,343.1 37.66,330.59 36.63,330.6 35.95,343.01 			"/>
			<polygon class="st3" points="36.92,344.01 35.9,343.92 35.85,344.84 36.86,344.93 			"/>
			<polygon class="st3" points="37.76,328.75 36.74,328.76 36.69,329.68 37.71,329.67 			"/>
			<polygon class="st3" points="36.97,343.1 35.95,343.01 35.9,343.92 36.92,344.01 			"/>
			<polygon class="st3" points="37.66,330.59 37.71,329.67 36.69,329.68 36.63,330.6 			"/>
			<path class="st3" d="M74.66,560.79v-0.01c4.47,1.29,9.02,2.36,13.63,3.22h54.91c2.04-0.38,4.07-0.79,6.08-1.26
				c58.97-13.79,85.67-103.24,100.01-151.31c3.15-10.55,5.65-18.88,7.83-24.37c11.13-28.07,30.43-23.23,45.92-19.36
				c2.07,0.51,4.09,1.03,6.02,1.43c6.38,1.35,7.51,0.38,7.69,0.04c0.59-0.99-1.51-3.66-3.13-5.15
				c-1.36-1.29-137.21-129.58-152.21-138.85c-3.09-1.91-5.56-3.14-7.33-3.65c-0.84-0.25-1.97-0.45-2.43,0
				c-0.49,0.48-0.91,2.17,1.81,8.07c2.9,6.29-3.04,11.78-3.35,12.04c-33.99,26.68-48.23,95.92-56.74,137.31
				c-1.08,5.26-2.06,10.01-2.96,14.07c-4.63,20.91-11.22,33.26-20.19,37.77c-5.88,2.96-12.86,2.48-20.74-1.45
				c-18.61-9.22-19.25-37.75-19.28-38.99c0.02-0.73,0.42-18.68,0.99-45.92l-8.03-0.72l-0.21-0.04l-0.56-0.37
				c-0.2-0.23-0.26-0.52-0.19-0.8l3.69-13.08c0.11-0.38,0.47-0.62,0.91-0.64l4.71-0.01c0.2-9.7,0.41-20.21,0.63-31.26l-6.55-0.58
				l-0.21-0.03l-0.58-0.39c-0.19-0.23-0.25-0.51-0.18-0.79l3.68-13.08c0.11-0.38,0.47-0.63,0.92-0.64l3.23-0.01
				c0.22-11.09,0.43-22.58,0.65-34.23l-6.64-0.59l-0.23-0.04l-0.56-0.38c-0.19-0.23-0.25-0.53-0.19-0.8l3.69-13.08
				c0.12-0.38,0.48-0.62,0.92-0.62l3.3-0.01c0.18-10.17,0.36-20.38,0.53-30.48l-3.5-0.31l-0.21-0.04l-0.57-0.38
				c-0.18-0.23-0.25-0.5-0.18-0.77l3.68-13.09c0.11-0.37,0.46-0.63,0.91-0.64l0.12,0c0.16-9.95,0.31-19.71,0.45-29.15l-5.87-0.52
				l-0.21-0.04l-0.58-0.38c-0.19-0.24-0.25-0.51-0.18-0.78l3.69-13.08c0.11-0.39,0.48-0.63,0.91-0.65l2.46-0.01
				c0.58-43,0.78-76.56,0.19-84.39C33.56,38.12,10.77,27.44,0,23.47v39.58c1.2,4.88,0.92,8.32,0.91,8.39
				C0.89,71.81,0.56,77.51,0,87.29v414.72c3.21,6.03,6.9,11.74,11.12,17.11C26.61,538.84,48.58,553.24,74.66,560.79z M139.12,513.68
				c10.32-15.6,22.72-29.44,31.28-46.11c8.16-15.9,14-32.81,19.74-49.65c6.29-18.43,13.14-36.44,22.03-53.85
				c4.53-8.82,11.39-24.68,24.62-24.3c1.11,0.04,2.86,2.36,1.44,2.75c-14.48,3.99-18.79,29.34-22.17,40.65
				c-5.57,18.61-10.6,37.3-16.77,55.71c-9.42,28.11-22.14,69.29-55,81.42C140.66,521.66,137.5,516.14,139.12,513.68z M99.41,519.9
				c1.12-0.28,2.1,0.21,3.16,0.55c1.32,0.43,2.7,0.57,4.07,0.59c2.59,0.05,5.05,0.25,7.32-0.91c2.08-1.07,4.08,2.65,3.14,4.03
				c-3.18,4.71-13.32,7.71-18.01,2.06C97.45,524.29,96.11,520.69,99.41,519.9z M5.09,39.68c-1.05-0.87-1.76-3.83,0.57-2.85
				c12.3,5.15,15.81,21.53,13.35,31.86c-0.69,2.9-4.81-0.38-5.31-1.89C10.51,57.39,14.35,47.36,5.09,39.68z"/>
			<path class="st3" d="M30.08,155.13l4.57,0.41c0.06-3.99,0.11-7.92,0.17-11.78l-1.53,0.01L30.08,155.13z"/>
			<path class="st3" d="M28.79,155.92l3.68-13.09l2.36-0.01c0-0.31,0.01-0.62,0.01-0.92l-2.46,0.01c-0.44,0.01-0.8,0.26-0.91,0.65
				l-3.69,13.08c-0.06,0.27-0.01,0.54,0.18,0.78l0.58,0.38l0.21,0.04l5.87,0.52c0-0.31,0.01-0.61,0.01-0.92L28.79,155.92z"/>
			<path class="st3" d="M30.08,155.13l3.21-11.37l1.53-0.01c0-0.31,0.01-0.62,0.01-0.93l-2.36,0.01l-3.68,13.09l5.85,0.52
				c0-0.3,0.01-0.61,0.01-0.91L30.08,155.13z"/>
			<path class="st3" d="M33.95,199.92c0.05-2.85,0.1-5.68,0.14-8.51l-2.35,8.31L33.95,199.92z"/>
			<path class="st3" d="M30.46,200.52l3.68-13.09l0.02,0c0.01-0.31,0.01-0.62,0.02-0.92l-0.12,0c-0.45,0.01-0.81,0.27-0.91,0.64
				l-3.68,13.09c-0.07,0.27,0,0.54,0.18,0.77l0.57,0.38l0.21,0.04l3.5,0.31c0.01-0.3,0.01-0.61,0.02-0.91L30.46,200.52z"/>
			<path class="st3" d="M31.74,199.72l2.35-8.31c0.02-1.33,0.04-2.65,0.07-3.98l-0.02,0l-3.68,13.09l3.48,0.31
				c0.01-0.3,0.01-0.61,0.02-0.91L31.74,199.72z"/>
			<path class="st3" d="M27.79,245.43l5.35,0.48c0.07-3.94,0.15-7.89,0.22-11.86l-2.36,0L27.79,245.43z"/>
			<path class="st3" d="M26.48,246.24l3.7-13.09l3.19-0.01c0.01-0.31,0.01-0.61,0.02-0.92l-3.3,0.01c-0.44,0-0.8,0.24-0.92,0.62
				l-3.69,13.08c-0.06,0.27-0.01,0.57,0.19,0.8l0.56,0.38l0.23,0.04l6.64,0.59c0.01-0.31,0.01-0.62,0.02-0.92L26.48,246.24z"/>
			<path class="st3" d="M27.79,245.43L31,234.06l2.36,0c0.01-0.3,0.01-0.61,0.02-0.91l-3.19,0.01l-3.7,13.09l6.65,0.59
				c0.01-0.3,0.01-0.61,0.02-0.91L27.79,245.43z"/>
			<path class="st3" d="M26.92,295.21l5.26,0.47c0.08-3.89,0.15-7.84,0.23-11.84l-2.29,0.01L26.92,295.21z"/>
			<path class="st3" d="M25.62,296l3.69-13.08l3.12-0.01c0.01-0.31,0.01-0.62,0.02-0.93L29.23,282c-0.45,0.01-0.81,0.26-0.92,0.64
				l-3.68,13.08c-0.07,0.28-0.01,0.56,0.18,0.79l0.58,0.39l0.21,0.03l6.55,0.58c0.01-0.31,0.01-0.61,0.02-0.92L25.62,296z"/>
			<path class="st3" d="M26.92,295.21l3.2-11.37l2.29-0.01c0.01-0.31,0.01-0.61,0.02-0.92l-3.12,0.01L25.62,296l6.54,0.58
				c0.01-0.3,0.01-0.61,0.02-0.91L26.92,295.21z"/>
			<path class="st3" d="M24.51,341.98l6.73,0.6c0.08-3.82,0.16-7.82,0.25-11.97l-3.77,0.01L24.51,341.98z"/>
			<path class="st3" d="M23.2,342.79l3.68-13.07l4.62-0.02c0.01-0.31,0.01-0.62,0.02-0.93l-4.71,0.01c-0.44,0.02-0.8,0.26-0.91,0.64
				l-3.69,13.08c-0.07,0.27-0.01,0.57,0.19,0.8l0.56,0.37l0.21,0.04l8.03,0.72c0.01-0.31,0.01-0.61,0.02-0.92L23.2,342.79z"/>
			<path class="st3" d="M24.51,341.98l3.2-11.36l3.77-0.01c0.01-0.3,0.01-0.61,0.02-0.91l-4.62,0.02l-3.68,13.07l8.02,0.71
				c0.01-0.3,0.01-0.61,0.02-0.92L24.51,341.98z"/>
			<path class="st3" d="M315.06,362.81c-5.6-5.3-137.37-129.73-152.57-139.13c-6.7-4.15-10.59-5.22-12.38-3.46
				c-1.49,1.46-1.04,4.53,1.48,9.95c2.38,5.19-2.88,10.04-2.93,10.09c-34.43,27-48.74,96.62-57.29,138.2
				c-1.08,5.27-2.05,10-2.94,14.08c-4.45,20.1-10.94,32.44-19.28,36.62c-5.32,2.68-11.46,2.19-18.76-1.4
				c-17.49-8.67-18.1-36.96-18.11-37.25c0.02-0.73,0.41-18.67,0.98-45.89l-1.01-0.09c-0.58,27.8-0.98,45.91-0.98,45.91
				s0.42,29.07,18.67,38.12c18.26,9.05,31.64-0.29,39.49-35.77c7.84-35.47,21.32-121.52,59.99-151.85c0,0,5.78-5.24,3.12-11.05
				c-2.67-5.8-5.85-14.89,9.42-5.45c15.28,9.45,152.4,138.99,152.4,138.99s10.82,10.05-5.44,6.61
				c-16.24-3.43-38.48-13.63-50.81,17.39c-12.33,31.04-36.28,159.35-108.47,176.22c-0.58,0.14-1.17,0.25-1.76,0.38h4.11
				c58.58-15.57,85.03-104.13,99.31-151.99c3.14-10.5,5.61-18.79,7.77-24.22c10.56-26.6,28.1-22.2,43.58-18.34
				c2.1,0.53,4.15,1.04,6.1,1.46c5.7,1.21,8.84,0.96,9.85-0.8C320.04,367.62,315.9,363.59,315.06,362.81z"/>
			<path class="st3" d="M0,504.01v2.01c2.82,4.91,5.97,9.6,9.48,14.06c15.77,20.1,38.15,34.78,64.68,42.45l0.01,0
				c1.83,0.53,3.69,1.01,5.55,1.47h4.08C49.81,556.59,18.24,537.09,0,504.01z"/>
			<path class="st3" d="M36.06,57.52c0.6,7.88,0.39,41.42-0.18,84.38l1.01,0c0.58-42.98,0.78-76.52,0.18-84.36
				C35.5,36.64,10.86,25.47,0,21.55v0.96C10.77,26.46,34.53,37.41,36.06,57.52z"/>
			<path class="st3" d="M35.21,186.5l1.01,0c0.16-9.88,0.31-19.58,0.45-28.96l-1.01-0.09C35.53,166.86,35.37,176.59,35.21,186.5z"/>
			<path class="st3" d="M32.55,328.77l1.01,0c0.2-9.65,0.41-20.09,0.63-31.08l-1.01-0.09C32.96,308.62,32.75,319.09,32.55,328.77z"
				/>
			<path class="st3" d="M33.49,281.98l1.01,0c0.21-11.03,0.43-22.46,0.65-34.05l-1.01-0.09C33.92,259.46,33.7,270.92,33.49,281.98z"
				/>
			<path class="st3" d="M34.42,232.22l1.01,0c0.18-10.1,0.36-20.25,0.53-30.3l-1.01-0.09C34.79,211.91,34.61,222.09,34.42,232.22z"
				/>
			<path class="st3" d="M36.7,155.71c0.06-4.06,0.11-8.05,0.17-11.97l-1.01,0c-0.05,3.89-0.11,7.85-0.17,11.88L36.7,155.71z"/>
			<path class="st3" d="M35.68,156.53c0,0.31-0.01,0.61-0.01,0.92l1.01,0.09c0-0.31,0.01-0.61,0.01-0.92L35.68,156.53z"/>
			<path class="st3" d="M35.87,142.82l1.01,0c0-0.31,0.01-0.62,0.01-0.92l-1.01,0C35.88,142.21,35.87,142.51,35.87,142.82z"/>
			<path class="st3" d="M36.87,143.74c0-0.31,0.01-0.62,0.01-0.92l-1.01,0c0,0.31-0.01,0.62-0.01,0.92L36.87,143.74z"/>
			<path class="st3" d="M35.69,155.62c0,0.3-0.01,0.6-0.01,0.91l1.01,0.09c0-0.3,0.01-0.61,0.01-0.91L35.69,155.62z"/>
			<path class="st3" d="M36,200.1c0.07-3.94,0.13-7.86,0.2-11.75l-1.01,0c-0.06,3.86-0.13,7.75-0.19,11.66L36,200.1z"/>
			<path class="st3" d="M35.2,187.43l1.01,0c0.01-0.31,0.01-0.62,0.02-0.92l-1.01,0C35.21,186.81,35.2,187.12,35.2,187.43z"/>
			<path class="st3" d="M34.97,200.92c-0.01,0.3-0.01,0.61-0.02,0.91l1.01,0.09c0.01-0.3,0.01-0.61,0.02-0.91L34.97,200.92z"/>
			<path class="st3" d="M34.99,200.01c-0.01,0.3-0.01,0.61-0.02,0.92l1.01,0.09c0.01-0.31,0.01-0.61,0.02-0.92L34.99,200.01z"/>
			<path class="st3" d="M36.2,188.34c0.01-0.31,0.01-0.61,0.02-0.92l-1.01,0c-0.01,0.31-0.01,0.61-0.02,0.92L36.2,188.34z"/>
			<path class="st3" d="M35.18,246.1c0.07-4,0.15-8.02,0.22-12.05l-1.01,0c-0.07,4-0.15,7.98-0.22,11.95L35.18,246.1z"/>
			<path class="st3" d="M34.41,233.14l1.01,0c0.01-0.31,0.01-0.61,0.02-0.92l-1.01,0C34.42,232.53,34.41,232.83,34.41,233.14z"/>
			<path class="st3" d="M34.15,246.92c-0.01,0.31-0.01,0.62-0.02,0.92l1.01,0.09c0.01-0.31,0.01-0.62,0.02-0.92L34.15,246.92z"/>
			<path class="st3" d="M34.17,246.01c-0.01,0.3-0.01,0.61-0.02,0.91l1.01,0.09c0.01-0.3,0.01-0.61,0.02-0.91L34.17,246.01z"/>
			<path class="st3" d="M35.4,234.05c0.01-0.31,0.01-0.61,0.02-0.92l-1.01,0c-0.01,0.31-0.01,0.61-0.02,0.92L35.4,234.05z"/>
			<path class="st3" d="M34.23,295.86c0.08-3.95,0.16-7.96,0.24-12.03l-1.01,0c-0.08,4.04-0.16,8.02-0.23,11.94L34.23,295.86z"/>
			<path class="st3" d="M33.47,282.91l1.01,0c0.01-0.31,0.01-0.62,0.02-0.93l-1.01,0C33.48,282.29,33.48,282.6,33.47,282.91z"/>
			<path class="st3" d="M33.2,296.68c-0.01,0.31-0.01,0.61-0.02,0.92l1.01,0.09c0.01-0.31,0.01-0.61,0.02-0.92L33.2,296.68z"/>
			<path class="st3" d="M33.22,295.77c-0.01,0.3-0.01,0.61-0.02,0.91l1.01,0.09c0.01-0.3,0.01-0.61,0.02-0.91L33.22,295.77z"/>
			<path class="st3" d="M34.47,283.83c0.01-0.31,0.01-0.61,0.02-0.92l-1.01,0c-0.01,0.31-0.01,0.61-0.02,0.92L34.47,283.83z"/>
			<path class="st3" d="M33.28,342.77c0.08-3.88,0.16-7.94,0.25-12.16l-1.01,0c-0.09,4.19-0.17,8.22-0.25,12.07L33.28,342.77z"/>
			<path class="st3" d="M32.25,343.6c-0.01,0.3-0.01,0.61-0.02,0.92l1.01,0.09c0.01-0.31,0.01-0.61,0.02-0.92L32.25,343.6z"/>
			<path class="st3" d="M32.53,329.7l1.01,0c0.01-0.31,0.01-0.62,0.02-0.93l-1.01,0C32.55,329.08,32.54,329.39,32.53,329.7z"/>
			<path class="st3" d="M32.27,342.68c-0.01,0.31-0.01,0.61-0.02,0.92l1.01,0.09c0.01-0.3,0.01-0.61,0.02-0.92L32.27,342.68z"/>
			<path class="st3" d="M33.53,330.61c0.01-0.31,0.01-0.61,0.02-0.91l-1.01,0c-0.01,0.3-0.01,0.61-0.02,0.91L33.53,330.61z"/>
			<path class="st3" d="M0,63.04v24.25c0.56-9.79,0.89-15.49,0.91-15.86C0.92,71.36,1.2,67.92,0,63.04z"/>
			<path class="st3" d="M83.8,564h4.49c-4.61-0.86-9.17-1.93-13.63-3.22v0.01c-26.08-7.55-48.05-21.95-63.54-41.67
				C6.9,513.75,3.21,508.04,0,502.01v2C18.24,537.09,49.81,556.59,83.8,564z"/>
			<path class="st3" d="M30.21,390.34c0.02,1.24,0.67,29.76,19.28,38.99c7.88,3.93,14.86,4.4,20.74,1.45
				c8.97-4.51,15.56-16.86,20.19-37.77c0.9-4.06,1.88-8.82,2.96-14.07c8.51-41.39,22.74-110.64,56.74-137.31
				c0.3-0.26,6.25-5.75,3.35-12.04c-2.72-5.9-2.3-7.6-1.81-8.07c0.46-0.44,1.59-0.25,2.43,0c1.77,0.51,4.25,1.74,7.33,3.65
				c15,9.28,150.85,137.57,152.21,138.85c1.61,1.49,3.71,4.16,3.13,5.15c-0.18,0.33-1.31,1.31-7.69-0.04
				c-1.93-0.4-3.95-0.92-6.02-1.43c-15.49-3.87-34.79-8.71-45.92,19.36c-2.18,5.5-4.68,13.82-7.83,24.37
				c-14.34,48.07-41.04,137.52-100.01,151.31c-2.01,0.47-4.04,0.88-6.08,1.26h4.66c0.59-0.13,1.18-0.24,1.76-0.38
				c72.19-16.87,96.13-145.19,108.47-176.22c12.33-31.02,34.57-20.82,50.81-17.39c16.26,3.44,5.44-6.61,5.44-6.61
				s-137.11-129.54-152.4-138.99c-15.27-9.44-12.09-0.35-9.42,5.45c2.66,5.81-3.12,11.05-3.12,11.05
				c-38.67,30.33-52.15,116.39-59.99,151.85c-7.84,35.48-21.23,44.82-39.49,35.77c-18.26-9.05-18.67-38.12-18.67-38.12
				s0.4-18.11,0.98-45.91l-1.03-0.09C30.63,371.66,30.23,389.61,30.21,390.34z"/>
			<path class="st3" d="M35.03,57.52c0.6,7.82,0.39,41.38-0.19,84.39l1.04,0c0.57-42.96,0.78-76.5,0.18-84.38
				C34.53,37.41,10.77,26.46,0,22.51v0.96C10.77,27.44,33.56,38.12,35.03,57.52z"/>
			<path class="st3" d="M34.14,247.84l-1.03-0.09c-0.22,11.65-0.44,23.14-0.65,34.23l1.04,0C33.7,270.92,33.92,259.46,34.14,247.84z
				"/>
			<path class="st3" d="M34.96,201.83l-1.04-0.09c-0.17,10.11-0.35,20.32-0.53,30.48l1.04,0C34.61,222.09,34.79,211.91,34.96,201.83
				z"/>
			<path class="st3" d="M33.18,297.6l-1.03-0.09c-0.22,11.05-0.43,21.56-0.63,31.26l1.04,0C32.75,319.09,32.96,308.62,33.18,297.6z"
				/>
			<path class="st3" d="M35.66,157.45l-1.04-0.09c-0.14,9.43-0.29,19.2-0.45,29.15l1.04,0C35.37,176.59,35.53,166.86,35.66,157.45z"
				/>
			<path class="st3" d="M35.69,155.62c0.06-4.03,0.11-7.99,0.17-11.88l-1.04,0c-0.05,3.86-0.11,7.79-0.17,11.78L35.69,155.62z"/>
			<path class="st3" d="M35.68,156.53l-1.04-0.09c0,0.31-0.01,0.61-0.01,0.92l1.04,0.09C35.67,157.15,35.67,156.84,35.68,156.53z"/>
			<path class="st3" d="M35.87,142.82c0-0.31,0.01-0.61,0.01-0.92l-1.04,0c0,0.31-0.01,0.61-0.01,0.92L35.87,142.82z"/>
			<path class="st3" d="M34.65,155.53c0,0.3-0.01,0.61-0.01,0.91l1.04,0.09c0-0.3,0.01-0.61,0.01-0.91L34.65,155.53z"/>
			<path class="st3" d="M34.82,143.75l1.04,0c0-0.31,0.01-0.62,0.01-0.92l-1.04,0C34.83,143.13,34.82,143.44,34.82,143.75z"/>
			<path class="st3" d="M34.99,200.01c0.07-3.91,0.13-7.8,0.19-11.66l-0.22,0l-0.87,3.06c-0.05,2.82-0.09,5.66-0.14,8.51
				L34.99,200.01z"/>
			<path class="st3" d="M34.97,200.92l-1.04-0.09c-0.01,0.3-0.01,0.61-0.02,0.91l1.04,0.09C34.96,201.53,34.97,201.23,34.97,200.92z
				"/>
			<path class="st3" d="M35.2,187.43c0.01-0.31,0.01-0.62,0.02-0.92l-1.04,0c-0.01,0.31-0.01,0.62-0.02,0.92L35.2,187.43z"/>
			<path class="st3" d="M34.1,191.41l0.87-3.06l0.22,0c0.01-0.31,0.01-0.61,0.02-0.92l-1.04,0
				C34.14,188.75,34.12,190.08,34.1,191.41z"/>
			<path class="st3" d="M33.95,199.92c-0.01,0.3-0.01,0.61-0.02,0.91l1.04,0.09c0.01-0.3,0.01-0.61,0.02-0.92L33.95,199.92z"/>
			<path class="st3" d="M34.17,246.01c0.07-3.97,0.15-7.96,0.22-11.95l-1.04,0c-0.07,3.96-0.14,7.92-0.22,11.86L34.17,246.01z"/>
			<path class="st3" d="M34.41,233.14c0.01-0.31,0.01-0.61,0.02-0.92l-1.04,0c-0.01,0.31-0.01,0.61-0.02,0.92L34.41,233.14z"/>
			<path class="st3" d="M34.15,246.92l-1.03-0.09c-0.01,0.31-0.01,0.62-0.02,0.92l1.03,0.09C34.14,247.54,34.15,247.23,34.15,246.92
				z"/>
			<path class="st3" d="M33.14,245.92c-0.01,0.3-0.01,0.61-0.02,0.91l1.03,0.09c0.01-0.3,0.01-0.61,0.02-0.91L33.14,245.92z"/>
			<path class="st3" d="M33.35,234.06l1.04,0c0.01-0.31,0.01-0.61,0.02-0.92l-1.04,0C33.37,233.45,33.36,233.75,33.35,234.06z"/>
			<path class="st3" d="M33.22,295.77c0.08-3.92,0.16-7.9,0.23-11.94l-1.04,0c-0.08,4.01-0.16,7.95-0.23,11.84L33.22,295.77z"/>
			<path class="st3" d="M33.2,296.68l-1.03-0.09c-0.01,0.31-0.01,0.62-0.02,0.92l1.03,0.09C33.19,297.29,33.19,296.98,33.2,296.68z"
				/>
			<path class="st3" d="M33.47,282.91c0.01-0.31,0.01-0.62,0.02-0.93l-1.04,0c-0.01,0.31-0.01,0.62-0.02,0.93L33.47,282.91z"/>
			<path class="st3" d="M32.18,295.68c-0.01,0.3-0.01,0.61-0.02,0.91l1.03,0.09c0.01-0.3,0.01-0.61,0.02-0.91L32.18,295.68z"/>
			<path class="st3" d="M32.42,283.83l1.04,0c0.01-0.31,0.01-0.61,0.02-0.92l-1.04,0C32.43,283.22,32.42,283.53,32.42,283.83z"/>
			<path class="st3" d="M32.27,342.68c0.08-3.85,0.16-7.88,0.25-12.07l-1.04,0c-0.09,4.15-0.17,8.15-0.25,11.97L32.27,342.68z"/>
			<path class="st3" d="M31.21,343.51c-0.01,0.31-0.01,0.61-0.02,0.92l1.03,0.09c0.01-0.3,0.01-0.61,0.02-0.92L31.21,343.51z"/>
			<path class="st3" d="M32.53,329.7c0.01-0.31,0.01-0.62,0.02-0.93l-1.04,0c-0.01,0.31-0.01,0.62-0.02,0.93L32.53,329.7z"/>
			<path class="st3" d="M31.23,342.59c-0.01,0.31-0.01,0.62-0.02,0.92l1.03,0.09c0.01-0.31,0.01-0.61,0.02-0.92L31.23,342.59z"/>
			<path class="st3" d="M31.48,330.61l1.04,0c0.01-0.3,0.01-0.61,0.02-0.91l-1.04,0C31.49,330.01,31.49,330.31,31.48,330.61z"/>
			<path class="st0" d="M144.3,520.29c32.87-12.13,45.58-53.32,55-81.42c6.18-18.41,11.21-37.1,16.77-55.71
				c3.37-11.3,7.68-36.66,22.17-40.65c1.43-0.39-0.32-2.7-1.44-2.75c-13.24-0.38-20.1,15.48-24.62,24.3
				c-8.89,17.4-15.74,35.42-22.03,53.85c-5.75,16.84-11.58,33.75-19.74,49.65c-8.56,16.67-20.96,30.51-31.28,46.11
				C137.5,516.14,140.66,521.66,144.3,520.29z"/>
			<path class="st0" d="M117.1,524.16c0.95-1.38-1.05-5.1-3.14-4.03c-2.27,1.16-4.73,0.96-7.32,0.91c-1.37-0.02-2.75-0.16-4.07-0.59
				c-1.06-0.34-2.04-0.83-3.16-0.55c-3.3,0.78-1.96,4.38-0.32,6.32C103.77,531.87,113.91,528.87,117.1,524.16z"/>
			<path class="st0" d="M19.02,68.68c2.45-10.33-1.05-26.7-13.35-31.86c-2.32-0.98-1.62,1.98-0.57,2.85
				c9.25,7.68,5.41,17.71,8.61,27.12C14.21,68.3,18.33,71.57,19.02,68.68z"/>
		</g>
	</g>
</g>
<g id="Calque_1">
	<g class="st1">
		<g>
			<path d="M405.54,128.97c-2.92-57.9-52.22-102.47-110.12-99.55c-57.9,2.92-102.47,52.22-99.55,110.12
				c2.92,57.9,52.22,102.47,110.12,99.55c17.16-0.87,33.16-5.81,47.09-13.84l-26.9-38.44l-39.51-56.91l72.44,0.94l37.61-0.2v-0.38
				v0.38l8.82-0.05C405.54,129.78,405.54,129.01,405.54,128.97z"/>
			<path d="M405.55,130.59L405.55,130.59C404.22,128.92,405.55,130.59,405.55,130.59z"/>
		</g>
		<g>
			<path class="st5" d="M288.72,130.22l44.2,0.25c0,1.52,0-1.46,0-1.5c-0.9-17.79-16.05-30.49-33.84-29.59
				c-17.79,0.9-31.49,16.05-30.59,33.84c0.9,17.79,16.07,31.86,33.84,30.59c4.46-0.32,5.8-0.42,7.09-1.15L288.72,130.22z"/>
		</g>
		<rect x="309.72" y="133.25" class="st4" width="84" height="28"/>
		<text transform="matrix(1 0 0 1 309.7207 158.3137)" class="st6 st7">rock</text>
		<rect x="379.72" y="139.25" class="st4" width="84" height="28"/>
		<text transform="matrix(1 0 0 1 379.7207 155.7219)" class="st8 st9">pop</text>
		<text transform="matrix(1 0 0 1 422.7207 152.2541)" class="st10 st6 st11">electro</text>
		<text transform="matrix(0.6332 -0.774 0.774 0.6332 514.7854 144.2504)" class="st6 st12">classique</text>
		<text transform="matrix(0.6433 -0.7656 0.7656 0.6433 597.6953 37.6579)" class="st6 st12">jazz</text>
		<text transform="matrix(1 0 0 1 523.2207 152.2541)" class="st6 st13">blues</text>
		<text transform="matrix(1 0 0 1 379.7207 255.2542)" class="st14 st8 st15">punk</text>
		<text transform="matrix(0.9997 0.0237 -0.0237 0.9997 331.4247 194.1978)" class="st10 st6 st16">funk</text>
		<text transform="matrix(1 0 0 1 348.2207 211.7541)" class="st8 st15">rap</text>
		<text transform="matrix(1 0 0 1 393.7207 211.7541)" class="st6 st15">techno</text>
		<text transform="matrix(1 0 0 1 397.2207 280.8943)" class="st6 st17">k-pop</text>
		<text transform="matrix(1 0 0 1 438.7207 193.1745)" class="st18 st8 st19">indie</text>
		<text transform="matrix(1 0 0 1 471.3047 215.8943)" class="st8 st20">disco</text>
		<text transform="matrix(1 0 0 1 458.7207 262.3943)" class="st8 st9">folk</text>
		<text transform="matrix(1 0 0 1 414.7207 302.2542)" class="st8 st21">soul</text>
		<text transform="matrix(1 0 0 1 364.2207 234.2541)" class="st6 st9">hiphop</text>
		<text transform="matrix(1 0 0 1 437.7207 239.7541)" class="st10 st6 st22">reggae</text>
		<path class="st0" d="M434.71,522.07c-0.68-0.61-7.08,5.39-14.29,13.42c-7.21,8.02-12.5,15.03-11.82,15.64
			c0.68,0.61,7.08-5.39,14.29-13.42C430.11,529.69,435.4,522.69,434.71,522.07z"/>
		<path class="st0" d="M437.26,419.59c0,47.5,1.03,87.17,0,87.17c-1.03,0-1.87-38.5-1.87-86s0.84-86,1.87-86
			C438.29,334.75,437.26,372.09,437.26,419.59z"/>
		<path class="st4" d="M265.93,69.92c-11.98,6.96-18.13,16.25-17.45,17.69c0.68,1.45,6.15-9.12,20.37-16.92
			c12.15-6.66,22.91-6,22.88-8.18C291.71,60.92,278.36,62.7,265.93,69.92z"/>
		<path class="st4" d="M303.75,210.18c13.85-0.38,23.7-5.59,23.79-7.19c0.09-1.6-9.77,5.07-25.98,5.11
			c-13.85,0.03-22.99-5.69-24-3.76C276.8,205.76,289.38,210.58,303.75,210.18z"/>
		<g>
			<path class="st23" d="M296.56,42.41c-38.05,1.92-69.52,26.69-81.8,60.36 M330.16,46.95c-3.02-1-6.11-1.85-9.25-2.54
				 M374.13,78.23c-11.12-14.45-26.41-25.45-43.97-31.28 M263.14,218c12.96,5.9,27.48,8.87,42.68,8.1 M242.3,204.89
				c6.3,5.25,13.3,9.67,20.84,13.1 M209.34,138.88c0.89,17.7,6.73,33.99,16.12,47.57"/>
		</g>
		<g>
			<path class="st23" d="M238.1,74.59c-15.71,16.62-24.88,39.38-23.63,64.03 M318.73,49.2c-7.05-1.45-14.4-2.04-21.92-1.66
				 M385.04,111.68c-7.65-28.53-29.38-51.01-56.95-60 M230.14,184.18c12.99,18.45,32.94,31.52,55.83,35.57 M222.7,171.44
				c2.12,4.48,4.62,8.74,7.44,12.75"/>
		</g>
		<g>
			<path class="st23" d="M230.88,95.38c-7.02,12.67-10.7,27.39-9.92,42.92 M297.14,54.03c-28.78,1.45-53.25,17.87-66.26,41.35
				 M354.86,74.5c-8.23-7.39-17.97-13.09-28.68-16.6 M239.39,185.58c15.62,18.77,39.57,30.22,65.84,28.89
				c3.93-0.2,7.77-0.67,11.52-1.41 M235.16,180.02c1.33,1.92,2.74,3.77,4.23,5.56"/>
		</g>
		<g>
			<path id="SVGID_x5F_1_x5F_" class="st4" d="M326.01,175.57c-6.73,3.88-14.46,6.27-22.75,6.69c-27.97,1.41-51.79-20.12-53.2-48.09
				c-1.41-27.97,20.12-51.79,48.09-53.2c27.97-1.41,51.79,20.12,53.2,48.09c0,0.06,0.01,3.16,0.01,0.78l-22.43,0.12l-34.99-0.45
				l19.08,27.49L326.01,175.57z"/>
			<text>			<textPath  xlink:href="#SVGID_x5F_1_x5F_" startOffset="2032.0773%">
<tspan  class="st8" style="fill:#FFFFFF;stroke:#000000;stroke-miterlimit:10; font-size:53px; letter-spacing:1;">Musicolada</tspan>			</textPath>
</text>
		</g>
		<path class="st24" d="M595.32,67.9c-6.83,11.69-19.54,16.98-28.38,11.81c-8.84-5.17-10.47-18.83-3.63-30.52
			c6.83-11.69,19.54-16.98,28.38-11.81C600.52,42.55,602.15,56.21,595.32,67.9z"/>
		<path class="st0" d="M569.22,45.25c-5.43,5.76-6.88,12.46-5.94,13.34c0.94,0.89,3.01-4.69,8.44-10.45
			c5.43-5.76,12.17-9.52,11.23-10.41C582.01,36.85,574.65,39.49,569.22,45.25z"/>
		<polygon points="572.33,499.01 399.96,564.91 363.11,491.15 		"/>
		<polygon class="st24" points="531.39,506.44 408.27,553.52 381.94,500.83 		"/>
		<polygon points="466.39,527.26 398.29,521.92 427.58,506.92 427.58,305.94 443.58,305.94 443.58,506.76 		"/>
		<path class="st0" d="M430.7,417.45c0,52.79,1.03,96.88,0,96.88c-1.03,0-1.87-42.79-1.87-95.58c0-52.79,0.84-95.58,1.87-95.58
			C431.73,323.17,430.7,364.67,430.7,417.45z"/>
	</g>
</g>
<g id="Calque_3" class="st25">
	<rect x="-14" y="-9.16" class="st26" width="815" height="585.91"/>
</g>
</svg>
