<?xml version="1.0" encoding="utf-8"?>
<!-- Generator: Adobe Illustrator 24.1.2, SVG Export Plug-In . SVG Version: 6.00 Build 0)  -->
<svg version="1.1" id="Calque_1" xmlns="http://www.w3.org/2000/svg" xmlns:xlink="http://www.w3.org/1999/xlink" x="0px" y="0px"
	 viewBox="0 0 82.48 99.97" style="enable-background:new 0 0 82.48 99.97;" xml:space="preserve">
<style type="text/css">
	.st0{stroke:#FFFFFF;stroke-miterlimit:10;}
	.st1{fill:#E52420;}
	.st2{fill:none;stroke:#FFFFFF;stroke-miterlimit:10;}
	.st3{fill:#FFE212;}
	.st4{fill:#1C5427;}
	.st5{fill:#FFFFFF;}
</style>
<g>
	<polygon class="st0" points="23.57,6.26 6.4,6.26 6.4,92.86 23.57,92.86 78.57,49.56 	"/>
	<polygon class="st1" points="30.54,19.88 67.19,49.56 30.54,79.24 	"/>
	<line class="st2" x1="23.57" y1="6.26" x2="23.57" y2="92.86"/>
	<polygon class="st3" points="35.99,30.85 57.32,49.56 35.99,68.27 	"/>
	<polygon class="st4" points="39.99,40.47 50.73,49.56 39.99,58.65 	"/>
	<ellipse class="st5" cx="8.82" cy="48.94" rx="0.92" ry="39.75"/>
	<path class="st5" d="M50.21,30.44C37.45,20.2,26.96,12.07,26.79,12.29c-0.17,0.22,10.03,8.69,22.8,18.93
		c12.76,10.24,23.25,18.37,23.42,18.15C73.18,49.15,62.97,40.67,50.21,30.44z"/>
	<path class="st5" d="M46.65,39.35c0,0.37,2.37,0.67,5.29,0.67c2.92,0,5.29-0.3,5.29-0.67c0-0.37-2.37-0.67-5.29-0.67
		C49.02,38.69,46.65,38.99,46.65,39.35z"/>
	<path class="st5" d="M43.82,49.86c0,0.27-2.01,0.49-4.5,0.49c-2.49,0-4.5-0.22-4.5-0.49s2.01-0.49,4.5-0.49
		C41.81,49.37,43.82,49.59,43.82,49.86z"/>
	<path class="st5" d="M38.16,48.94c0,0.71-0.58,1.29-1.29,1.29c-0.71,0-1.29-0.58-1.29-1.29c0-0.71,0.58-1.29,1.29-1.29
		C37.58,47.65,38.16,48.22,38.16,48.94z"/>
</g>
</svg>
