<?xml version="1.0" encoding="utf-8"?>
<!-- Generator: Adobe Illustrator 24.1.2, SVG Export Plug-In . SVG Version: 6.00 Build 0)  -->
<svg version="1.1" xmlns="http://www.w3.org/2000/svg" xmlns:xlink="http://www.w3.org/1999/xlink" x="0px" y="0px"
	 viewBox="0 0 62.52 61.2" style="enable-background:new 0 0 62.52 61.2;" xml:space="preserve">
<style type="text/css">
	.st0{display:none;}
	.st1{display:inline;}
	.st2{fill:#FDEDEC;}
	.st3{fill:#FAB711;stroke:#FFFFFF;stroke-miterlimit:10;}
	.st4{fill:#FFFFFF;}
	.st5{fill:#FAB711;}
	.st6{fill:none;stroke:#010202;stroke-width:0.25;stroke-miterlimit:10;}
	.st7{fill:#1D1D1C;stroke:#FFFFFF;stroke-miterlimit:10;}
	.st8{fill:#1D1D1C;}
	.st9{stroke:#FFFFFF;stroke-miterlimit:10;}
	.st10{fill:none;stroke:#FFFFFF;stroke-miterlimit:10;}
	.st11{fill:#FFFFFF;stroke:#000000;stroke-miterlimit:10;}
	.st12{fill:none;stroke:#000000;stroke-miterlimit:10;}
	.st13{stroke:#FFFFFF;stroke-width:3;stroke-miterlimit:10;}
	.st14{display:inline;fill:#FFFFFF;stroke:#000000;stroke-miterlimit:10;}
</style>
<g id="Calque_1" class="st0">
	<g class="st1">
		<path class="st2" d="M56.58,48.75c0,3.13-2.54,5.67-5.67,5.67H13.32c-3.13,0-5.67-2.54-5.67-5.67V11.16
			c0-3.13,2.54-5.67,5.67-5.67h37.59c3.13,0,5.67,2.54,5.67,5.67V48.75z"/>
		<path d="M54.83,47.75c0,3.13-2.54,5.67-5.67,5.67H11.57c-3.13,0-5.67-2.54-5.67-5.67V10.16c0-3.13,2.54-5.67,5.67-5.67h37.59
			c3.13,0,5.67,2.54,5.67,5.67V47.75z"/>
		<path class="st3" d="M26.07,48V27.97h-5.15v-5.72h5.15c0,0-1.04-6.12,3.29-10.45c1.99-1.99,5.98-3,10.45-3v5.29
			c0,0-6.3,0-6.3,3.72c0,3.15,0,4.72,0,4.72h6.3v5.44h-5.72L34.23,48H26.07z"/>
		<path class="st4" d="M51.16,8.81c-1.7-2.04-4.71-1.85-3.95-2.47c0.76-0.62,3.61,0.61,4.66,1.89c1.34,1.65,1.69,4.08,0.93,4.7
			C52.03,13.55,52.82,10.81,51.16,8.81z"/>
		<path class="st4" d="M9.69,8.81c1.7-2.04,4.71-1.85,3.95-2.47c-0.76-0.62-3.61,0.61-4.66,1.89c-1.34,1.65-1.69,4.08-0.93,4.7
			C8.81,13.55,8.02,10.81,9.69,8.81z"/>
		<path class="st4" d="M51.16,48.39c-1.7,2.04-4.71,1.85-3.95,2.47c0.76,0.62,3.61-0.61,4.66-1.89c1.34-1.65,1.69-4.08,0.93-4.7
			C52.03,43.64,52.82,46.39,51.16,48.39z"/>
		<path class="st4" d="M9.69,48.39c1.7,2.04,4.71,1.85,3.95,2.47c-0.76,0.62-3.61-0.61-4.66-1.89c-1.34-1.65-1.69-4.08-0.93-4.7
			C8.81,43.64,8.02,46.39,9.69,48.39z"/>
		<path class="st4" d="M17.88,51.4c0,0.13,5.59,0.23,12.48,0.23c6.89,0,12.48-0.1,12.48-0.23c0-0.13-5.59-0.23-12.48-0.23
			C23.47,51.17,17.88,51.27,17.88,51.4z"/>
		<path class="st4" d="M7.86,16.42c-0.13,0-0.23,5.59-0.23,12.48c0,6.89,0.1,12.48,0.23,12.48c0.13,0,0.23-5.59,0.23-12.48
			C8.09,22.01,7.99,16.42,7.86,16.42z"/>
	</g>
</g>
<g id="Calque_2" class="st0">
	<g class="st1">
		<path class="st2" d="M56.58,48.75c0,3.13-2.54,5.67-5.67,5.67H13.32c-3.13,0-5.67-2.54-5.67-5.67V11.16
			c0-3.13,2.54-5.67,5.67-5.67h37.59c3.13,0,5.67,2.54,5.67,5.67V48.75z"/>
		<path d="M54.83,47.75c0,3.13-2.54,5.67-5.67,5.67H11.57c-3.13,0-5.67-2.54-5.67-5.67V10.16c0-3.13,2.54-5.67,5.67-5.67h37.59
			c3.13,0,5.67,2.54,5.67,5.67V47.75z"/>
		<path class="st4" d="M51.16,8.81c-1.7-2.04-4.71-1.85-3.95-2.47c0.76-0.62,3.61,0.61,4.66,1.89c1.34,1.65,1.69,4.08,0.93,4.7
			C52.03,13.55,52.83,10.81,51.16,8.81z"/>
		<path class="st4" d="M9.69,8.81c1.7-2.04,4.71-1.85,3.95-2.47c-0.76-0.62-3.61,0.61-4.66,1.89c-1.34,1.65-1.69,4.08-0.93,4.7
			C8.81,13.55,8.02,10.81,9.69,8.81z"/>
		<path class="st4" d="M51.16,48.39c-1.7,2.04-4.71,1.85-3.95,2.47c0.76,0.62,3.61-0.61,4.66-1.89c1.34-1.65,1.69-4.08,0.93-4.7
			C52.03,43.64,52.83,46.39,51.16,48.39z"/>
		<path class="st4" d="M9.69,48.39c1.7,2.04,4.71,1.85,3.95,2.47c-0.76,0.62-3.61-0.61-4.66-1.89c-1.34-1.65-1.69-4.08-0.93-4.7
			C8.81,43.64,8.02,46.39,9.69,48.39z"/>
		<path class="st4" d="M17.88,51.4c0,0.13,5.59,0.23,12.48,0.23c6.89,0,12.48-0.1,12.48-0.23c0-0.13-5.59-0.23-12.48-0.23
			C23.47,51.17,17.88,51.27,17.88,51.4z"/>
		<path class="st4" d="M7.86,16.42c-0.13,0-0.23,5.59-0.23,12.48c0,6.89,0.1,12.48,0.23,12.48c0.13,0,0.23-5.59,0.23-12.48
			C8.09,22.01,7.99,16.42,7.86,16.42z"/>
		<path class="st3" d="M47.9,14.23c0,0-3.61,1.63-4.73,1.81c-0.34-0.43-3.87-3.95-8.68-1.81c-4.81,2.15-4.73,5.93-4.81,8.68
			c-1.29,0-7.91-0.17-15.39-8.08c-0.69,0.69-3.61,6.62,1.55,10.23c-1.03-0.09-2.99-0.77-2.99-0.77c0.42,2.32,1.36,6.53,5.92,7.74
			c-1.55,0.09-3.01,0-3.01,0c0.69,1.81,1.55,4.21,6.53,5.67c-1.2,0.77-1.38,1.72-10.75,2.75c0.6,0.69,12.64,9.89,27.68-2.49
			c4.3-4.3,7.05-10.15,6.28-16.59c1.63-1.2,3.61-2.84,3.7-3.96c-0.95,0.26-4.47,1.12-4.47,1.12C47.13,16.72,47.9,14.23,47.9,14.23z"
			/>
	</g>
</g>
<g id="Calque_3" class="st0">
	<g class="st1">
		<path class="st2" d="M56.58,48.75c0,3.13-2.54,5.67-5.67,5.67H13.32c-3.13,0-5.67-2.54-5.67-5.67V11.16
			c0-3.13,2.54-5.67,5.67-5.67h37.59c3.13,0,5.67,2.54,5.67,5.67V48.75z"/>
		<path class="st5" d="M54.83,47.75c0,3.13-2.54,5.67-5.67,5.67H11.57c-3.13,0-5.67-2.54-5.67-5.67V10.16
			c0-3.13,2.54-5.67,5.67-5.67h37.59c3.13,0,5.67,2.54,5.67,5.67V47.75z"/>
		<path class="st4" d="M51.16,8.81c-1.7-2.04-4.71-1.85-3.95-2.47c0.76-0.62,3.61,0.61,4.66,1.89c1.34,1.65,1.69,4.08,0.93,4.7
			C52.03,13.55,52.83,10.81,51.16,8.81z"/>
		<path class="st4" d="M9.69,8.81c1.7-2.04,4.71-1.85,3.95-2.47c-0.76-0.62-3.61,0.61-4.66,1.89c-1.34,1.65-1.69,4.08-0.93,4.7
			C8.81,13.55,8.02,10.81,9.69,8.81z"/>
		<path class="st4" d="M51.16,48.39c-1.7,2.04-4.71,1.85-3.95,2.47c0.76,0.62,3.61-0.61,4.66-1.89c1.34-1.65,1.69-4.08,0.93-4.7
			C52.03,43.64,52.83,46.39,51.16,48.39z"/>
		<path class="st4" d="M9.69,48.39c1.7,2.04,4.71,1.85,3.95,2.47c-0.76,0.62-3.61-0.61-4.66-1.89c-1.34-1.65-1.69-4.08-0.93-4.7
			S8.02,46.39,9.69,48.39z"/>
		<path class="st4" d="M17.88,51.4c0,0.13,5.59,0.23,12.48,0.23c6.89,0,12.48-0.1,12.48-0.23c0-0.13-5.59-0.23-12.48-0.23
			C23.47,51.17,17.88,51.27,17.88,51.4z"/>
		<path class="st4" d="M7.86,16.42c-0.13,0-0.23,5.59-0.23,12.48c0,6.89,0.1,12.48,0.23,12.48c0.13,0,0.23-5.59,0.23-12.48
			C8.1,22.01,7.99,16.42,7.86,16.42z"/>
		<g>
			<path class="st6" d="M42.18,35.35"/>
			<path class="st7" d="M22.3,16.38c0,2.37-1.92,4.29-4.29,4.29l0,0c-2.37,0-4.29-1.92-4.29-4.29l0,0c0-2.37,1.92-4.29,4.29-4.29
				l0,0C20.39,12.1,22.3,14.01,22.3,16.38L22.3,16.38z"/>
			<rect x="14.67" y="23.46" class="st7" width="7.64" height="22.36"/>
			<path class="st7" d="M25.66,23.46h6.89V27c0,0,0.56-3.54,6.52-3.54c0,0,7.92-0.08,7.92,7.55c0,8.94,0,14.81,0,14.81h-6.99V33.34
				c0,0,0.19-4.29-3.68-4.29c-3.17,0-3.94,2.56-3.94,3.94s0,12.83,0,12.83h-6.73V23.46z"/>
		</g>
	</g>
</g>
<g id="Calque_4" class="st0">
	<g class="st1">
		<path class="st2" d="M56.58,48.75c0,3.13-2.54,5.67-5.67,5.67H13.32c-3.13,0-5.67-2.54-5.67-5.67V11.16
			c0-3.13,2.54-5.67,5.67-5.67h37.59c3.13,0,5.67,2.54,5.67,5.67V48.75z"/>
		<path class="st5" d="M54.83,47.75c0,3.13-2.54,5.67-5.67,5.67H11.57c-3.13,0-5.67-2.54-5.67-5.67V10.16
			c0-3.13,2.54-5.67,5.67-5.67h37.59c3.13,0,5.67,2.54,5.67,5.67V47.75z"/>
		<path class="st4" d="M51.16,8.81c-1.7-2.04-4.71-1.85-3.95-2.47c0.76-0.62,3.61,0.61,4.66,1.89c1.34,1.65,1.69,4.08,0.93,4.7
			C52.03,13.55,52.83,10.81,51.16,8.81z"/>
		<path class="st4" d="M9.68,8.81c1.7-2.04,4.71-1.85,3.95-2.47c-0.76-0.62-3.61,0.61-4.66,1.89c-1.34,1.65-1.69,4.08-0.93,4.7
			C8.81,13.55,8.02,10.81,9.68,8.81z"/>
		<path class="st4" d="M51.16,48.39c-1.7,2.04-4.71,1.85-3.95,2.47c0.76,0.62,3.61-0.61,4.66-1.89c1.34-1.65,1.69-4.08,0.93-4.7
			C52.03,43.64,52.83,46.39,51.16,48.39z"/>
		<path class="st4" d="M9.68,48.39c1.7,2.04,4.71,1.85,3.95,2.47c-0.76,0.62-3.61-0.61-4.66-1.89c-1.34-1.65-1.69-4.08-0.93-4.7
			C8.81,43.64,8.02,46.39,9.68,48.39z"/>
		<path class="st4" d="M17.88,51.4c0,0.13,5.59,0.23,12.48,0.23c6.89,0,12.48-0.1,12.48-0.23c0-0.13-5.59-0.23-12.48-0.23
			C23.47,51.17,17.88,51.27,17.88,51.4z"/>
		<path class="st4" d="M7.86,16.42c-0.13,0-0.23,5.59-0.23,12.48c0,6.89,0.1,12.48,0.23,12.48c0.13,0,0.23-5.59,0.23-12.48
			C8.09,22.01,7.99,16.42,7.86,16.42z"/>
		<path class="st7" d="M30.88,11.95c-8.22-0.13-10.72,6.48-9.97,13.96c-1,0.5-4.24-1-4.49,0c-0.25,0.99-0.25,2.49,2.24,2.74
			c1.5,0.5,2.61,1.19,1.11,3.68c-2.99,5.56-7.52,4.91-7.66,6.17c0,0,0.47,1.87,3.04,1.87c0.98,0,1.68-0.47,2.01,0
			c0.33,0.47-0.28,2.1,0.56,2.52c0.84,0.42,2.45-0.56,3.77-0.37c1.32,0.19,2.49,0.28,6.09,2.99c0.65,0.56,2.66,0.47,3.29,0.47
			c0.63,0,3.48-0.93,4.88-1.87c1.4-0.93,1.92-1.68,3.69-1.59c1.78,0.09,2.62,0.7,3.41,0.23c0.79-0.47,0.19-1.82,0.66-2.15
			c0.47-0.33,4.95-0.33,5.09-2.24c0.05-0.67-1.5-0.38-3.55-1.5c-1.94-1.05-4.38-3.44-4.86-5.93c0,0-0.94-1.45,1.92-2.15
			c1.21-0.33,2.8-0.94,2.76-1.92c-0.05-0.98-1.08-1.22-1.64-1.08c-0.56,0.14-3.46,1.5-3.32-0.05
			C40.06,24.19,42.49,12.13,30.88,11.95z"/>
	</g>
</g>
<g id="Calque_5" class="st0">
	<g class="st1">
		<g>
			<g>
				<path class="st2" d="M56.58,48.75c0,3.13-2.54,5.67-5.67,5.67H13.32c-3.13,0-5.67-2.54-5.67-5.67V11.16
					c0-3.13,2.54-5.67,5.67-5.67h37.59c3.13,0,5.67,2.54,5.67,5.67V48.75z"/>
				<g>
					<path class="st8" d="M54.83,47.75c0,3.13-2.54,5.67-5.67,5.67H11.57c-3.13,0-5.67-2.54-5.67-5.67V10.16
						c0-3.13,2.54-5.67,5.67-5.67h37.59c3.13,0,5.67,2.54,5.67,5.67V47.75z"/>
					<path class="st4" d="M51.16,8.81c-1.7-2.04-4.71-1.85-3.95-2.47c0.76-0.62,3.61,0.61,4.66,1.89c1.34,1.65,1.69,4.08,0.93,4.7
						C52.03,13.55,52.83,10.81,51.16,8.81z"/>
					<path class="st4" d="M9.69,8.81c1.7-2.04,4.71-1.85,3.95-2.47c-0.76-0.62-3.61,0.61-4.66,1.89c-1.34,1.65-1.69,4.08-0.93,4.7
						C8.81,13.55,8.02,10.81,9.69,8.81z"/>
					<path class="st4" d="M51.16,48.39c-1.7,2.04-4.71,1.85-3.95,2.47c0.76,0.62,3.61-0.61,4.66-1.89c1.34-1.65,1.69-4.08,0.93-4.7
						C52.03,43.64,52.83,46.39,51.16,48.39z"/>
					<path class="st4" d="M9.69,48.39c1.7,2.04,4.71,1.85,3.95,2.47c-0.76,0.62-3.61-0.61-4.66-1.89c-1.34-1.65-1.69-4.08-0.93-4.7
						C8.81,43.64,8.02,46.39,9.69,48.39z"/>
					<path class="st4" d="M17.88,51.4c0,0.13,5.59,0.23,12.48,0.23c6.89,0,12.48-0.1,12.48-0.23c0-0.13-5.59-0.23-12.48-0.23
						C23.47,51.17,17.88,51.27,17.88,51.4z"/>
				</g>
			</g>
			<path class="st4" d="M7.86,16.42c-0.13,0-0.23,5.59-0.23,12.48c0,6.89,0.1,12.48,0.23,12.48c0.13,0,0.23-5.59,0.23-12.48
				C8.09,22.01,7.99,16.42,7.86,16.42z"/>
		</g>
		<path class="st9" d="M47.43,18.6c-1.76-0.27-9.47-2.84-9.88-9.47c-1.56,0-5.75,0-5.75,0v28.66c0,0-3.93,8-9.85,3.7
			c-6.45-4.69-0.2-12.54,3.93-11.21c0.25-2.38,0.2-5.86,0.2-5.86s-5.25-1.13-10.38,5s-2.38,19.75,11.38,19.38
			c7.63-0.5,10.63-8.25,10.63-12.13s-0.13-16.25-0.13-16.25s2.96,5.13,9.85,4.88C47.33,23.03,47.43,18.6,47.43,18.6z"/>
	</g>
</g>
<g id="Calque_7" class="st0">
	<g class="st1">
		<path class="st2" d="M56.58,48.75c0,3.13-2.54,5.67-5.67,5.67H13.32c-3.13,0-5.67-2.54-5.67-5.67V11.16
			c0-3.13,2.54-5.67,5.67-5.67h37.59c3.13,0,5.67,2.54,5.67,5.67V48.75z"/>
		<path class="st8" d="M54.83,47.75c0,3.13-2.54,5.67-5.67,5.67H11.57c-3.13,0-5.67-2.54-5.67-5.67V10.16
			c0-3.13,2.54-5.67,5.67-5.67h37.59c3.13,0,5.67,2.54,5.67,5.67V47.75z"/>
		<path class="st4" d="M51.16,8.81c-1.7-2.04-4.71-1.85-3.95-2.47c0.76-0.62,3.61,0.61,4.66,1.89c1.34,1.65,1.69,4.08,0.93,4.7
			C52.03,13.55,52.82,10.81,51.16,8.81z"/>
		<path class="st4" d="M9.69,8.81c1.7-2.04,4.71-1.85,3.95-2.47c-0.76-0.62-3.61,0.61-4.66,1.89c-1.34,1.65-1.69,4.08-0.93,4.7
			C8.81,13.55,8.02,10.81,9.69,8.81z"/>
		<path class="st4" d="M51.16,48.39c-1.7,2.04-4.71,1.85-3.95,2.47c0.76,0.62,3.61-0.61,4.66-1.89c1.34-1.65,1.69-4.08,0.93-4.7
			C52.03,43.64,52.82,46.39,51.16,48.39z"/>
		<path class="st4" d="M9.69,48.39c1.7,2.04,4.71,1.85,3.95,2.47c-0.76,0.62-3.61-0.61-4.66-1.89c-1.34-1.65-1.69-4.08-0.93-4.7
			C8.81,43.64,8.02,46.39,9.69,48.39z"/>
		<path class="st4" d="M17.88,51.4c0,0.13,5.59,0.23,12.48,0.23c6.89,0,12.48-0.1,12.48-0.23c0-0.13-5.59-0.23-12.48-0.23
			C23.47,51.17,17.88,51.27,17.88,51.4z"/>
		<path class="st4" d="M7.86,16.42c-0.13,0-0.23,5.59-0.23,12.48c0,6.89,0.1,12.48,0.23,12.48c0.13,0,0.23-5.59,0.23-12.48
			C8.09,22.01,7.99,16.42,7.86,16.42z"/>
		<g>
			<g>
				<path class="st9" d="M49.76,41.15c0,3.7-3,6.7-6.7,6.7H17.54c-3.7,0-6.7-3-6.7-6.7V15.25c0-3.7,3-6.7,6.7-6.7h25.52
					c3.7,0,6.7,3,6.7,6.7V41.15z"/>
				<circle class="st10" cx="29.64" cy="29.32" r="10.5"/>
				<circle class="st10" cx="40.72" cy="18.32" r="3"/>
				<path class="st10" d="M46.76,39.15c0,3.13-2.54,5.67-5.67,5.67H19.51c-3.13,0-5.67-2.54-5.67-5.67V17.24
					c0-3.13,2.54-5.67,5.67-5.67h21.58c3.13,0,5.67,2.54,5.67,5.67V39.15z"/>
			</g>
			<circle class="st9" cx="29.3" cy="29.2" r="6.63"/>
		</g>
	</g>
</g>
<g id="Calque_8" class="st0">
	<g class="st1">
		<path class="st2" d="M56.6,49.89c0,3.13-2.54,5.67-5.67,5.67H13.34c-3.13,0-5.67-2.54-5.67-5.67V12.31c0-3.13,2.54-5.67,5.67-5.67
			h37.59c3.13,0,5.67,2.54,5.67,5.67V49.89z"/>
		<path class="st8" d="M54.85,48.89c0,3.13-2.54,5.67-5.67,5.67H11.59c-3.13,0-5.67-2.54-5.67-5.67V11.31
			c0-3.13,2.54-5.67,5.67-5.67h37.59c3.13,0,5.67,2.54,5.67,5.67V48.89z"/>
		<path class="st4" d="M51.18,9.95c-1.7-2.04-4.71-1.85-3.95-2.47c0.76-0.62,3.61,0.61,4.66,1.89c1.34,1.65,1.69,4.08,0.93,4.7
			C52.05,14.69,52.85,11.95,51.18,9.95z"/>
		<path class="st4" d="M9.71,9.95c1.7-2.04,4.71-1.85,3.95-2.47C12.89,6.86,10.04,8.09,9,9.37c-1.34,1.65-1.69,4.08-0.93,4.7
			C8.83,14.69,8.04,11.95,9.71,9.95z"/>
		<path class="st4" d="M51.18,49.53c-1.7,2.04-4.71,1.85-3.95,2.47c0.76,0.62,3.61-0.61,4.66-1.89c1.34-1.65,1.69-4.08,0.93-4.7
			C52.05,44.78,52.85,47.53,51.18,49.53z"/>
		<path class="st4" d="M9.71,49.53c1.7,2.04,4.71,1.85,3.95,2.47c-0.76,0.62-3.61-0.61-4.66-1.89c-1.34-1.65-1.69-4.08-0.93-4.7
			C8.83,44.78,8.04,47.53,9.71,49.53z"/>
		<path class="st4" d="M17.9,52.54c0,0.13,5.59,0.23,12.48,0.23c6.89,0,12.48-0.1,12.48-0.23c0-0.13-5.59-0.23-12.48-0.23
			C23.49,52.31,17.9,52.41,17.9,52.54z"/>
		<path class="st4" d="M7.89,17.56c-0.13,0-0.23,5.59-0.23,12.48c0,6.89,0.1,12.48,0.23,12.48c0.13,0,0.23-5.59,0.23-12.48
			C8.12,23.15,8.01,17.56,7.89,17.56z"/>
		<g>
			<g>
				<path class="st11" d="M49.78,42.29c0,3.7-3,6.7-6.7,6.7H17.56c-3.7,0-6.7-3-6.7-6.7V16.39c0-3.7,3-6.7,6.7-6.7h25.52
					c3.7,0,6.7,3,6.7,6.7V42.29z"/>
				<path class="st11" d="M46.78,40.3c0,3.13-2.54,5.67-5.67,5.67H19.53c-3.13,0-5.67-2.54-5.67-5.67V18.38
					c0-3.13,2.54-5.67,5.67-5.67h21.58c3.13,0,5.67,2.54,5.67,5.67V40.3z"/>
				<circle class="st12" cx="29.66" cy="30.47" r="10.5"/>
				<circle class="st12" cx="40.74" cy="19.46" r="3"/>
			</g>
			<circle class="st11" cx="29.32" cy="30.34" r="6.63"/>
		</g>
	</g>
</g>
<g id="Calque_9" class="st0">
	<g class="st1">
		<g>
			<g>
				<path class="st2" d="M55.02,49.01c0,3.13-2.54,5.67-5.67,5.67H11.76c-3.13,0-5.67-2.54-5.67-5.67V11.42
					c0-3.13,2.54-5.67,5.67-5.67h37.59c3.13,0,5.67,2.54,5.67,5.67V49.01z"/>
				<g>
					<path class="st8" d="M53.27,48.01c0,3.13-2.54,5.67-5.67,5.67H10.01c-3.13,0-5.67-2.54-5.67-5.67V10.42
						c0-3.13,2.54-5.67,5.67-5.67H47.6c3.13,0,5.67,2.54,5.67,5.67V48.01z"/>
					<path class="st4" d="M49.6,9.06c-1.7-2.04-4.71-1.85-3.95-2.47c0.76-0.62,3.61,0.61,4.66,1.89c1.34,1.65,1.69,4.08,0.93,4.7
						C50.48,13.81,51.27,11.06,49.6,9.06z"/>
					<path class="st4" d="M8.13,9.06c1.7-2.04,4.71-1.85,3.95-2.47C11.31,5.97,8.47,7.2,7.42,8.49c-1.34,1.65-1.69,4.08-0.93,4.7
						C7.25,13.81,6.46,11.06,8.13,9.06z"/>
					<path class="st4" d="M49.6,48.64c-1.7,2.04-4.71,1.85-3.95,2.47c0.76,0.62,3.61-0.61,4.66-1.89c1.34-1.65,1.69-4.08,0.93-4.7
						C50.48,43.9,51.27,46.64,49.6,48.64z"/>
					<path class="st4" d="M8.13,48.64c1.7,2.04,4.71,1.85,3.95,2.47c-0.76,0.62-3.61-0.61-4.66-1.89c-1.34-1.65-1.69-4.08-0.93-4.7
						C7.25,43.9,6.46,46.64,8.13,48.64z"/>
					<path class="st4" d="M16.33,51.66c0,0.13,5.59,0.23,12.48,0.23c6.89,0,12.48-0.1,12.48-0.23c0-0.13-5.59-0.23-12.48-0.23
						C21.92,51.43,16.33,51.53,16.33,51.66z"/>
				</g>
			</g>
			<path class="st4" d="M6.31,16.68c-0.13,0-0.23,5.59-0.23,12.48c0,6.89,0.1,12.48,0.23,12.48c0.13,0,0.23-5.59,0.23-12.48
				C6.54,22.27,6.44,16.68,6.31,16.68z"/>
		</g>
		<path class="st11" d="M45.87,18.86c-1.76-0.27-9.47-2.84-9.88-9.47c-1.56,0-5.75,0-5.75,0v28.66c0,0-3.93,8-9.85,3.7
			c-6.45-4.69-0.2-12.54,3.93-11.21c0.25-2.38,0.2-5.86,0.2-5.86s-5.25-1.13-10.37,5s-2.38,19.75,11.37,19.37
			c7.63-0.5,10.63-8.25,10.63-12.13s-0.13-16.25-0.13-16.25s2.96,5.13,9.85,4.88C45.77,23.29,45.87,18.86,45.87,18.86z"/>
	</g>
</g>
<g id="Calque_10">
	<g>
		<path class="st2" d="M55.7,49.01c0,3.13-2.54,5.67-5.67,5.67H12.44c-3.13,0-5.67-2.54-5.67-5.67V11.42c0-3.13,2.54-5.67,5.67-5.67
			h37.59c3.13,0,5.67,2.54,5.67,5.67V49.01z"/>
		<path class="st5" d="M53.95,48.01c0,3.13-2.54,5.67-5.67,5.67H10.69c-3.13,0-5.67-2.54-5.67-5.67V10.42
			c0-3.13,2.54-5.67,5.67-5.67h37.59c3.13,0,5.67,2.54,5.67,5.67V48.01z"/>
		<path class="st4" d="M50.28,9.06c-1.7-2.04-4.71-1.85-3.95-2.47c0.76-0.62,3.61,0.61,4.66,1.89c1.34,1.65,1.69,4.08,0.93,4.7
			C51.15,13.81,51.95,11.06,50.28,9.06z"/>
		<path class="st4" d="M8.81,9.06c1.7-2.04,4.71-1.85,3.95-2.47C11.99,5.97,9.14,7.2,8.1,8.49c-1.34,1.65-1.69,4.08-0.93,4.7
			C7.93,13.81,7.14,11.06,8.81,9.06z"/>
		<path class="st4" d="M50.28,48.64c-1.7,2.04-4.71,1.85-3.95,2.47c0.76,0.62,3.61-0.61,4.66-1.89c1.34-1.65,1.69-4.08,0.93-4.7
			C51.15,43.9,51.95,46.64,50.28,48.64z"/>
		<path class="st4" d="M8.81,48.64c1.7,2.04,4.71,1.85,3.95,2.47c-0.76,0.62-3.61-0.61-4.66-1.89c-1.34-1.65-1.69-4.08-0.93-4.7
			C7.93,43.9,7.14,46.64,8.81,48.64z"/>
		<path class="st4" d="M17,51.66c0,0.13,5.59,0.23,12.48,0.23c6.89,0,12.48-0.1,12.48-0.23c0-0.13-5.59-0.23-12.48-0.23
			C22.59,51.43,17,51.53,17,51.66z"/>
		<path class="st4" d="M6.98,16.68c-0.13,0-0.23,5.59-0.23,12.48c0,6.89,0.1,12.48,0.23,12.48c0.13,0,0.23-5.59,0.23-12.48
			C7.21,22.27,7.11,16.68,6.98,16.68z"/>
		<path class="st13" d="M30,12.21c-8.22-0.13-10.72,6.48-9.97,13.96c-1,0.5-4.24-1-4.49,0c-0.25,0.99-0.25,2.49,2.24,2.74
			c1.5,0.5,2.61,1.19,1.11,3.68c-2.99,5.56-7.52,4.91-7.66,6.17c0,0,0.47,1.87,3.04,1.87c0.98,0,1.68-0.47,2.01,0
			c0.33,0.47-0.28,2.1,0.56,2.52c0.84,0.42,2.45-0.56,3.77-0.37c1.32,0.19,2.49,0.28,6.09,2.99c0.65,0.56,2.66,0.47,3.29,0.47
			c0.63,0,3.48-0.93,4.88-1.87c1.4-0.93,1.92-1.68,3.69-1.59c1.78,0.09,2.62,0.7,3.41,0.23c0.79-0.47,0.19-1.82,0.66-2.15
			c0.47-0.33,4.95-0.33,5.09-2.24c0.05-0.67-1.5-0.38-3.55-1.5c-1.94-1.05-4.38-3.44-4.86-5.93c0,0-0.94-1.45,1.92-2.15
			c1.21-0.33,2.8-0.93,2.76-1.92c-0.05-0.98-1.08-1.22-1.64-1.08c-0.56,0.14-3.46,1.5-3.32-0.05C39.18,24.45,41.61,12.39,30,12.21z"
			/>
		<path class="st11" d="M30,12.21c-8.22-0.13-10.72,6.48-9.97,13.96c-1,0.5-4.24-1-4.49,0c-0.25,0.99-0.25,2.49,2.24,2.74
			c1.5,0.5,2.61,1.19,1.11,3.68c-2.99,5.56-7.52,4.91-7.66,6.17c0,0,0.47,1.87,3.04,1.87c0.98,0,1.68-0.47,2.01,0
			c0.33,0.47-0.28,2.1,0.56,2.52c0.84,0.42,2.45-0.56,3.77-0.37c1.32,0.19,2.49,0.28,6.09,2.99c0.65,0.56,2.66,0.47,3.29,0.47
			c0.63,0,3.48-0.93,4.88-1.87c1.4-0.93,1.92-1.68,3.69-1.59c1.78,0.09,2.62,0.7,3.41,0.23c0.79-0.47,0.19-1.82,0.66-2.15
			c0.47-0.33,4.95-0.33,5.09-2.24c0.05-0.67-1.5-0.38-3.55-1.5c-1.94-1.05-4.38-3.44-4.86-5.93c0,0-0.94-1.45,1.92-2.15
			c1.21-0.33,2.8-0.93,2.76-1.92c-0.05-0.98-1.08-1.22-1.64-1.08c-0.56,0.14-3.46,1.5-3.32-0.05C39.18,24.45,41.61,12.39,30,12.21z"
			/>
	</g>
</g>
<g id="Calque_11" class="st0">
	<g class="st1">
		<path class="st2" d="M56.6,49.89c0,3.13-2.54,5.67-5.67,5.67H13.34c-3.13,0-5.67-2.54-5.67-5.67V12.31c0-3.13,2.54-5.67,5.67-5.67
			h37.59c3.13,0,5.67,2.54,5.67,5.67V49.89z"/>
		<path class="st5" d="M54.85,48.89c0,3.13-2.54,5.67-5.67,5.67H11.59c-3.13,0-5.67-2.54-5.67-5.67V11.31
			c0-3.13,2.54-5.67,5.67-5.67h37.59c3.13,0,5.67,2.54,5.67,5.67V48.89z"/>
		<path class="st4" d="M51.18,9.95c-1.7-2.04-4.71-1.85-3.95-2.47c0.76-0.62,3.61,0.61,4.66,1.89c1.34,1.65,1.69,4.08,0.93,4.7
			C52.05,14.69,52.85,11.95,51.18,9.95z"/>
		<path class="st4" d="M9.71,9.95c1.7-2.04,4.71-1.85,3.95-2.47C12.89,6.86,10.04,8.09,9,9.37c-1.34,1.65-1.69,4.08-0.93,4.7
			C8.83,14.69,8.04,11.95,9.71,9.95z"/>
		<path class="st4" d="M51.18,49.53c-1.7,2.04-4.71,1.85-3.95,2.47c0.76,0.62,3.61-0.61,4.66-1.89c1.34-1.65,1.69-4.08,0.93-4.7
			C52.05,44.78,52.85,47.53,51.18,49.53z"/>
		<path class="st4" d="M9.71,49.53c1.7,2.04,4.71,1.85,3.95,2.47c-0.76,0.62-3.61-0.61-4.66-1.89c-1.34-1.65-1.69-4.08-0.93-4.7
			C8.83,44.78,8.04,47.53,9.71,49.53z"/>
		<path class="st4" d="M17.9,52.54c0,0.13,5.59,0.23,12.48,0.23c6.89,0,12.48-0.1,12.48-0.23c0-0.13-5.59-0.23-12.48-0.23
			C23.49,52.31,17.9,52.41,17.9,52.54z"/>
		<path class="st4" d="M7.89,17.56c-0.13,0-0.23,5.59-0.23,12.48c0,6.89,0.1,12.48,0.23,12.48c0.13,0,0.23-5.59,0.23-12.48
			C8.12,23.15,8.01,17.56,7.89,17.56z"/>
		<g>
			<path class="st13" d="M42.2,36.5"/>
			<path class="st13" d="M22.33,17.52c0,2.37-1.92,4.29-4.29,4.29l0,0c-2.37,0-4.29-1.92-4.29-4.29l0,0c0-2.37,1.92-4.29,4.29-4.29
				l0,0C20.41,13.24,22.33,15.16,22.33,17.52L22.33,17.52z"/>
			<rect x="14.69" y="24.6" class="st13" width="7.64" height="22.36"/>
			<path class="st13" d="M25.68,24.6h6.89v3.54c0,0,0.56-3.54,6.52-3.54c0,0,7.92-0.08,7.92,7.55c0,8.94,0,14.81,0,14.81h-6.99
				V34.48c0,0,0.19-4.29-3.68-4.29c-3.17,0-3.94,2.56-3.94,3.94s0,12.83,0,12.83h-6.73V24.6z"/>
		</g>
		<g>
			<path class="st11" d="M42.2,36.5"/>
			<path class="st11" d="M22.33,17.52c0,2.37-1.92,4.29-4.29,4.29l0,0c-2.37,0-4.29-1.92-4.29-4.29l0,0c0-2.37,1.92-4.29,4.29-4.29
				l0,0C20.41,13.24,22.33,15.16,22.33,17.52L22.33,17.52z"/>
			<rect x="14.69" y="24.6" class="st11" width="7.64" height="22.36"/>
			<path class="st11" d="M25.68,24.6h6.89v3.54c0,0,0.56-3.54,6.52-3.54c0,0,7.92-0.08,7.92,7.55c0,8.94,0,14.81,0,14.81h-6.99
				V34.48c0,0,0.19-4.29-3.68-4.29c-3.17,0-3.94,2.56-3.94,3.94s0,12.83,0,12.83h-6.73V24.6z"/>
		</g>
	</g>
</g>
<g id="Calque_12" class="st0">
	<g class="st1">
		<path class="st2" d="M56.6,49.89c0,3.13-2.54,5.67-5.67,5.67H13.34c-3.13,0-5.67-2.54-5.67-5.67V12.31c0-3.13,2.54-5.67,5.67-5.67
			h37.59c3.13,0,5.67,2.54,5.67,5.67V49.89z"/>
		<path d="M54.85,48.89c0,3.13-2.54,5.67-5.67,5.67H11.59c-3.13,0-5.67-2.54-5.67-5.67V11.31c0-3.13,2.54-5.67,5.67-5.67h37.59
			c3.13,0,5.67,2.54,5.67,5.67V48.89z"/>
		<path class="st4" d="M51.18,9.95c-1.7-2.04-4.71-1.85-3.95-2.47c0.76-0.62,3.61,0.61,4.66,1.89c1.34,1.65,1.69,4.08,0.93,4.7
			C52.05,14.69,52.85,11.95,51.18,9.95z"/>
		<path class="st4" d="M9.71,9.95c1.7-2.04,4.71-1.85,3.95-2.47C12.89,6.86,10.04,8.09,9,9.37c-1.34,1.65-1.69,4.08-0.93,4.7
			C8.83,14.69,8.04,11.95,9.71,9.95z"/>
		<path class="st4" d="M51.18,49.53c-1.7,2.04-4.71,1.85-3.95,2.47c0.76,0.62,3.61-0.61,4.66-1.89c1.34-1.65,1.69-4.08,0.93-4.7
			C52.05,44.78,52.85,47.53,51.18,49.53z"/>
		<path class="st4" d="M9.71,49.53c1.7,2.04,4.71,1.85,3.95,2.47c-0.76,0.62-3.61-0.61-4.66-1.89c-1.34-1.65-1.69-4.08-0.93-4.7
			C8.83,44.78,8.04,47.53,9.71,49.53z"/>
		<path class="st4" d="M17.9,52.54c0,0.13,5.59,0.23,12.48,0.23c6.89,0,12.48-0.1,12.48-0.23c0-0.13-5.59-0.23-12.48-0.23
			C23.49,52.31,17.9,52.41,17.9,52.54z"/>
		<path class="st4" d="M7.89,17.56c-0.13,0-0.23,5.59-0.23,12.48c0,6.89,0.1,12.48,0.23,12.48c0.13,0,0.23-5.59,0.23-12.48
			C8.12,23.15,8.01,17.56,7.89,17.56z"/>
		<path class="st13" d="M47.92,15.31c0,0-3.61,1.63-4.73,1.81c-0.34-0.43-3.87-3.96-8.68-1.81c-4.81,2.15-4.73,5.93-4.81,8.68
			c-1.29,0-7.91-0.17-15.39-8.08c-0.69,0.69-3.61,6.62,1.55,10.23c-1.03-0.09-2.99-0.77-2.99-0.77c0.42,2.32,1.36,6.53,5.92,7.74
			c-1.55,0.09-3.01,0-3.01,0c0.69,1.81,1.55,4.21,6.53,5.67c-1.2,0.77-1.38,1.72-10.75,2.75c0.6,0.69,12.64,9.89,27.68-2.49
			c4.3-4.3,7.05-10.15,6.28-16.59c1.63-1.2,3.61-2.84,3.7-3.96c-0.95,0.26-4.47,1.12-4.47,1.12C47.15,17.8,47.92,15.31,47.92,15.31z
			"/>
		<path class="st11" d="M47.92,15.37c0,0-3.61,1.63-4.73,1.81c-0.34-0.43-3.87-3.95-8.68-1.81c-4.81,2.15-4.73,5.93-4.81,8.68
			c-1.29,0-7.91-0.17-15.39-8.08c-0.69,0.69-3.61,6.62,1.55,10.23c-1.03-0.09-2.99-0.77-2.99-0.77c0.42,2.32,1.36,6.53,5.92,7.74
			c-1.55,0.09-3.01,0-3.01,0c0.69,1.81,1.55,4.21,6.53,5.67c-1.2,0.77-1.38,1.72-10.75,2.75c0.6,0.69,12.64,9.89,27.68-2.49
			c4.3-4.3,7.05-10.15,6.28-16.59c1.63-1.2,3.61-2.84,3.7-3.96c-0.95,0.26-4.47,1.12-4.47,1.12C47.15,17.86,47.92,15.37,47.92,15.37
			z"/>
	</g>
</g>
<g id="Calque_13" class="st0">
	<g class="st1">
		<path class="st2" d="M54.98,49.89c0,3.13-2.54,5.67-5.67,5.67H11.72c-3.13,0-5.67-2.54-5.67-5.67V12.31
			c0-3.13,2.54-5.67,5.67-5.67h37.59c3.13,0,5.67,2.54,5.67,5.67V49.89z"/>
		<path d="M53.23,48.89c0,3.13-2.54,5.67-5.67,5.67H9.97c-3.13,0-5.67-2.54-5.67-5.67V11.31c0-3.13,2.54-5.67,5.67-5.67h37.59
			c3.13,0,5.67,2.54,5.67,5.67V48.89z"/>
		<path class="st13" d="M24.47,49.14V29.11h-5.15v-5.72h5.15c0,0-1.04-6.12,3.29-10.45c1.99-1.99,5.98-3,10.45-3v5.29
			c0,0-6.3,0-6.3,3.72c0,3.15,0,4.72,0,4.72h6.3v5.44h-5.72l0.14,20.03H24.47z"/>
		<path class="st4" d="M49.56,9.95c-1.7-2.04-4.71-1.85-3.95-2.47c0.76-0.62,3.61,0.61,4.66,1.89c1.34,1.65,1.69,4.08,0.93,4.7
			C50.43,14.69,51.23,11.95,49.56,9.95z"/>
		<path class="st4" d="M8.09,9.95c1.7-2.04,4.71-1.85,3.95-2.47c-0.76-0.62-3.61,0.61-4.66,1.89c-1.34,1.65-1.69,4.08-0.93,4.7
			C7.21,14.69,6.42,11.95,8.09,9.95z"/>
		<path class="st4" d="M49.56,49.53c-1.7,2.04-4.71,1.85-3.95,2.47c0.76,0.62,3.61-0.61,4.66-1.89c1.34-1.65,1.69-4.08,0.93-4.7
			C50.43,44.78,51.23,47.53,49.56,49.53z"/>
		<path class="st4" d="M8.09,49.53c1.7,2.04,4.71,1.85,3.95,2.47c-0.76,0.62-3.61-0.61-4.66-1.89c-1.34-1.65-1.69-4.08-0.93-4.7
			C7.21,44.78,6.42,47.53,8.09,49.53z"/>
		<path class="st4" d="M16.28,52.54c0,0.13,5.59,0.23,12.48,0.23c6.89,0,12.48-0.1,12.48-0.23c0-0.13-5.59-0.23-12.48-0.23
			C21.87,52.31,16.28,52.41,16.28,52.54z"/>
		<path class="st4" d="M6.27,17.56c-0.13,0-0.23,5.59-0.23,12.48c0,6.89,0.1,12.48,0.23,12.48c0.13,0,0.23-5.59,0.23-12.48
			C6.5,23.15,6.39,17.56,6.27,17.56z"/>
	</g>
	<path class="st14" d="M24.47,49.14V29.11h-5.15v-5.72h5.15c0,0-1.04-6.12,3.29-10.45c1.99-1.99,5.98-3,10.45-3v5.29
		c0,0-6.3,0-6.3,3.72c0,3.15,0,4.72,0,4.72h6.3v5.44h-5.72l0.14,20.03H24.47z"/>
</g>
</svg>
