<?xml version="1.0" encoding="utf-8"?>
<!-- Generator: Adobe Illustrator 24.1.2, SVG Export Plug-In . SVG Version: 6.00 Build 0)  -->
<svg version="1.1" xmlns="http://www.w3.org/2000/svg" xmlns:xlink="http://www.w3.org/1999/xlink" x="0px" y="0px"
	 viewBox="0 0 62.52 61.2" style="enable-background:new 0 0 62.52 61.2;" xml:space="preserve">
<style type="text/css">
	.st0{display:none;}
	.st1{display:inline;}
	.st2{fill:#FDEDEC;}
	.st3{fill:#FAB711;stroke:#FFFFFF;stroke-miterlimit:10;}
	.st4{fill:#FFFFFF;}
	.st5{fill:#FAB711;}
	.st6{fill:none;stroke:#010202;stroke-width:0.25;stroke-miterlimit:10;}
	.st7{fill:#1D1D1C;stroke:#FFFFFF;stroke-miterlimit:10;}
	.st8{fill:#1D1D1C;}
	.st9{stroke:#FFFFFF;stroke-miterlimit:10;}
	.st10{fill:none;stroke:#FFFFFF;stroke-miterlimit:10;}
	.st11{fill:#010202;}
	.st12{stroke:#FFFFFF;stroke-width:3;stroke-miterlimit:10;}
	.st13{fill:#FFFFFF;stroke:#000000;stroke-miterlimit:10;}
	.st14{fill:none;stroke:#000000;stroke-miterlimit:10;}
	.st15{fill:#FBB714;}
</style>
<g id="Calque_1" class="st0">
	<g class="st1">
		<path class="st2" d="M56.25,49.18c0,3.13-2.54,5.67-5.67,5.67H12.99c-3.13,0-5.67-2.54-5.67-5.67V11.59
			c0-3.13,2.54-5.67,5.67-5.67h37.59c3.13,0,5.67,2.54,5.67,5.67V49.18z"/>
		<path d="M54.5,48.18c0,3.13-2.54,5.67-5.67,5.67H11.24c-3.13,0-5.67-2.54-5.67-5.67V10.59c0-3.13,2.54-5.67,5.67-5.67h37.59
			c3.13,0,5.67,2.54,5.67,5.67V48.18z"/>
		<path class="st3" d="M25.74,48.42V28.39h-5.15v-5.72h5.15c0,0-1.04-6.12,3.29-10.45c1.99-1.99,5.98-3,10.45-3v5.29
			c0,0-6.3,0-6.3,3.72c0,3.15,0,4.72,0,4.72h6.3v5.44h-5.72l0.14,20.03H25.74z"/>
		<path class="st4" d="M50.83,9.23c-1.7-2.04-4.71-1.85-3.95-2.47c0.76-0.62,3.61,0.61,4.66,1.89c1.34,1.65,1.69,4.08,0.93,4.7
			C51.7,13.98,52.49,11.23,50.83,9.23z"/>
		<path class="st4" d="M9.35,9.23c1.7-2.04,4.71-1.85,3.95-2.47c-0.76-0.62-3.61,0.61-4.66,1.89c-1.34,1.65-1.69,4.08-0.93,4.7
			C8.48,13.98,7.69,11.23,9.35,9.23z"/>
		<path class="st4" d="M50.83,48.81c-1.7,2.04-4.71,1.85-3.95,2.47c0.76,0.62,3.61-0.61,4.66-1.89c1.34-1.65,1.69-4.08,0.93-4.7
			C51.7,44.06,52.49,46.81,50.83,48.81z"/>
		<path class="st4" d="M9.35,48.81c1.7,2.04,4.71,1.85,3.95,2.47c-0.76,0.62-3.61-0.61-4.66-1.89c-1.34-1.65-1.69-4.08-0.93-4.7
			C8.48,44.06,7.69,46.81,9.35,48.81z"/>
		<path class="st4" d="M17.55,51.82c0,0.13,5.59,0.23,12.48,0.23c6.89,0,12.48-0.1,12.48-0.23c0-0.13-5.59-0.23-12.48-0.23
			C23.14,51.59,17.55,51.7,17.55,51.82z"/>
		<path class="st4" d="M7.53,16.84c-0.13,0-0.23,5.59-0.23,12.48c0,6.89,0.1,12.48,0.23,12.48c0.13,0,0.23-5.59,0.23-12.48
			C7.76,22.43,7.66,16.84,7.53,16.84z"/>
	</g>
</g>
<g id="Calque_2" class="st0">
	<g class="st1">
		<path class="st2" d="M56.25,49.18c0,3.13-2.54,5.67-5.67,5.67H12.99c-3.13,0-5.67-2.54-5.67-5.67V11.59
			c0-3.13,2.54-5.67,5.67-5.67h37.59c3.13,0,5.67,2.54,5.67,5.67V49.18z"/>
		<path d="M54.5,48.18c0,3.13-2.54,5.67-5.67,5.67H11.24c-3.13,0-5.67-2.54-5.67-5.67V10.59c0-3.13,2.54-5.67,5.67-5.67h37.59
			c3.13,0,5.67,2.54,5.67,5.67V48.18z"/>
		<path class="st4" d="M50.83,9.23c-1.7-2.04-4.71-1.85-3.95-2.47c0.76-0.62,3.61,0.61,4.66,1.89c1.34,1.65,1.69,4.08,0.93,4.7
			C51.7,13.98,52.49,11.23,50.83,9.23z"/>
		<path class="st4" d="M9.35,9.23c1.7-2.04,4.71-1.85,3.95-2.47c-0.76-0.62-3.61,0.61-4.66,1.89c-1.34,1.65-1.69,4.08-0.93,4.7
			C8.48,13.98,7.69,11.23,9.35,9.23z"/>
		<path class="st4" d="M50.83,48.81c-1.7,2.04-4.71,1.85-3.95,2.47c0.76,0.62,3.61-0.61,4.66-1.89c1.34-1.65,1.69-4.08,0.93-4.7
			C51.7,44.06,52.49,46.81,50.83,48.81z"/>
		<path class="st4" d="M9.35,48.81c1.7,2.04,4.71,1.85,3.95,2.47c-0.76,0.62-3.61-0.61-4.66-1.89c-1.34-1.65-1.69-4.08-0.93-4.7
			C8.48,44.06,7.69,46.81,9.35,48.81z"/>
		<path class="st4" d="M17.55,51.82c0,0.13,5.59,0.23,12.48,0.23c6.89,0,12.48-0.1,12.48-0.23c0-0.13-5.59-0.23-12.48-0.23
			C23.14,51.59,17.55,51.7,17.55,51.82z"/>
		<path class="st4" d="M7.53,16.84c-0.13,0-0.23,5.59-0.23,12.48c0,6.89,0.1,12.48,0.23,12.48c0.13,0,0.23-5.59,0.23-12.48
			C7.76,22.43,7.66,16.84,7.53,16.84z"/>
		<path class="st3" d="M47.57,14.65c0,0-3.61,1.63-4.73,1.81c-0.34-0.43-3.87-3.95-8.68-1.81c-4.81,2.15-4.73,5.93-4.81,8.68
			c-1.29,0-7.91-0.17-15.39-8.08c-0.69,0.69-3.61,6.62,1.55,10.23c-1.03-0.09-2.99-0.77-2.99-0.77c0.42,2.32,1.36,6.53,5.92,7.74
			c-1.55,0.09-3.01,0-3.01,0c0.69,1.81,1.55,4.21,6.53,5.67c-1.2,0.77-1.38,1.72-10.75,2.75c0.6,0.69,12.64,9.89,27.68-2.49
			c4.3-4.3,7.05-10.15,6.28-16.59c1.63-1.2,3.61-2.84,3.7-3.96c-0.95,0.26-4.47,1.12-4.47,1.12C46.8,17.14,47.57,14.65,47.57,14.65z
			"/>
	</g>
</g>
<g id="Calque_3" class="st0">
	<g class="st1">
		<path class="st2" d="M56.25,49.18c0,3.13-2.54,5.67-5.67,5.67H12.99c-3.13,0-5.67-2.54-5.67-5.67V11.59
			c0-3.13,2.54-5.67,5.67-5.67h37.59c3.13,0,5.67,2.54,5.67,5.67V49.18z"/>
		<path class="st5" d="M54.5,48.18c0,3.13-2.54,5.67-5.67,5.67H11.24c-3.13,0-5.67-2.54-5.67-5.67V10.59c0-3.13,2.54-5.67,5.67-5.67
			h37.59c3.13,0,5.67,2.54,5.67,5.67V48.18z"/>
		<path class="st4" d="M50.83,9.23c-1.7-2.04-4.71-1.85-3.95-2.47c0.76-0.62,3.61,0.61,4.66,1.89c1.34,1.65,1.69,4.08,0.93,4.7
			C51.7,13.98,52.49,11.23,50.83,9.23z"/>
		<path class="st4" d="M9.36,9.23c1.7-2.04,4.71-1.85,3.95-2.47c-0.76-0.62-3.61,0.61-4.66,1.89c-1.34,1.65-1.69,4.08-0.93,4.7
			C8.48,13.98,7.69,11.23,9.36,9.23z"/>
		<path class="st4" d="M50.83,48.81c-1.7,2.04-4.71,1.85-3.95,2.47c0.76,0.62,3.61-0.61,4.66-1.89c1.34-1.65,1.69-4.08,0.93-4.7
			C51.7,44.06,52.49,46.81,50.83,48.81z"/>
		<path class="st4" d="M9.36,48.81c1.7,2.04,4.71,1.85,3.95,2.47c-0.76,0.62-3.61-0.61-4.66-1.89c-1.34-1.65-1.69-4.08-0.93-4.7
			C8.48,44.06,7.69,46.81,9.36,48.81z"/>
		<path class="st4" d="M17.55,51.82c0,0.13,5.59,0.23,12.48,0.23c6.89,0,12.48-0.1,12.48-0.23c0-0.13-5.59-0.23-12.48-0.23
			C23.14,51.59,17.55,51.7,17.55,51.82z"/>
		<path class="st4" d="M7.53,16.84c-0.13,0-0.23,5.59-0.23,12.48c0,6.89,0.1,12.48,0.23,12.48c0.13,0,0.23-5.59,0.23-12.48
			C7.76,22.43,7.66,16.84,7.53,16.84z"/>
		<g>
			<path class="st6" d="M41.85,35.78"/>
			<path class="st7" d="M21.97,16.8c0,2.37-1.92,4.29-4.29,4.29l0,0c-2.37,0-4.29-1.92-4.29-4.29l0,0c0-2.37,1.92-4.29,4.29-4.29
				l0,0C20.06,12.52,21.97,14.44,21.97,16.8L21.97,16.8z"/>
			<rect x="14.34" y="23.88" class="st7" width="7.64" height="22.36"/>
			<path class="st7" d="M25.33,23.88h6.89v3.54c0,0,0.56-3.54,6.52-3.54c0,0,7.92-0.08,7.92,7.55c0,8.94,0,14.81,0,14.81h-6.99
				V33.76c0,0,0.19-4.29-3.68-4.29c-3.17,0-3.94,2.56-3.94,3.94c0,1.37,0,12.83,0,12.83h-6.73V23.88z"/>
		</g>
	</g>
</g>
<g id="Calque_4">
	<g>
		<path class="st2" d="M56.25,49.18c0,3.13-2.54,5.67-5.67,5.67H12.99c-3.13,0-5.67-2.54-5.67-5.67V11.59
			c0-3.13,2.54-5.67,5.67-5.67h37.59c3.13,0,5.67,2.54,5.67,5.67V49.18z"/>
		<path class="st5" d="M54.5,48.18c0,3.13-2.54,5.67-5.67,5.67H11.24c-3.13,0-5.67-2.54-5.67-5.67V10.59c0-3.13,2.54-5.67,5.67-5.67
			h37.59c3.13,0,5.67,2.54,5.67,5.67V48.18z"/>
		<path class="st4" d="M50.83,9.23c-1.7-2.04-4.71-1.85-3.95-2.47c0.76-0.62,3.61,0.61,4.66,1.89c1.34,1.65,1.69,4.08,0.93,4.7
			C51.7,13.98,52.49,11.23,50.83,9.23z"/>
		<path class="st4" d="M9.35,9.23c1.7-2.04,4.71-1.85,3.95-2.47c-0.76-0.62-3.61,0.61-4.66,1.89c-1.34,1.65-1.69,4.08-0.93,4.7
			C8.48,13.98,7.69,11.23,9.35,9.23z"/>
		<path class="st4" d="M50.83,48.81c-1.7,2.04-4.71,1.85-3.95,2.47c0.76,0.62,3.61-0.61,4.66-1.89c1.34-1.65,1.69-4.08,0.93-4.7
			C51.7,44.06,52.49,46.81,50.83,48.81z"/>
		<path class="st4" d="M9.35,48.81c1.7,2.04,4.71,1.85,3.95,2.47c-0.76,0.62-3.61-0.61-4.66-1.89c-1.34-1.65-1.69-4.08-0.93-4.7
			C8.48,44.06,7.69,46.81,9.35,48.81z"/>
		<path class="st4" d="M17.55,51.82c0,0.13,5.59,0.23,12.48,0.23c6.89,0,12.48-0.1,12.48-0.23c0-0.13-5.59-0.23-12.48-0.23
			C23.14,51.59,17.55,51.7,17.55,51.82z"/>
		<path class="st4" d="M7.53,16.84c-0.13,0-0.23,5.59-0.23,12.48c0,6.89,0.1,12.48,0.23,12.48c0.13,0,0.23-5.59,0.23-12.48
			C7.76,22.43,7.66,16.84,7.53,16.84z"/>
		<path class="st7" d="M30.55,12.37c-8.22-0.13-10.72,6.48-9.97,13.96c-1,0.5-4.24-1-4.49,0c-0.25,0.99-0.25,2.49,2.24,2.74
			c1.5,0.5,2.61,1.19,1.11,3.68c-2.99,5.56-7.52,4.91-7.66,6.17c0,0,0.47,1.87,3.04,1.87c0.98,0,1.68-0.47,2.01,0
			c0.33,0.47-0.28,2.1,0.56,2.52c0.84,0.42,2.45-0.56,3.77-0.37c1.32,0.19,2.49,0.28,6.09,2.99c0.65,0.56,2.66,0.47,3.29,0.47
			c0.63,0,3.48-0.93,4.88-1.87c1.4-0.93,1.92-1.68,3.69-1.59c1.78,0.09,2.62,0.7,3.41,0.23c0.79-0.47,0.19-1.82,0.66-2.15
			c0.47-0.33,4.95-0.33,5.09-2.24c0.05-0.67-1.5-0.38-3.55-1.5c-1.94-1.05-4.38-3.44-4.86-5.93c0,0-0.94-1.45,1.92-2.15
			c1.21-0.33,2.8-0.94,2.76-1.92c-0.05-0.98-1.08-1.22-1.64-1.08c-0.56,0.14-3.46,1.5-3.32-0.05
			C39.73,24.61,42.16,12.56,30.55,12.37z"/>
	</g>
</g>
<g id="Calque_5" class="st0">
	<g class="st1">
		<g>
			<g>
				<path class="st2" d="M56.25,49.18c0,3.13-2.54,5.67-5.67,5.67H12.99c-3.13,0-5.67-2.54-5.67-5.67V11.59
					c0-3.13,2.54-5.67,5.67-5.67h37.59c3.13,0,5.67,2.54,5.67,5.67V49.18z"/>
				<g>
					<path class="st8" d="M54.5,48.18c0,3.13-2.54,5.67-5.67,5.67H11.24c-3.13,0-5.67-2.54-5.67-5.67V10.59
						c0-3.13,2.54-5.67,5.67-5.67h37.59c3.13,0,5.67,2.54,5.67,5.67V48.18z"/>
					<path class="st4" d="M50.83,9.23c-1.7-2.04-4.71-1.85-3.95-2.47c0.76-0.62,3.61,0.61,4.66,1.89c1.34,1.65,1.69,4.08,0.93,4.7
						C51.7,13.98,52.49,11.23,50.83,9.23z"/>
					<path class="st4" d="M9.35,9.23c1.7-2.04,4.71-1.85,3.95-2.47c-0.76-0.62-3.61,0.61-4.66,1.89c-1.34,1.65-1.69,4.08-0.93,4.7
						C8.48,13.98,7.69,11.23,9.35,9.23z"/>
					<path class="st4" d="M50.83,48.81c-1.7,2.04-4.71,1.85-3.95,2.47c0.76,0.62,3.61-0.61,4.66-1.89c1.34-1.65,1.69-4.08,0.93-4.7
						C51.7,44.06,52.49,46.81,50.83,48.81z"/>
					<path class="st4" d="M9.35,48.81c1.7,2.04,4.71,1.85,3.95,2.47c-0.76,0.62-3.61-0.61-4.66-1.89c-1.34-1.65-1.69-4.08-0.93-4.7
						C8.48,44.06,7.69,46.81,9.35,48.81z"/>
					<path class="st4" d="M17.55,51.82c0,0.13,5.59,0.23,12.48,0.23c6.89,0,12.48-0.1,12.48-0.23c0-0.13-5.59-0.23-12.48-0.23
						C23.14,51.59,17.55,51.7,17.55,51.82z"/>
				</g>
			</g>
			<path class="st4" d="M7.53,16.84c-0.13,0-0.23,5.59-0.23,12.48c0,6.89,0.1,12.48,0.23,12.48c0.13,0,0.23-5.59,0.23-12.48
				C7.76,22.43,7.66,16.84,7.53,16.84z"/>
		</g>
		<path class="st9" d="M47.1,19.02c-1.76-0.27-9.47-2.84-9.88-9.47c-1.56,0-5.75,0-5.75,0v28.66c0,0-3.93,8-9.85,3.7
			c-6.45-4.69-0.2-12.54,3.93-11.21c0.25-2.38,0.2-5.86,0.2-5.86s-5.25-1.13-10.38,5S13,49.58,26.75,49.21
			c7.62-0.5,10.62-8.25,10.62-12.13s-0.13-16.25-0.13-16.25s2.96,5.13,9.85,4.88C47,23.46,47.1,19.02,47.1,19.02z"/>
	</g>
</g>
<g id="Calque_7" class="st0">
	<g class="st1">
		<path class="st2" d="M56.25,49.18c0,3.13-2.54,5.67-5.67,5.67H12.99c-3.13,0-5.67-2.54-5.67-5.67V11.59
			c0-3.13,2.54-5.67,5.67-5.67h37.59c3.13,0,5.67,2.54,5.67,5.67V49.18z"/>
		<path class="st8" d="M54.5,48.18c0,3.13-2.54,5.67-5.67,5.67H11.24c-3.13,0-5.67-2.54-5.67-5.67V10.59c0-3.13,2.54-5.67,5.67-5.67
			h37.59c3.13,0,5.67,2.54,5.67,5.67V48.18z"/>
		<path class="st4" d="M50.83,9.23c-1.7-2.04-4.71-1.85-3.95-2.47c0.76-0.62,3.61,0.61,4.66,1.89c1.34,1.65,1.69,4.08,0.93,4.7
			C51.7,13.98,52.49,11.23,50.83,9.23z"/>
		<path class="st4" d="M9.35,9.23c1.7-2.04,4.71-1.85,3.95-2.47c-0.76-0.62-3.61,0.61-4.66,1.89c-1.34,1.65-1.69,4.08-0.93,4.7
			C8.48,13.98,7.69,11.23,9.35,9.23z"/>
		<path class="st4" d="M50.83,48.81c-1.7,2.04-4.71,1.85-3.95,2.47c0.76,0.62,3.61-0.61,4.66-1.89c1.34-1.65,1.69-4.08,0.93-4.7
			C51.7,44.06,52.49,46.81,50.83,48.81z"/>
		<path class="st4" d="M9.35,48.81c1.7,2.04,4.71,1.85,3.95,2.47c-0.76,0.62-3.61-0.61-4.66-1.89c-1.34-1.65-1.69-4.08-0.93-4.7
			C8.48,44.06,7.69,46.81,9.35,48.81z"/>
		<path class="st4" d="M17.55,51.82c0,0.13,5.59,0.23,12.48,0.23c6.89,0,12.48-0.1,12.48-0.23c0-0.13-5.59-0.23-12.48-0.23
			C23.14,51.59,17.55,51.7,17.55,51.82z"/>
		<path class="st4" d="M7.53,16.84c-0.13,0-0.23,5.59-0.23,12.48c0,6.89,0.1,12.48,0.23,12.48c0.13,0,0.23-5.59,0.23-12.48
			C7.76,22.43,7.66,16.84,7.53,16.84z"/>
		<g>
			<g>
				<path class="st9" d="M49.43,41.58c0,3.7-3,6.7-6.7,6.7H17.21c-3.7,0-6.7-3-6.7-6.7V15.67c0-3.7,3-6.7,6.7-6.7h25.52
					c3.7,0,6.7,3,6.7,6.7V41.58z"/>
				<circle class="st10" cx="29.31" cy="29.75" r="10.5"/>
				<circle class="st10" cx="40.38" cy="18.74" r="3"/>
				<path class="st10" d="M46.43,39.58c0,3.13-2.54,5.67-5.67,5.67H19.18c-3.13,0-5.67-2.54-5.67-5.67V17.67
					c0-3.13,2.54-5.67,5.67-5.67h21.58c3.13,0,5.67,2.54,5.67,5.67V39.58z"/>
			</g>
			<circle class="st9" cx="28.97" cy="29.62" r="6.63"/>
		</g>
	</g>
</g>
<g id="Calque_8" class="st0">
	<g class="st1">
		<path class="st11" d="M56.25,49.18c0,3.13-2.54,5.67-5.67,5.67H12.99c-3.13,0-5.67-2.54-5.67-5.67V11.59
			c0-3.13,2.54-5.67,5.67-5.67h37.59c3.13,0,5.67,2.54,5.67,5.67V49.18z"/>
		<path class="st8" d="M54.5,48.18c0,3.13-2.54,5.67-5.67,5.67H11.24c-3.13,0-5.67-2.54-5.67-5.67V10.59c0-3.13,2.54-5.67,5.67-5.67
			h37.59c3.13,0,5.67,2.54,5.67,5.67V48.18z"/>
		<path class="st4" d="M50.83,9.23c-1.7-2.04-4.71-1.85-3.95-2.47c0.76-0.62,3.61,0.61,4.66,1.89c1.34,1.65,1.69,4.08,0.93,4.7
			C51.7,13.98,52.49,11.23,50.83,9.23z"/>
		<path class="st4" d="M9.35,9.23c1.7-2.04,4.71-1.85,3.95-2.47c-0.76-0.62-3.61,0.61-4.66,1.89c-1.34,1.65-1.69,4.08-0.93,4.7
			C8.48,13.98,7.69,11.23,9.35,9.23z"/>
		<path class="st4" d="M50.83,48.81c-1.7,2.04-4.71,1.85-3.95,2.47c0.76,0.62,3.61-0.61,4.66-1.89c1.34-1.65,1.69-4.08,0.93-4.7
			C51.7,44.06,52.49,46.81,50.83,48.81z"/>
		<path class="st4" d="M9.35,48.81c1.7,2.04,4.71,1.85,3.95,2.47c-0.76,0.62-3.61-0.61-4.66-1.89c-1.34-1.65-1.69-4.08-0.93-4.7
			C8.48,44.06,7.69,46.81,9.35,48.81z"/>
		<path class="st4" d="M17.55,51.82c0,0.13,5.59,0.23,12.48,0.23c6.89,0,12.48-0.1,12.48-0.23c0-0.13-5.59-0.23-12.48-0.23
			C23.14,51.59,17.55,51.7,17.55,51.82z"/>
		<path class="st4" d="M7.53,16.84c-0.13,0-0.23,5.59-0.23,12.48c0,6.89,0.1,12.48,0.23,12.48c0.13,0,0.23-5.59,0.23-12.48
			C7.76,22.43,7.66,16.84,7.53,16.84z"/>
		<g>
			<g>
				<path class="st12" d="M49.43,41.58c0,3.7-3,6.7-6.7,6.7H17.21c-3.7,0-6.7-3-6.7-6.7V15.67c0-3.7,3-6.7,6.7-6.7h25.52
					c3.7,0,6.7,3,6.7,6.7V41.58z"/>
				<path class="st12" d="M46.43,39.58c0,3.13-2.54,5.67-5.67,5.67H19.18c-3.13,0-5.67-2.54-5.67-5.67V17.67
					c0-3.13,2.54-5.67,5.67-5.67h21.58c3.13,0,5.67,2.54,5.67,5.67V39.58z"/>
				<circle class="st12" cx="29.31" cy="29.75" r="10.5"/>
				<circle class="st12" cx="40.38" cy="18.74" r="3"/>
			</g>
			<circle class="st12" cx="28.97" cy="29.62" r="6.63"/>
		</g>
		<g>
			<g>
				<path class="st13" d="M49.43,41.58c0,3.7-3,6.7-6.7,6.7H17.21c-3.7,0-6.7-3-6.7-6.7V15.67c0-3.7,3-6.7,6.7-6.7h25.52
					c3.7,0,6.7,3,6.7,6.7V41.58z"/>
				<path class="st13" d="M46.43,39.58c0,3.13-2.54,5.67-5.67,5.67H19.18c-3.13,0-5.67-2.54-5.67-5.67V17.67
					c0-3.13,2.54-5.67,5.67-5.67h21.58c3.13,0,5.67,2.54,5.67,5.67V39.58z"/>
				<circle class="st14" cx="29.31" cy="29.75" r="10.5"/>
				<circle class="st14" cx="40.38" cy="18.74" r="3"/>
			</g>
			<circle class="st13" cx="28.97" cy="29.62" r="6.63"/>
		</g>
	</g>
</g>
<g id="Calque_9" class="st0">
	<g class="st1">
		<g>
			<g>
				<path class="st11" d="M56.25,49.18c0,3.13-2.54,5.67-5.67,5.67H12.99c-3.13,0-5.67-2.54-5.67-5.67V11.59
					c0-3.13,2.54-5.67,5.67-5.67h37.59c3.13,0,5.67,2.54,5.67,5.67V49.18z"/>
				<g>
					<path class="st8" d="M54.5,48.18c0,3.13-2.54,5.67-5.67,5.67H11.24c-3.13,0-5.67-2.54-5.67-5.67V10.59
						c0-3.13,2.54-5.67,5.67-5.67h37.59c3.13,0,5.67,2.54,5.67,5.67V48.18z"/>
					<path class="st4" d="M50.83,9.23c-1.7-2.04-4.71-1.85-3.95-2.47c0.76-0.62,3.61,0.61,4.66,1.89c1.34,1.65,1.69,4.08,0.93,4.7
						C51.7,13.98,52.49,11.23,50.83,9.23z"/>
					<path class="st4" d="M9.35,9.23c1.7-2.04,4.71-1.85,3.95-2.47c-0.76-0.62-3.61,0.61-4.66,1.89c-1.34,1.65-1.69,4.08-0.93,4.7
						C8.48,13.98,7.69,11.23,9.35,9.23z"/>
					<path class="st4" d="M50.83,48.81c-1.7,2.04-4.71,1.85-3.95,2.47c0.76,0.62,3.61-0.61,4.66-1.89c1.34-1.65,1.69-4.08,0.93-4.7
						C51.7,44.06,52.49,46.81,50.83,48.81z"/>
					<path class="st4" d="M9.35,48.81c1.7,2.04,4.71,1.85,3.95,2.47c-0.76,0.62-3.61-0.61-4.66-1.89c-1.34-1.65-1.69-4.08-0.93-4.7
						C8.48,44.06,7.69,46.81,9.35,48.81z"/>
					<path class="st4" d="M17.55,51.82c0,0.13,5.59,0.23,12.48,0.23c6.89,0,12.48-0.1,12.48-0.23c0-0.13-5.59-0.23-12.48-0.23
						C23.14,51.59,17.55,51.7,17.55,51.82z"/>
				</g>
			</g>
			<path class="st4" d="M7.53,16.84c-0.13,0-0.23,5.59-0.23,12.48c0,6.89,0.1,12.48,0.23,12.48c0.13,0,0.23-5.59,0.23-12.48
				C7.76,22.43,7.66,16.84,7.53,16.84z"/>
		</g>
		<path class="st12" d="M47.1,19.02c-1.76-0.27-9.47-2.84-9.88-9.47c-1.56,0-5.75,0-5.75,0v28.66c0,0-3.93,8-9.85,3.7
			c-6.45-4.69-0.2-12.54,3.93-11.21c0.25-2.38,0.2-5.86,0.2-5.86s-5.25-1.13-10.38,5S13,49.58,26.75,49.21
			c7.62-0.5,10.62-8.25,10.62-12.13s-0.13-16.25-0.13-16.25s2.96,5.13,9.85,4.88C47,23.46,47.1,19.02,47.1,19.02z"/>
		<path class="st13" d="M47.1,19.02c-1.76-0.27-9.47-2.84-9.88-9.47c-1.56,0-5.75,0-5.75,0v28.66c0,0-3.93,8-9.85,3.7
			c-6.45-4.69-0.2-12.54,3.93-11.21c0.25-2.38,0.2-5.86,0.2-5.86s-5.25-1.13-10.38,5S13,49.58,26.75,49.21
			c7.62-0.5,10.62-8.25,10.62-12.13s-0.13-16.25-0.13-16.25s2.96,5.13,9.85,4.88C47,23.46,47.1,19.02,47.1,19.02z"/>
	</g>
</g>
<g id="Calque_10" class="st0">
	<g class="st1">
		<path class="st8" d="M56.25,49.18c0,3.13-2.54,5.67-5.67,5.67H12.99c-3.13,0-5.67-2.54-5.67-5.67V11.59
			c0-3.13,2.54-5.67,5.67-5.67h37.59c3.13,0,5.67,2.54,5.67,5.67V49.18z"/>
		<path class="st5" d="M54.5,48.18c0,3.13-2.54,5.67-5.67,5.67H11.24c-3.13,0-5.67-2.54-5.67-5.67V10.59c0-3.13,2.54-5.67,5.67-5.67
			h37.59c3.13,0,5.67,2.54,5.67,5.67V48.18z"/>
		<path class="st4" d="M50.83,9.23c-1.7-2.04-4.71-1.85-3.95-2.47c0.76-0.62,3.61,0.61,4.66,1.89c1.34,1.65,1.69,4.08,0.93,4.7
			C51.7,13.98,52.49,11.23,50.83,9.23z"/>
		<path class="st4" d="M9.35,9.23c1.7-2.04,4.71-1.85,3.95-2.47c-0.76-0.62-3.61,0.61-4.66,1.89c-1.34,1.65-1.69,4.08-0.93,4.7
			C8.48,13.98,7.69,11.23,9.35,9.23z"/>
		<path class="st4" d="M50.83,48.81c-1.7,2.04-4.71,1.85-3.95,2.47c0.76,0.62,3.61-0.61,4.66-1.89c1.34-1.65,1.69-4.08,0.93-4.7
			C51.7,44.06,52.49,46.81,50.83,48.81z"/>
		<path class="st4" d="M9.35,48.81c1.7,2.04,4.71,1.85,3.95,2.47c-0.76,0.62-3.61-0.61-4.66-1.89c-1.34-1.65-1.69-4.08-0.93-4.7
			C8.48,44.06,7.69,46.81,9.35,48.81z"/>
		<path class="st4" d="M17.55,51.82c0,0.13,5.59,0.23,12.48,0.23c6.89,0,12.48-0.1,12.48-0.23c0-0.13-5.59-0.23-12.48-0.23
			C23.14,51.59,17.55,51.7,17.55,51.82z"/>
		<path class="st4" d="M7.53,16.84c-0.13,0-0.23,5.59-0.23,12.48c0,6.89,0.1,12.48,0.23,12.48c0.13,0,0.23-5.59,0.23-12.48
			C7.76,22.43,7.66,16.84,7.53,16.84z"/>
		<path class="st12" d="M30.55,12.37c-8.22-0.13-10.72,6.48-9.97,13.96c-1,0.5-4.24-1-4.49,0c-0.25,0.99-0.25,2.49,2.24,2.74
			c1.5,0.5,2.61,1.19,1.11,3.68c-2.99,5.56-7.52,4.91-7.66,6.17c0,0,0.47,1.87,3.04,1.87c0.98,0,1.68-0.47,2.01,0
			c0.33,0.47-0.28,2.1,0.56,2.52c0.84,0.42,2.45-0.56,3.77-0.37c1.32,0.19,2.49,0.28,6.09,2.99c0.65,0.56,2.66,0.47,3.29,0.47
			c0.63,0,3.48-0.93,4.88-1.87c1.4-0.93,1.92-1.68,3.69-1.59c1.78,0.09,2.62,0.7,3.41,0.23c0.79-0.47,0.19-1.82,0.66-2.15
			c0.47-0.33,4.95-0.33,5.09-2.24c0.05-0.67-1.5-0.38-3.55-1.5c-1.94-1.05-4.38-3.44-4.86-5.93c0,0-0.94-1.45,1.92-2.15
			c1.21-0.33,2.8-0.94,2.76-1.92c-0.05-0.98-1.08-1.22-1.64-1.08c-0.56,0.14-3.46,1.5-3.32-0.05
			C39.73,24.61,42.16,12.56,30.55,12.37z"/>
		<path class="st13" d="M30.55,12.37c-8.22-0.13-10.72,6.48-9.97,13.96c-1,0.5-4.24-1-4.49,0c-0.25,0.99-0.25,2.49,2.24,2.74
			c1.5,0.5,2.61,1.19,1.11,3.68c-2.99,5.56-7.52,4.91-7.66,6.17c0,0,0.47,1.87,3.04,1.87c0.98,0,1.68-0.47,2.01,0
			c0.33,0.47-0.28,2.1,0.56,2.52c0.84,0.42,2.45-0.56,3.77-0.37c1.32,0.19,2.49,0.28,6.09,2.99c0.65,0.56,2.66,0.47,3.29,0.47
			c0.63,0,3.48-0.93,4.88-1.87c1.4-0.93,1.92-1.68,3.69-1.59c1.78,0.09,2.62,0.7,3.41,0.23c0.79-0.47,0.19-1.82,0.66-2.15
			c0.47-0.33,4.95-0.33,5.09-2.24c0.05-0.67-1.5-0.38-3.55-1.5c-1.94-1.05-4.38-3.44-4.86-5.93c0,0-0.94-1.45,1.92-2.15
			c1.21-0.33,2.8-0.94,2.76-1.92c-0.05-0.98-1.08-1.22-1.64-1.08c-0.56,0.14-3.46,1.5-3.32-0.05
			C39.73,24.61,42.16,12.56,30.55,12.37z"/>
	</g>
</g>
<g id="Calque_11" class="st0">
	<g class="st1">
		<path class="st8" d="M56.25,49.18c0,3.13-2.54,5.67-5.67,5.67H12.99c-3.13,0-5.67-2.54-5.67-5.67V11.59
			c0-3.13,2.54-5.67,5.67-5.67h37.59c3.13,0,5.67,2.54,5.67,5.67V49.18z"/>
		<path class="st5" d="M54.5,48.18c0,3.13-2.54,5.67-5.67,5.67H11.24c-3.13,0-5.67-2.54-5.67-5.67V10.59c0-3.13,2.54-5.67,5.67-5.67
			h37.59c3.13,0,5.67,2.54,5.67,5.67V48.18z"/>
		<path class="st4" d="M50.83,9.23c-1.7-2.04-4.71-1.85-3.95-2.47c0.76-0.62,3.61,0.61,4.66,1.89c1.34,1.65,1.69,4.08,0.93,4.7
			C51.7,13.98,52.49,11.23,50.83,9.23z"/>
		<path class="st4" d="M9.36,9.23c1.7-2.04,4.71-1.85,3.95-2.47c-0.76-0.62-3.61,0.61-4.66,1.89c-1.34,1.65-1.69,4.08-0.93,4.7
			C8.48,13.98,7.69,11.23,9.36,9.23z"/>
		<path class="st4" d="M50.83,48.81c-1.7,2.04-4.71,1.85-3.95,2.47c0.76,0.62,3.61-0.61,4.66-1.89c1.34-1.65,1.69-4.08,0.93-4.7
			C51.7,44.06,52.49,46.81,50.83,48.81z"/>
		<path class="st4" d="M9.36,48.81c1.7,2.04,4.71,1.85,3.95,2.47c-0.76,0.62-3.61-0.61-4.66-1.89c-1.34-1.65-1.69-4.08-0.93-4.7
			C8.48,44.06,7.69,46.81,9.36,48.81z"/>
		<path class="st4" d="M17.55,51.82c0,0.13,5.59,0.23,12.48,0.23c6.89,0,12.48-0.1,12.48-0.23c0-0.13-5.59-0.23-12.48-0.23
			C23.14,51.59,17.55,51.7,17.55,51.82z"/>
		<path class="st4" d="M7.53,16.84c-0.13,0-0.23,5.59-0.23,12.48c0,6.89,0.1,12.48,0.23,12.48c0.13,0,0.23-5.59,0.23-12.48
			C7.76,22.43,7.66,16.84,7.53,16.84z"/>
		<g>
			<path class="st12" d="M41.85,35.78"/>
			<path class="st12" d="M21.97,16.8c0,2.37-1.92,4.29-4.29,4.29l0,0c-2.37,0-4.29-1.92-4.29-4.29l0,0c0-2.37,1.92-4.29,4.29-4.29
				l0,0C20.06,12.52,21.97,14.44,21.97,16.8L21.97,16.8z"/>
			<rect x="14.34" y="23.88" class="st12" width="7.64" height="22.36"/>
			<path class="st12" d="M25.33,23.88h6.89v3.54c0,0,0.56-3.54,6.52-3.54c0,0,7.92-0.08,7.92,7.55c0,8.94,0,14.81,0,14.81h-6.99
				V33.76c0,0,0.19-4.29-3.68-4.29c-3.17,0-3.94,2.56-3.94,3.94c0,1.37,0,12.83,0,12.83h-6.73V23.88z"/>
		</g>
		<g>
			<path class="st13" d="M41.85,35.78"/>
			<path class="st13" d="M21.97,16.8c0,2.37-1.92,4.29-4.29,4.29l0,0c-2.37,0-4.29-1.92-4.29-4.29l0,0c0-2.37,1.92-4.29,4.29-4.29
				l0,0C20.06,12.52,21.97,14.44,21.97,16.8L21.97,16.8z"/>
			<rect x="14.34" y="23.88" class="st13" width="7.64" height="22.36"/>
			<path class="st13" d="M25.33,23.88h6.89v3.54c0,0,0.56-3.54,6.52-3.54c0,0,7.92-0.08,7.92,7.55c0,8.94,0,14.81,0,14.81h-6.99
				V33.76c0,0,0.19-4.29-3.68-4.29c-3.17,0-3.94,2.56-3.94,3.94c0,1.37,0,12.83,0,12.83h-6.73V23.88z"/>
		</g>
	</g>
</g>
<g id="Calque_12" class="st0">
	<g class="st1">
		<path class="st15" d="M56.25,49.18c0,3.13-2.54,5.67-5.67,5.67H12.99c-3.13,0-5.67-2.54-5.67-5.67V11.59
			c0-3.13,2.54-5.67,5.67-5.67h37.59c3.13,0,5.67,2.54,5.67,5.67V49.18z"/>
		<path d="M54.5,48.18c0,3.13-2.54,5.67-5.67,5.67H11.24c-3.13,0-5.67-2.54-5.67-5.67V10.59c0-3.13,2.54-5.67,5.67-5.67h37.59
			c3.13,0,5.67,2.54,5.67,5.67V48.18z"/>
		<path class="st4" d="M50.83,9.23c-1.7-2.04-4.71-1.85-3.95-2.47c0.76-0.62,3.61,0.61,4.66,1.89c1.34,1.65,1.69,4.08,0.93,4.7
			C51.7,13.98,52.49,11.23,50.83,9.23z"/>
		<path class="st4" d="M9.35,9.23c1.7-2.04,4.71-1.85,3.95-2.47c-0.76-0.62-3.61,0.61-4.66,1.89c-1.34,1.65-1.69,4.08-0.93,4.7
			C8.48,13.98,7.69,11.23,9.35,9.23z"/>
		<path class="st4" d="M50.83,48.81c-1.7,2.04-4.71,1.85-3.95,2.47c0.76,0.62,3.61-0.61,4.66-1.89c1.34-1.65,1.69-4.08,0.93-4.7
			C51.7,44.06,52.49,46.81,50.83,48.81z"/>
		<path class="st4" d="M9.35,48.81c1.7,2.04,4.71,1.85,3.95,2.47c-0.76,0.62-3.61-0.61-4.66-1.89c-1.34-1.65-1.69-4.08-0.93-4.7
			C8.48,44.06,7.69,46.81,9.35,48.81z"/>
		<path class="st4" d="M17.55,51.82c0,0.13,5.59,0.23,12.48,0.23c6.89,0,12.48-0.1,12.48-0.23c0-0.13-5.59-0.23-12.48-0.23
			C23.14,51.59,17.55,51.7,17.55,51.82z"/>
		<path class="st4" d="M7.53,16.84c-0.13,0-0.23,5.59-0.23,12.48c0,6.89,0.1,12.48,0.23,12.48c0.13,0,0.23-5.59,0.23-12.48
			C7.76,22.43,7.66,16.84,7.53,16.84z"/>
		<path class="st12" d="M47.57,14.59c0,0-3.61,1.63-4.73,1.81c-0.34-0.43-3.87-3.96-8.68-1.81c-4.81,2.15-4.73,5.93-4.81,8.68
			c-1.29,0-7.91-0.17-15.39-8.08c-0.69,0.69-3.61,6.62,1.55,10.23c-1.03-0.09-2.99-0.77-2.99-0.77c0.42,2.32,1.36,6.53,5.92,7.74
			c-1.55,0.09-3.01,0-3.01,0c0.69,1.81,1.55,4.21,6.53,5.67c-1.2,0.77-1.38,1.72-10.75,2.75c0.6,0.69,12.64,9.89,27.68-2.49
			c4.3-4.3,7.05-10.15,6.28-16.59c1.63-1.2,3.61-2.84,3.7-3.96c-0.95,0.26-4.47,1.12-4.47,1.12C46.8,17.09,47.57,14.59,47.57,14.59z
			"/>
		<path class="st13" d="M47.57,14.65c0,0-3.61,1.63-4.73,1.81c-0.34-0.43-3.87-3.95-8.68-1.81c-4.81,2.15-4.73,5.93-4.81,8.68
			c-1.29,0-7.91-0.17-15.39-8.08c-0.69,0.69-3.61,6.62,1.55,10.23c-1.03-0.09-2.99-0.77-2.99-0.77c0.42,2.32,1.36,6.53,5.92,7.74
			c-1.55,0.09-3.01,0-3.01,0c0.69,1.81,1.55,4.21,6.53,5.67c-1.2,0.77-1.38,1.72-10.75,2.75c0.6,0.69,12.64,9.89,27.68-2.49
			c4.3-4.3,7.05-10.15,6.28-16.59c1.63-1.2,3.61-2.84,3.7-3.96c-0.95,0.26-4.47,1.12-4.47,1.12C46.8,17.14,47.57,14.65,47.57,14.65z
			"/>
	</g>
</g>
<g id="Calque_13" class="st0">
	<g class="st1">
		<g>
			<path class="st15" d="M56.25,49.18c0,3.13-2.54,5.67-5.67,5.67H12.99c-3.13,0-5.67-2.54-5.67-5.67V11.59
				c0-3.13,2.54-5.67,5.67-5.67h37.59c3.13,0,5.67,2.54,5.67,5.67V49.18z"/>
			<path d="M54.5,48.18c0,3.13-2.54,5.67-5.67,5.67H11.24c-3.13,0-5.67-2.54-5.67-5.67V10.59c0-3.13,2.54-5.67,5.67-5.67h37.59
				c3.13,0,5.67,2.54,5.67,5.67V48.18z"/>
			<path class="st12" d="M25.74,48.42V28.39h-5.15v-5.72h5.15c0,0-1.04-6.12,3.29-10.45c1.99-1.99,5.98-3,10.45-3v5.29
				c0,0-6.3,0-6.3,3.72c0,3.15,0,4.72,0,4.72h6.3v5.44h-5.72l0.14,20.03H25.74z"/>
			<path class="st4" d="M50.83,9.23c-1.7-2.04-4.71-1.85-3.95-2.47c0.76-0.62,3.61,0.61,4.66,1.89c1.34,1.65,1.69,4.08,0.93,4.7
				C51.7,13.98,52.49,11.23,50.83,9.23z"/>
			<path class="st4" d="M9.35,9.23c1.7-2.04,4.71-1.85,3.95-2.47c-0.76-0.62-3.61,0.61-4.66,1.89c-1.34,1.65-1.69,4.08-0.93,4.7
				C8.48,13.98,7.69,11.23,9.35,9.23z"/>
			<path class="st4" d="M50.83,48.81c-1.7,2.04-4.71,1.85-3.95,2.47c0.76,0.62,3.61-0.61,4.66-1.89c1.34-1.65,1.69-4.08,0.93-4.7
				C51.7,44.06,52.49,46.81,50.83,48.81z"/>
			<path class="st4" d="M9.35,48.81c1.7,2.04,4.71,1.85,3.95,2.47c-0.76,0.62-3.61-0.61-4.66-1.89c-1.34-1.65-1.69-4.08-0.93-4.7
				C8.48,44.06,7.69,46.81,9.35,48.81z"/>
			<path class="st4" d="M17.55,51.82c0,0.13,5.59,0.23,12.48,0.23c6.89,0,12.48-0.1,12.48-0.23c0-0.13-5.59-0.23-12.48-0.23
				C23.14,51.59,17.55,51.7,17.55,51.82z"/>
			<path class="st4" d="M7.53,16.84c-0.13,0-0.23,5.59-0.23,12.48c0,6.89,0.1,12.48,0.23,12.48c0.13,0,0.23-5.59,0.23-12.48
				C7.76,22.43,7.66,16.84,7.53,16.84z"/>
		</g>
		<path class="st13" d="M25.74,48.42V28.39h-5.15v-5.72h5.15c0,0-1.04-6.12,3.29-10.45c1.99-1.99,5.98-3,10.45-3v5.29
			c0,0-6.3,0-6.3,3.72c0,3.15,0,4.72,0,4.72h6.3v5.44h-5.72l0.14,20.03H25.74z"/>
	</g>
</g>
</svg>
